ISO-10303-21;
HEADER;
/* Generated by software containing ST-Developer
 * from STEP Tools, Inc. (www.steptools.com) 
 */

FILE_DESCRIPTION(
/* description */ (''),
/* implementation_level */ '2;1');

FILE_NAME(
/* name */ 'button-speaker-top-big-speaker.step',
/* time_stamp */ '2025-12-24T14:22:50+09:00',
/* author */ (''),
/* organization */ (''),
/* preprocessor_version */ 'ST-DEVELOPER v20.1',
/* originating_system */ 'Autodesk Translation Framework v14.21.0.0',
/* authorisation */ '');

FILE_SCHEMA (('AUTOMOTIVE_DESIGN { 1 0 10303 214 3 1 1 }'));
ENDSEC;

DATA;
#10=MECHANICAL_DESIGN_GEOMETRIC_PRESENTATION_REPRESENTATION('',(#13),#1222);
#11=SHAPE_REPRESENTATION_RELATIONSHIP('SRR','None',#1228,#12);
#12=ADVANCED_BREP_SHAPE_REPRESENTATION('',(#14),#1221);
#13=STYLED_ITEM('',(#1237),#14);
#14=MANIFOLD_SOLID_BREP('Body1',#608);
#15=TOROIDAL_SURFACE('',#634,2.75,0.5);
#16=TOROIDAL_SURFACE('',#643,2.75,0.5);
#17=FACE_BOUND('',#130,.T.);
#18=FACE_BOUND('',#133,.T.);
#19=FACE_BOUND('',#137,.T.);
#20=FACE_BOUND('',#140,.T.);
#21=FACE_BOUND('',#150,.T.);
#22=FACE_BOUND('',#154,.T.);
#23=FACE_BOUND('',#157,.T.);
#24=FACE_BOUND('',#160,.T.);
#25=FACE_BOUND('',#164,.T.);
#26=FACE_BOUND('',#165,.T.);
#27=FACE_BOUND('',#167,.T.);
#28=FACE_BOUND('',#168,.T.);
#29=FACE_BOUND('',#169,.T.);
#30=FACE_BOUND('',#171,.T.);
#31=FACE_BOUND('',#172,.T.);
#32=FACE_BOUND('',#173,.T.);
#33=CIRCLE('',#615,19.25);
#34=CIRCLE('',#618,19.25);
#35=CIRCLE('',#621,1.75);
#36=CIRCLE('',#623,1.3);
#37=CIRCLE('',#625,1.75);
#38=CIRCLE('',#627,1.3);
#39=CIRCLE('',#635,2.75);
#40=CIRCLE('',#636,0.5);
#41=CIRCLE('',#637,3.25);
#42=CIRCLE('',#638,3.25);
#43=CIRCLE('',#640,3.25);
#44=CIRCLE('',#642,1.15);
#45=CIRCLE('',#644,2.75);
#46=CIRCLE('',#645,0.5);
#47=CIRCLE('',#646,3.25);
#48=CIRCLE('',#647,3.25);
#49=CIRCLE('',#649,3.25);
#50=CIRCLE('',#651,1.15);
#51=CIRCLE('',#653,2.25);
#52=CIRCLE('',#654,2.25);
#53=CIRCLE('',#656,1.15);
#54=CIRCLE('',#658,2.25);
#55=CIRCLE('',#659,2.25);
#56=CIRCLE('',#661,1.15);
#57=CIRCLE('',#665,25.25);
#58=CIRCLE('',#666,25.25);
#59=CIRCLE('',#667,25.25);
#60=CIRCLE('',#668,25.25);
#61=B_SPLINE_CURVE_WITH_KNOTS('',3,(#862,#863,#864,#865,#866,#867,#868,
#869,#870,#871),.UNSPECIFIED.,.F.,.F.,(4,2,2,2,4),(0.680755942833268,0.850935901779269,
1.02111586072527,1.1913138731959,1.36151188566654),.UNSPECIFIED.);
#62=B_SPLINE_CURVE_WITH_KNOTS('',3,(#873,#874,#875,#876,#877,#878,#879,
#880,#881,#882),.UNSPECIFIED.,.F.,.F.,(4,2,2,2,4),(1.36151188566654,1.53170989813717,
1.7019079106078,1.8720878695538,2.0422678284998),.UNSPECIFIED.);
#63=B_SPLINE_CURVE_WITH_KNOTS('',3,(#890,#891,#892,#893,#894,#895,#896,
#897,#898,#899,#900,#901,#902,#903,#904,#905,#906,#907,#908,#909,#910,#911,
#912,#913,#914,#915),.UNSPECIFIED.,.F.,.F.,(4,2,2,2,2,2,2,2,2,2,2,2,4),
(0.,0.0489852816314799,0.0979705632629597,0.146955804387793,0.195941045512627,
0.244926300000573,0.293911554488518,0.342896837474736,0.391882120460954,
0.440867403447172,0.48985268643339,0.538837940921336,0.587823195409282),
 .UNSPECIFIED.);
#64=B_SPLINE_CURVE_WITH_KNOTS('',3,(#916,#917,#918,#919,#920,#921,#922,
#923,#924,#925),.UNSPECIFIED.,.F.,.F.,(4,2,2,2,4),(0.587823195409282,0.636808436534115,
0.685793677658949,0.734778959290429,0.783764240921909),.UNSPECIFIED.);
#65=B_SPLINE_CURVE_WITH_KNOTS('',3,(#930,#931,#932,#933,#934,#935,#936,
#937,#938,#939),.UNSPECIFIED.,.F.,.F.,(4,2,2,2,4),(1.35919793496882,1.5291006545689,
1.69900337416898,1.8689001383111,2.03879690245323),.UNSPECIFIED.);
#66=B_SPLINE_CURVE_WITH_KNOTS('',3,(#941,#942,#943,#944,#945,#946,#947,
#948,#949,#950),.UNSPECIFIED.,.F.,.F.,(4,2,2,2,4),(0.679598967484409,0.84949573162653,
1.01939249576865,1.18929521536873,1.35919793496882),.UNSPECIFIED.);
#67=B_SPLINE_CURVE_WITH_KNOTS('',3,(#955,#956,#957,#958,#959,#960,#961,
#962,#963,#964),.UNSPECIFIED.,.F.,.F.,(4,2,2,2,4),(0.680755942833267,0.850935901779268,
1.02111586072527,1.1913138731959,1.36151188566654),.UNSPECIFIED.);
#68=B_SPLINE_CURVE_WITH_KNOTS('',3,(#966,#967,#968,#969,#970,#971,#972,
#973,#974,#975),.UNSPECIFIED.,.F.,.F.,(4,2,2,2,4),(1.36151188566654,1.53170989813717,
1.7019079106078,1.8720878695538,2.0422678284998),.UNSPECIFIED.);
#69=B_SPLINE_CURVE_WITH_KNOTS('',3,(#983,#984,#985,#986,#987,#988,#989,
#990,#991,#992),.UNSPECIFIED.,.F.,.F.,(4,2,2,2,4),(0.,0.0489852816314798,
0.0979705632629597,0.146955804387793,0.195941045512627),.UNSPECIFIED.);
#70=B_SPLINE_CURVE_WITH_KNOTS('',3,(#993,#994,#995,#996,#997,#998,#999,
#1000,#1001,#1002,#1003,#1004,#1005,#1006,#1007,#1008,#1009,#1010,#1011,
#1012,#1013,#1014,#1015,#1016,#1017,#1018),.UNSPECIFIED.,.F.,.F.,(4,2,2,
2,2,2,2,2,2,2,2,2,4),(0.195941045512627,0.244926300000573,0.293911554488518,
0.342896837474736,0.391882120460954,0.440867403447172,0.48985268643339,
0.538837940921336,0.587823195409282,0.636808436534115,0.685793677658949,
0.734778959290429,0.783764240921909),.UNSPECIFIED.);
#71=B_SPLINE_CURVE_WITH_KNOTS('',3,(#1023,#1024,#1025,#1026,#1027,#1028,
#1029,#1030,#1031,#1032),.UNSPECIFIED.,.F.,.F.,(4,2,2,2,4),(1.35919793496882,
1.5291006545689,1.69900337416898,1.8689001383111,2.03879690245323),
 .UNSPECIFIED.);
#72=B_SPLINE_CURVE_WITH_KNOTS('',3,(#1034,#1035,#1036,#1037,#1038,#1039,
#1040,#1041,#1042,#1043),.UNSPECIFIED.,.F.,.F.,(4,2,2,2,4),(0.679598967484408,
0.84949573162653,1.01939249576865,1.18929521536873,1.35919793496882),
 .UNSPECIFIED.);
#73=B_SPLINE_CURVE_WITH_KNOTS('',3,(#1048,#1049,#1050,#1051,#1052,#1053,
#1054,#1055,#1056,#1057,#1058,#1059,#1060,#1061,#1062,#1063,#1064,#1065),
 .UNSPECIFIED.,.F.,.F.,(4,2,2,2,2,2,2,2,4),(0.263771407839488,0.329714234031019,
0.395657060222551,0.461599937950763,0.527542815678975,0.593485693407187,
0.659428571135399,0.725371397326931,0.791314223518463),.UNSPECIFIED.);
#74=B_SPLINE_CURVE_WITH_KNOTS('',3,(#1066,#1067,#1068,#1069,#1070,#1071,
#1072,#1073,#1074,#1075,#1076,#1077,#1078,#1079,#1080,#1081,#1082,#1083,
#1084),.UNSPECIFIED.,.F.,.F.,(4,2,2,2,3,2,2,2,4),(0.791314223518463,0.857257049709995,
0.923199875901526,0.989142753629738,1.05508563135795,1.12102850908616,1.18697138681437,
1.25291421300591,1.31885703919744),.UNSPECIFIED.);
#75=B_SPLINE_CURVE_WITH_KNOTS('',3,(#1094,#1095,#1096,#1097,#1098,#1099,
#1100,#1101,#1102,#1103,#1104,#1105,#1106,#1107,#1108,#1109,#1110,#1111),
 .UNSPECIFIED.,.F.,.F.,(4,2,2,2,2,2,2,2,4),(0.263771407839487,0.329714234031019,
0.395657060222551,0.461599937950763,0.527542815678975,0.593485693407187,
0.659428571135399,0.725371397326931,0.791314223518463),.UNSPECIFIED.);
#76=B_SPLINE_CURVE_WITH_KNOTS('',3,(#1112,#1113,#1114,#1115,#1116,#1117,
#1118,#1119,#1120,#1121,#1122,#1123,#1124,#1125,#1126,#1127,#1128,#1129,
#1130),.UNSPECIFIED.,.F.,.F.,(4,2,2,2,3,2,2,2,4),(0.791314223518463,0.857257049709994,
0.923199875901526,0.989142753629738,1.05508563135795,1.12102850908616,1.18697138681437,
1.25291421300591,1.31885703919744),.UNSPECIFIED.);
#77=CYLINDRICAL_SURFACE('',#614,19.25);
#78=CYLINDRICAL_SURFACE('',#616,4.5);
#79=CYLINDRICAL_SURFACE('',#617,19.25);
#80=CYLINDRICAL_SURFACE('',#619,4.5);
#81=CYLINDRICAL_SURFACE('',#620,1.75);
#82=CYLINDRICAL_SURFACE('',#624,1.75);
#83=CYLINDRICAL_SURFACE('',#628,1.3);
#84=CYLINDRICAL_SURFACE('',#629,1.3);
#85=CYLINDRICAL_SURFACE('',#639,3.25);
#86=CYLINDRICAL_SURFACE('',#648,3.25);
#87=CYLINDRICAL_SURFACE('',#652,2.25);
#88=CYLINDRICAL_SURFACE('',#657,2.25);
#89=CYLINDRICAL_SURFACE('',#662,1.15);
#90=CYLINDRICAL_SURFACE('',#663,1.15);
#91=CYLINDRICAL_SURFACE('',#664,25.25);
#92=FACE_OUTER_BOUND('',#125,.T.);
#93=FACE_OUTER_BOUND('',#126,.T.);
#94=FACE_OUTER_BOUND('',#127,.T.);
#95=FACE_OUTER_BOUND('',#128,.T.);
#96=FACE_OUTER_BOUND('',#129,.T.);
#97=FACE_OUTER_BOUND('',#131,.T.);
#98=FACE_OUTER_BOUND('',#132,.T.);
#99=FACE_OUTER_BOUND('',#134,.T.);
#100=FACE_OUTER_BOUND('',#135,.T.);
#101=FACE_OUTER_BOUND('',#136,.T.);
#102=FACE_OUTER_BOUND('',#138,.T.);
#103=FACE_OUTER_BOUND('',#139,.T.);
#104=FACE_OUTER_BOUND('',#141,.T.);
#105=FACE_OUTER_BOUND('',#142,.T.);
#106=FACE_OUTER_BOUND('',#143,.T.);
#107=FACE_OUTER_BOUND('',#144,.T.);
#108=FACE_OUTER_BOUND('',#145,.T.);
#109=FACE_OUTER_BOUND('',#146,.T.);
#110=FACE_OUTER_BOUND('',#147,.T.);
#111=FACE_OUTER_BOUND('',#148,.T.);
#112=FACE_OUTER_BOUND('',#149,.T.);
#113=FACE_OUTER_BOUND('',#151,.T.);
#114=FACE_OUTER_BOUND('',#152,.T.);
#115=FACE_OUTER_BOUND('',#153,.T.);
#116=FACE_OUTER_BOUND('',#155,.T.);
#117=FACE_OUTER_BOUND('',#156,.T.);
#118=FACE_OUTER_BOUND('',#158,.T.);
#119=FACE_OUTER_BOUND('',#159,.T.);
#120=FACE_OUTER_BOUND('',#161,.T.);
#121=FACE_OUTER_BOUND('',#162,.T.);
#122=FACE_OUTER_BOUND('',#163,.T.);
#123=FACE_OUTER_BOUND('',#166,.T.);
#124=FACE_OUTER_BOUND('',#170,.T.);
#125=EDGE_LOOP('',(#393,#394,#395,#396));
#126=EDGE_LOOP('',(#397,#398,#399,#400));
#127=EDGE_LOOP('',(#401,#402,#403,#404));
#128=EDGE_LOOP('',(#405,#406,#407,#408));
#129=EDGE_LOOP('',(#409,#410,#411,#412,#413));
#130=EDGE_LOOP('',(#414,#415));
#131=EDGE_LOOP('',(#416,#417,#418,#419,#420,#421));
#132=EDGE_LOOP('',(#422,#423,#424,#425,#426));
#133=EDGE_LOOP('',(#427,#428));
#134=EDGE_LOOP('',(#429,#430,#431,#432,#433,#434));
#135=EDGE_LOOP('',(#435,#436,#437,#438,#439));
#136=EDGE_LOOP('',(#440));
#137=EDGE_LOOP('',(#441));
#138=EDGE_LOOP('',(#442,#443,#444,#445,#446));
#139=EDGE_LOOP('',(#447));
#140=EDGE_LOOP('',(#448));
#141=EDGE_LOOP('',(#449,#450,#451,#452,#453));
#142=EDGE_LOOP('',(#454,#455,#456,#457,#458));
#143=EDGE_LOOP('',(#459,#460,#461,#462));
#144=EDGE_LOOP('',(#463,#464,#465,#466));
#145=EDGE_LOOP('',(#467,#468,#469,#470));
#146=EDGE_LOOP('',(#471,#472,#473,#474));
#147=EDGE_LOOP('',(#475,#476,#477,#478,#479));
#148=EDGE_LOOP('',(#480,#481,#482,#483,#484));
#149=EDGE_LOOP('',(#485));
#150=EDGE_LOOP('',(#486));
#151=EDGE_LOOP('',(#487,#488,#489,#490,#491));
#152=EDGE_LOOP('',(#492,#493,#494,#495,#496));
#153=EDGE_LOOP('',(#497));
#154=EDGE_LOOP('',(#498));
#155=EDGE_LOOP('',(#499,#500,#501,#502));
#156=EDGE_LOOP('',(#503));
#157=EDGE_LOOP('',(#504));
#158=EDGE_LOOP('',(#505,#506,#507,#508));
#159=EDGE_LOOP('',(#509));
#160=EDGE_LOOP('',(#510));
#161=EDGE_LOOP('',(#511,#512,#513,#514));
#162=EDGE_LOOP('',(#515,#516,#517,#518));
#163=EDGE_LOOP('',(#519,#520,#521,#522,#523,#524,#525,#526,#527,#528,#529,
#530,#531,#532));
#164=EDGE_LOOP('',(#533,#534));
#165=EDGE_LOOP('',(#535,#536));
#166=EDGE_LOOP('',(#537,#538,#539,#540,#541,#542,#543,#544,#545));
#167=EDGE_LOOP('',(#546,#547,#548,#549));
#168=EDGE_LOOP('',(#550));
#169=EDGE_LOOP('',(#551));
#170=EDGE_LOOP('',(#552));
#171=EDGE_LOOP('',(#553,#554,#555,#556));
#172=EDGE_LOOP('',(#557));
#173=EDGE_LOOP('',(#558));
#174=LINE('',#838,#213);
#175=LINE('',#840,#214);
#176=LINE('',#842,#215);
#177=LINE('',#843,#216);
#178=LINE('',#846,#217);
#179=LINE('',#848,#218);
#180=LINE('',#849,#219);
#181=LINE('',#852,#220);
#182=LINE('',#854,#221);
#183=LINE('',#855,#222);
#184=LINE('',#857,#223);
#185=LINE('',#858,#224);
#186=LINE('',#884,#225);
#187=LINE('',#887,#226);
#188=LINE('',#928,#227);
#189=LINE('',#951,#228);
#190=LINE('',#977,#229);
#191=LINE('',#980,#230);
#192=LINE('',#1021,#231);
#193=LINE('',#1044,#232);
#194=LINE('',#1086,#233);
#195=LINE('',#1132,#234);
#196=LINE('',#1138,#235);
#197=LINE('',#1140,#236);
#198=LINE('',#1143,#237);
#199=LINE('',#1144,#238);
#200=LINE('',#1147,#239);
#201=LINE('',#1148,#240);
#202=LINE('',#1151,#241);
#203=LINE('',#1152,#242);
#204=LINE('',#1155,#243);
#205=LINE('',#1156,#244);
#206=LINE('',#1167,#245);
#207=LINE('',#1182,#246);
#208=LINE('',#1191,#247);
#209=LINE('',#1200,#248);
#210=LINE('',#1206,#249);
#211=LINE('',#1208,#250);
#212=LINE('',#1213,#251);
#213=VECTOR('',#675,10.);
#214=VECTOR('',#676,10.);
#215=VECTOR('',#677,10.);
#216=VECTOR('',#678,10.);
#217=VECTOR('',#681,10.);
#218=VECTOR('',#682,10.);
#219=VECTOR('',#683,10.);
#220=VECTOR('',#686,10.);
#221=VECTOR('',#687,10.);
#222=VECTOR('',#688,10.);
#223=VECTOR('',#691,10.);
#224=VECTOR('',#692,10.);
#225=VECTOR('',#695,10.);
#226=VECTOR('',#698,10.);
#227=VECTOR('',#701,10.);
#228=VECTOR('',#702,10.);
#229=VECTOR('',#705,10.);
#230=VECTOR('',#708,10.);
#231=VECTOR('',#711,10.);
#232=VECTOR('',#712,10.);
#233=VECTOR('',#715,1.75);
#234=VECTOR('',#724,1.75);
#235=VECTOR('',#733,1.3);
#236=VECTOR('',#736,1.3);
#237=VECTOR('',#739,10.);
#238=VECTOR('',#740,10.);
#239=VECTOR('',#743,10.);
#240=VECTOR('',#744,10.);
#241=VECTOR('',#747,10.);
#242=VECTOR('',#748,10.);
#243=VECTOR('',#751,10.);
#244=VECTOR('',#752,10.);
#245=VECTOR('',#765,3.25);
#246=VECTOR('',#784,3.25);
#247=VECTOR('',#795,2.25);
#248=VECTOR('',#806,2.25);
#249=VECTOR('',#815,1.15);
#250=VECTOR('',#818,1.15);
#251=VECTOR('',#823,25.25);
#252=VERTEX_POINT('',#836);
#253=VERTEX_POINT('',#837);
#254=VERTEX_POINT('',#839);
#255=VERTEX_POINT('',#841);
#256=VERTEX_POINT('',#845);
#257=VERTEX_POINT('',#847);
#258=VERTEX_POINT('',#851);
#259=VERTEX_POINT('',#853);
#260=VERTEX_POINT('',#860);
#261=VERTEX_POINT('',#861);
#262=VERTEX_POINT('',#872);
#263=VERTEX_POINT('',#883);
#264=VERTEX_POINT('',#885);
#265=VERTEX_POINT('',#888);
#266=VERTEX_POINT('',#889);
#267=VERTEX_POINT('',#927);
#268=VERTEX_POINT('',#929);
#269=VERTEX_POINT('',#940);
#270=VERTEX_POINT('',#953);
#271=VERTEX_POINT('',#954);
#272=VERTEX_POINT('',#965);
#273=VERTEX_POINT('',#976);
#274=VERTEX_POINT('',#978);
#275=VERTEX_POINT('',#981);
#276=VERTEX_POINT('',#982);
#277=VERTEX_POINT('',#1020);
#278=VERTEX_POINT('',#1022);
#279=VERTEX_POINT('',#1033);
#280=VERTEX_POINT('',#1046);
#281=VERTEX_POINT('',#1047);
#282=VERTEX_POINT('',#1085);
#283=VERTEX_POINT('',#1089);
#284=VERTEX_POINT('',#1092);
#285=VERTEX_POINT('',#1093);
#286=VERTEX_POINT('',#1131);
#287=VERTEX_POINT('',#1135);
#288=VERTEX_POINT('',#1142);
#289=VERTEX_POINT('',#1146);
#290=VERTEX_POINT('',#1150);
#291=VERTEX_POINT('',#1154);
#292=VERTEX_POINT('',#1158);
#293=VERTEX_POINT('',#1160);
#294=VERTEX_POINT('',#1162);
#295=VERTEX_POINT('',#1166);
#296=VERTEX_POINT('',#1170);
#297=VERTEX_POINT('',#1173);
#298=VERTEX_POINT('',#1175);
#299=VERTEX_POINT('',#1177);
#300=VERTEX_POINT('',#1181);
#301=VERTEX_POINT('',#1185);
#302=VERTEX_POINT('',#1188);
#303=VERTEX_POINT('',#1190);
#304=VERTEX_POINT('',#1194);
#305=VERTEX_POINT('',#1197);
#306=VERTEX_POINT('',#1199);
#307=VERTEX_POINT('',#1203);
#308=VERTEX_POINT('',#1210);
#309=VERTEX_POINT('',#1212);
#310=EDGE_CURVE('',#252,#253,#174,.T.);
#311=EDGE_CURVE('',#254,#252,#175,.T.);
#312=EDGE_CURVE('',#255,#254,#176,.T.);
#313=EDGE_CURVE('',#255,#253,#177,.T.);
#314=EDGE_CURVE('',#253,#256,#178,.T.);
#315=EDGE_CURVE('',#257,#255,#179,.T.);
#316=EDGE_CURVE('',#257,#256,#180,.T.);
#317=EDGE_CURVE('',#256,#258,#181,.T.);
#318=EDGE_CURVE('',#259,#257,#182,.T.);
#319=EDGE_CURVE('',#259,#258,#183,.T.);
#320=EDGE_CURVE('',#258,#252,#184,.T.);
#321=EDGE_CURVE('',#254,#259,#185,.T.);
#322=EDGE_CURVE('',#260,#261,#61,.T.);
#323=EDGE_CURVE('',#262,#260,#62,.T.);
#324=EDGE_CURVE('',#263,#262,#186,.T.);
#325=EDGE_CURVE('',#264,#263,#33,.T.);
#326=EDGE_CURVE('',#264,#261,#187,.T.);
#327=EDGE_CURVE('',#265,#266,#63,.T.);
#328=EDGE_CURVE('',#266,#265,#64,.T.);
#329=EDGE_CURVE('',#261,#267,#188,.T.);
#330=EDGE_CURVE('',#267,#268,#65,.T.);
#331=EDGE_CURVE('',#268,#269,#66,.T.);
#332=EDGE_CURVE('',#269,#262,#189,.T.);
#333=EDGE_CURVE('',#270,#271,#67,.T.);
#334=EDGE_CURVE('',#272,#270,#68,.T.);
#335=EDGE_CURVE('',#273,#272,#190,.T.);
#336=EDGE_CURVE('',#274,#273,#34,.T.);
#337=EDGE_CURVE('',#274,#271,#191,.T.);
#338=EDGE_CURVE('',#275,#276,#69,.T.);
#339=EDGE_CURVE('',#276,#275,#70,.T.);
#340=EDGE_CURVE('',#271,#277,#192,.T.);
#341=EDGE_CURVE('',#277,#278,#71,.T.);
#342=EDGE_CURVE('',#278,#279,#72,.T.);
#343=EDGE_CURVE('',#279,#272,#193,.T.);
#344=EDGE_CURVE('',#280,#281,#73,.T.);
#345=EDGE_CURVE('',#281,#280,#74,.T.);
#346=EDGE_CURVE('',#281,#282,#194,.T.);
#347=EDGE_CURVE('',#282,#282,#35,.T.);
#348=EDGE_CURVE('',#283,#283,#36,.T.);
#349=EDGE_CURVE('',#284,#285,#75,.T.);
#350=EDGE_CURVE('',#285,#284,#76,.T.);
#351=EDGE_CURVE('',#285,#286,#195,.T.);
#352=EDGE_CURVE('',#286,#286,#37,.T.);
#353=EDGE_CURVE('',#287,#287,#38,.T.);
#354=EDGE_CURVE('',#266,#283,#196,.T.);
#355=EDGE_CURVE('',#287,#276,#197,.T.);
#356=EDGE_CURVE('',#288,#279,#198,.T.);
#357=EDGE_CURVE('',#273,#288,#199,.T.);
#358=EDGE_CURVE('',#289,#274,#200,.T.);
#359=EDGE_CURVE('',#289,#277,#201,.T.);
#360=EDGE_CURVE('',#290,#269,#202,.T.);
#361=EDGE_CURVE('',#263,#290,#203,.T.);
#362=EDGE_CURVE('',#291,#264,#204,.T.);
#363=EDGE_CURVE('',#291,#267,#205,.T.);
#364=EDGE_CURVE('',#292,#292,#39,.T.);
#365=EDGE_CURVE('',#292,#293,#40,.T.);
#366=EDGE_CURVE('',#293,#294,#41,.T.);
#367=EDGE_CURVE('',#294,#293,#42,.T.);
#368=EDGE_CURVE('',#294,#295,#206,.T.);
#369=EDGE_CURVE('',#295,#295,#43,.T.);
#370=EDGE_CURVE('',#296,#296,#44,.T.);
#371=EDGE_CURVE('',#297,#297,#45,.T.);
#372=EDGE_CURVE('',#297,#298,#46,.T.);
#373=EDGE_CURVE('',#298,#299,#47,.T.);
#374=EDGE_CURVE('',#299,#298,#48,.T.);
#375=EDGE_CURVE('',#299,#300,#207,.T.);
#376=EDGE_CURVE('',#300,#300,#49,.T.);
#377=EDGE_CURVE('',#301,#301,#50,.T.);
#378=EDGE_CURVE('',#302,#302,#51,.T.);
#379=EDGE_CURVE('',#302,#303,#208,.T.);
#380=EDGE_CURVE('',#303,#303,#52,.T.);
#381=EDGE_CURVE('',#304,#304,#53,.T.);
#382=EDGE_CURVE('',#305,#305,#54,.T.);
#383=EDGE_CURVE('',#305,#306,#209,.T.);
#384=EDGE_CURVE('',#306,#306,#55,.T.);
#385=EDGE_CURVE('',#307,#307,#56,.T.);
#386=EDGE_CURVE('',#307,#301,#210,.T.);
#387=EDGE_CURVE('',#304,#296,#211,.T.);
#388=EDGE_CURVE('',#308,#291,#57,.T.);
#389=EDGE_CURVE('',#308,#309,#212,.T.);
#390=EDGE_CURVE('',#309,#309,#58,.T.);
#391=EDGE_CURVE('',#288,#308,#59,.T.);
#392=EDGE_CURVE('',#290,#289,#60,.T.);
#393=ORIENTED_EDGE('',*,*,#310,.F.);
#394=ORIENTED_EDGE('',*,*,#311,.F.);
#395=ORIENTED_EDGE('',*,*,#312,.F.);
#396=ORIENTED_EDGE('',*,*,#313,.T.);
#397=ORIENTED_EDGE('',*,*,#314,.F.);
#398=ORIENTED_EDGE('',*,*,#313,.F.);
#399=ORIENTED_EDGE('',*,*,#315,.F.);
#400=ORIENTED_EDGE('',*,*,#316,.T.);
#401=ORIENTED_EDGE('',*,*,#317,.F.);
#402=ORIENTED_EDGE('',*,*,#316,.F.);
#403=ORIENTED_EDGE('',*,*,#318,.F.);
#404=ORIENTED_EDGE('',*,*,#319,.T.);
#405=ORIENTED_EDGE('',*,*,#320,.F.);
#406=ORIENTED_EDGE('',*,*,#319,.F.);
#407=ORIENTED_EDGE('',*,*,#321,.F.);
#408=ORIENTED_EDGE('',*,*,#311,.T.);
#409=ORIENTED_EDGE('',*,*,#322,.F.);
#410=ORIENTED_EDGE('',*,*,#323,.F.);
#411=ORIENTED_EDGE('',*,*,#324,.F.);
#412=ORIENTED_EDGE('',*,*,#325,.F.);
#413=ORIENTED_EDGE('',*,*,#326,.T.);
#414=ORIENTED_EDGE('',*,*,#327,.T.);
#415=ORIENTED_EDGE('',*,*,#328,.T.);
#416=ORIENTED_EDGE('',*,*,#323,.T.);
#417=ORIENTED_EDGE('',*,*,#322,.T.);
#418=ORIENTED_EDGE('',*,*,#329,.T.);
#419=ORIENTED_EDGE('',*,*,#330,.T.);
#420=ORIENTED_EDGE('',*,*,#331,.T.);
#421=ORIENTED_EDGE('',*,*,#332,.T.);
#422=ORIENTED_EDGE('',*,*,#333,.F.);
#423=ORIENTED_EDGE('',*,*,#334,.F.);
#424=ORIENTED_EDGE('',*,*,#335,.F.);
#425=ORIENTED_EDGE('',*,*,#336,.F.);
#426=ORIENTED_EDGE('',*,*,#337,.T.);
#427=ORIENTED_EDGE('',*,*,#338,.T.);
#428=ORIENTED_EDGE('',*,*,#339,.T.);
#429=ORIENTED_EDGE('',*,*,#334,.T.);
#430=ORIENTED_EDGE('',*,*,#333,.T.);
#431=ORIENTED_EDGE('',*,*,#340,.T.);
#432=ORIENTED_EDGE('',*,*,#341,.T.);
#433=ORIENTED_EDGE('',*,*,#342,.T.);
#434=ORIENTED_EDGE('',*,*,#343,.T.);
#435=ORIENTED_EDGE('',*,*,#344,.F.);
#436=ORIENTED_EDGE('',*,*,#345,.F.);
#437=ORIENTED_EDGE('',*,*,#346,.T.);
#438=ORIENTED_EDGE('',*,*,#347,.T.);
#439=ORIENTED_EDGE('',*,*,#346,.F.);
#440=ORIENTED_EDGE('',*,*,#347,.F.);
#441=ORIENTED_EDGE('',*,*,#348,.F.);
#442=ORIENTED_EDGE('',*,*,#349,.F.);
#443=ORIENTED_EDGE('',*,*,#350,.F.);
#444=ORIENTED_EDGE('',*,*,#351,.T.);
#445=ORIENTED_EDGE('',*,*,#352,.T.);
#446=ORIENTED_EDGE('',*,*,#351,.F.);
#447=ORIENTED_EDGE('',*,*,#352,.F.);
#448=ORIENTED_EDGE('',*,*,#353,.F.);
#449=ORIENTED_EDGE('',*,*,#327,.F.);
#450=ORIENTED_EDGE('',*,*,#328,.F.);
#451=ORIENTED_EDGE('',*,*,#354,.T.);
#452=ORIENTED_EDGE('',*,*,#348,.T.);
#453=ORIENTED_EDGE('',*,*,#354,.F.);
#454=ORIENTED_EDGE('',*,*,#353,.T.);
#455=ORIENTED_EDGE('',*,*,#355,.T.);
#456=ORIENTED_EDGE('',*,*,#338,.F.);
#457=ORIENTED_EDGE('',*,*,#339,.F.);
#458=ORIENTED_EDGE('',*,*,#355,.F.);
#459=ORIENTED_EDGE('',*,*,#343,.F.);
#460=ORIENTED_EDGE('',*,*,#356,.F.);
#461=ORIENTED_EDGE('',*,*,#357,.F.);
#462=ORIENTED_EDGE('',*,*,#335,.T.);
#463=ORIENTED_EDGE('',*,*,#340,.F.);
#464=ORIENTED_EDGE('',*,*,#337,.F.);
#465=ORIENTED_EDGE('',*,*,#358,.F.);
#466=ORIENTED_EDGE('',*,*,#359,.T.);
#467=ORIENTED_EDGE('',*,*,#332,.F.);
#468=ORIENTED_EDGE('',*,*,#360,.F.);
#469=ORIENTED_EDGE('',*,*,#361,.F.);
#470=ORIENTED_EDGE('',*,*,#324,.T.);
#471=ORIENTED_EDGE('',*,*,#329,.F.);
#472=ORIENTED_EDGE('',*,*,#326,.F.);
#473=ORIENTED_EDGE('',*,*,#362,.F.);
#474=ORIENTED_EDGE('',*,*,#363,.T.);
#475=ORIENTED_EDGE('',*,*,#364,.T.);
#476=ORIENTED_EDGE('',*,*,#365,.T.);
#477=ORIENTED_EDGE('',*,*,#366,.T.);
#478=ORIENTED_EDGE('',*,*,#367,.T.);
#479=ORIENTED_EDGE('',*,*,#365,.F.);
#480=ORIENTED_EDGE('',*,*,#367,.F.);
#481=ORIENTED_EDGE('',*,*,#368,.T.);
#482=ORIENTED_EDGE('',*,*,#369,.F.);
#483=ORIENTED_EDGE('',*,*,#368,.F.);
#484=ORIENTED_EDGE('',*,*,#366,.F.);
#485=ORIENTED_EDGE('',*,*,#364,.F.);
#486=ORIENTED_EDGE('',*,*,#370,.T.);
#487=ORIENTED_EDGE('',*,*,#371,.T.);
#488=ORIENTED_EDGE('',*,*,#372,.T.);
#489=ORIENTED_EDGE('',*,*,#373,.T.);
#490=ORIENTED_EDGE('',*,*,#374,.T.);
#491=ORIENTED_EDGE('',*,*,#372,.F.);
#492=ORIENTED_EDGE('',*,*,#374,.F.);
#493=ORIENTED_EDGE('',*,*,#375,.T.);
#494=ORIENTED_EDGE('',*,*,#376,.F.);
#495=ORIENTED_EDGE('',*,*,#375,.F.);
#496=ORIENTED_EDGE('',*,*,#373,.F.);
#497=ORIENTED_EDGE('',*,*,#371,.F.);
#498=ORIENTED_EDGE('',*,*,#377,.T.);
#499=ORIENTED_EDGE('',*,*,#378,.F.);
#500=ORIENTED_EDGE('',*,*,#379,.T.);
#501=ORIENTED_EDGE('',*,*,#380,.T.);
#502=ORIENTED_EDGE('',*,*,#379,.F.);
#503=ORIENTED_EDGE('',*,*,#380,.F.);
#504=ORIENTED_EDGE('',*,*,#381,.F.);
#505=ORIENTED_EDGE('',*,*,#382,.F.);
#506=ORIENTED_EDGE('',*,*,#383,.T.);
#507=ORIENTED_EDGE('',*,*,#384,.T.);
#508=ORIENTED_EDGE('',*,*,#383,.F.);
#509=ORIENTED_EDGE('',*,*,#384,.F.);
#510=ORIENTED_EDGE('',*,*,#385,.F.);
#511=ORIENTED_EDGE('',*,*,#385,.T.);
#512=ORIENTED_EDGE('',*,*,#386,.T.);
#513=ORIENTED_EDGE('',*,*,#377,.F.);
#514=ORIENTED_EDGE('',*,*,#386,.F.);
#515=ORIENTED_EDGE('',*,*,#381,.T.);
#516=ORIENTED_EDGE('',*,*,#387,.T.);
#517=ORIENTED_EDGE('',*,*,#370,.F.);
#518=ORIENTED_EDGE('',*,*,#387,.F.);
#519=ORIENTED_EDGE('',*,*,#330,.F.);
#520=ORIENTED_EDGE('',*,*,#363,.F.);
#521=ORIENTED_EDGE('',*,*,#388,.F.);
#522=ORIENTED_EDGE('',*,*,#389,.T.);
#523=ORIENTED_EDGE('',*,*,#390,.T.);
#524=ORIENTED_EDGE('',*,*,#389,.F.);
#525=ORIENTED_EDGE('',*,*,#391,.F.);
#526=ORIENTED_EDGE('',*,*,#356,.T.);
#527=ORIENTED_EDGE('',*,*,#342,.F.);
#528=ORIENTED_EDGE('',*,*,#341,.F.);
#529=ORIENTED_EDGE('',*,*,#359,.F.);
#530=ORIENTED_EDGE('',*,*,#392,.F.);
#531=ORIENTED_EDGE('',*,*,#360,.T.);
#532=ORIENTED_EDGE('',*,*,#331,.F.);
#533=ORIENTED_EDGE('',*,*,#345,.T.);
#534=ORIENTED_EDGE('',*,*,#344,.T.);
#535=ORIENTED_EDGE('',*,*,#350,.T.);
#536=ORIENTED_EDGE('',*,*,#349,.T.);
#537=ORIENTED_EDGE('',*,*,#357,.T.);
#538=ORIENTED_EDGE('',*,*,#391,.T.);
#539=ORIENTED_EDGE('',*,*,#388,.T.);
#540=ORIENTED_EDGE('',*,*,#362,.T.);
#541=ORIENTED_EDGE('',*,*,#325,.T.);
#542=ORIENTED_EDGE('',*,*,#361,.T.);
#543=ORIENTED_EDGE('',*,*,#392,.T.);
#544=ORIENTED_EDGE('',*,*,#358,.T.);
#545=ORIENTED_EDGE('',*,*,#336,.T.);
#546=ORIENTED_EDGE('',*,*,#318,.T.);
#547=ORIENTED_EDGE('',*,*,#315,.T.);
#548=ORIENTED_EDGE('',*,*,#312,.T.);
#549=ORIENTED_EDGE('',*,*,#321,.T.);
#550=ORIENTED_EDGE('',*,*,#378,.T.);
#551=ORIENTED_EDGE('',*,*,#382,.T.);
#552=ORIENTED_EDGE('',*,*,#390,.F.);
#553=ORIENTED_EDGE('',*,*,#317,.T.);
#554=ORIENTED_EDGE('',*,*,#320,.T.);
#555=ORIENTED_EDGE('',*,*,#310,.T.);
#556=ORIENTED_EDGE('',*,*,#314,.T.);
#557=ORIENTED_EDGE('',*,*,#369,.T.);
#558=ORIENTED_EDGE('',*,*,#376,.T.);
#559=PLANE('',#610);
#560=PLANE('',#611);
#561=PLANE('',#612);
#562=PLANE('',#613);
#563=PLANE('',#622);
#564=PLANE('',#626);
#565=PLANE('',#630);
#566=PLANE('',#631);
#567=PLANE('',#632);
#568=PLANE('',#633);
#569=PLANE('',#641);
#570=PLANE('',#650);
#571=PLANE('',#655);
#572=PLANE('',#660);
#573=PLANE('',#669);
#574=PLANE('',#670);
#575=ADVANCED_FACE('',(#92),#559,.F.);
#576=ADVANCED_FACE('',(#93),#560,.F.);
#577=ADVANCED_FACE('',(#94),#561,.F.);
#578=ADVANCED_FACE('',(#95),#562,.F.);
#579=ADVANCED_FACE('',(#96,#17),#77,.F.);
#580=ADVANCED_FACE('',(#97),#78,.T.);
#581=ADVANCED_FACE('',(#98,#18),#79,.F.);
#582=ADVANCED_FACE('',(#99),#80,.T.);
#583=ADVANCED_FACE('',(#100),#81,.F.);
#584=ADVANCED_FACE('',(#101,#19),#563,.T.);
#585=ADVANCED_FACE('',(#102),#82,.F.);
#586=ADVANCED_FACE('',(#103,#20),#564,.F.);
#587=ADVANCED_FACE('',(#104),#83,.F.);
#588=ADVANCED_FACE('',(#105),#84,.F.);
#589=ADVANCED_FACE('',(#106),#565,.T.);
#590=ADVANCED_FACE('',(#107),#566,.T.);
#591=ADVANCED_FACE('',(#108),#567,.T.);
#592=ADVANCED_FACE('',(#109),#568,.T.);
#593=ADVANCED_FACE('',(#110),#15,.T.);
#594=ADVANCED_FACE('',(#111),#85,.T.);
#595=ADVANCED_FACE('',(#112,#21),#569,.T.);
#596=ADVANCED_FACE('',(#113),#16,.T.);
#597=ADVANCED_FACE('',(#114),#86,.T.);
#598=ADVANCED_FACE('',(#115,#22),#570,.T.);
#599=ADVANCED_FACE('',(#116),#87,.F.);
#600=ADVANCED_FACE('',(#117,#23),#571,.T.);
#601=ADVANCED_FACE('',(#118),#88,.F.);
#602=ADVANCED_FACE('',(#119,#24),#572,.T.);
#603=ADVANCED_FACE('',(#120),#89,.F.);
#604=ADVANCED_FACE('',(#121),#90,.F.);
#605=ADVANCED_FACE('',(#122,#25,#26),#91,.T.);
#606=ADVANCED_FACE('',(#123,#27,#28,#29),#573,.T.);
#607=ADVANCED_FACE('',(#124,#30,#31,#32),#574,.F.);
#608=CLOSED_SHELL('',(#575,#576,#577,#578,#579,#580,#581,#582,#583,#584,
#585,#586,#587,#588,#589,#590,#591,#592,#593,#594,#595,#596,#597,#598,#599,
#600,#601,#602,#603,#604,#605,#606,#607));
#609=AXIS2_PLACEMENT_3D('',#834,#671,#672);
#610=AXIS2_PLACEMENT_3D('',#835,#673,#674);
#611=AXIS2_PLACEMENT_3D('',#844,#679,#680);
#612=AXIS2_PLACEMENT_3D('',#850,#684,#685);
#613=AXIS2_PLACEMENT_3D('',#856,#689,#690);
#614=AXIS2_PLACEMENT_3D('',#859,#693,#694);
#615=AXIS2_PLACEMENT_3D('',#886,#696,#697);
#616=AXIS2_PLACEMENT_3D('',#926,#699,#700);
#617=AXIS2_PLACEMENT_3D('',#952,#703,#704);
#618=AXIS2_PLACEMENT_3D('',#979,#706,#707);
#619=AXIS2_PLACEMENT_3D('',#1019,#709,#710);
#620=AXIS2_PLACEMENT_3D('',#1045,#713,#714);
#621=AXIS2_PLACEMENT_3D('',#1087,#716,#717);
#622=AXIS2_PLACEMENT_3D('',#1088,#718,#719);
#623=AXIS2_PLACEMENT_3D('',#1090,#720,#721);
#624=AXIS2_PLACEMENT_3D('',#1091,#722,#723);
#625=AXIS2_PLACEMENT_3D('',#1133,#725,#726);
#626=AXIS2_PLACEMENT_3D('',#1134,#727,#728);
#627=AXIS2_PLACEMENT_3D('',#1136,#729,#730);
#628=AXIS2_PLACEMENT_3D('',#1137,#731,#732);
#629=AXIS2_PLACEMENT_3D('',#1139,#734,#735);
#630=AXIS2_PLACEMENT_3D('',#1141,#737,#738);
#631=AXIS2_PLACEMENT_3D('',#1145,#741,#742);
#632=AXIS2_PLACEMENT_3D('',#1149,#745,#746);
#633=AXIS2_PLACEMENT_3D('',#1153,#749,#750);
#634=AXIS2_PLACEMENT_3D('',#1157,#753,#754);
#635=AXIS2_PLACEMENT_3D('',#1159,#755,#756);
#636=AXIS2_PLACEMENT_3D('',#1161,#757,#758);
#637=AXIS2_PLACEMENT_3D('',#1163,#759,#760);
#638=AXIS2_PLACEMENT_3D('',#1164,#761,#762);
#639=AXIS2_PLACEMENT_3D('',#1165,#763,#764);
#640=AXIS2_PLACEMENT_3D('',#1168,#766,#767);
#641=AXIS2_PLACEMENT_3D('',#1169,#768,#769);
#642=AXIS2_PLACEMENT_3D('',#1171,#770,#771);
#643=AXIS2_PLACEMENT_3D('',#1172,#772,#773);
#644=AXIS2_PLACEMENT_3D('',#1174,#774,#775);
#645=AXIS2_PLACEMENT_3D('',#1176,#776,#777);
#646=AXIS2_PLACEMENT_3D('',#1178,#778,#779);
#647=AXIS2_PLACEMENT_3D('',#1179,#780,#781);
#648=AXIS2_PLACEMENT_3D('',#1180,#782,#783);
#649=AXIS2_PLACEMENT_3D('',#1183,#785,#786);
#650=AXIS2_PLACEMENT_3D('',#1184,#787,#788);
#651=AXIS2_PLACEMENT_3D('',#1186,#789,#790);
#652=AXIS2_PLACEMENT_3D('',#1187,#791,#792);
#653=AXIS2_PLACEMENT_3D('',#1189,#793,#794);
#654=AXIS2_PLACEMENT_3D('',#1192,#796,#797);
#655=AXIS2_PLACEMENT_3D('',#1193,#798,#799);
#656=AXIS2_PLACEMENT_3D('',#1195,#800,#801);
#657=AXIS2_PLACEMENT_3D('',#1196,#802,#803);
#658=AXIS2_PLACEMENT_3D('',#1198,#804,#805);
#659=AXIS2_PLACEMENT_3D('',#1201,#807,#808);
#660=AXIS2_PLACEMENT_3D('',#1202,#809,#810);
#661=AXIS2_PLACEMENT_3D('',#1204,#811,#812);
#662=AXIS2_PLACEMENT_3D('',#1205,#813,#814);
#663=AXIS2_PLACEMENT_3D('',#1207,#816,#817);
#664=AXIS2_PLACEMENT_3D('',#1209,#819,#820);
#665=AXIS2_PLACEMENT_3D('',#1211,#821,#822);
#666=AXIS2_PLACEMENT_3D('',#1214,#824,#825);
#667=AXIS2_PLACEMENT_3D('',#1215,#826,#827);
#668=AXIS2_PLACEMENT_3D('',#1216,#828,#829);
#669=AXIS2_PLACEMENT_3D('',#1217,#830,#831);
#670=AXIS2_PLACEMENT_3D('',#1218,#832,#833);
#671=DIRECTION('axis',(0.,0.,1.));
#672=DIRECTION('refdir',(1.,0.,0.));
#673=DIRECTION('center_axis',(-1.,0.,0.));
#674=DIRECTION('ref_axis',(0.,0.,-1.));
#675=DIRECTION('',(0.,-2.22044604925031E-16,1.));
#676=DIRECTION('',(0.,-1.,0.));
#677=DIRECTION('',(0.,2.22044604925031E-16,-1.));
#678=DIRECTION('',(0.,-1.,0.));
#679=DIRECTION('center_axis',(0.,0.,1.));
#680=DIRECTION('ref_axis',(-1.,0.,0.));
#681=DIRECTION('',(1.,0.,0.));
#682=DIRECTION('',(-1.,0.,0.));
#683=DIRECTION('',(0.,-1.,0.));
#684=DIRECTION('center_axis',(1.,0.,0.));
#685=DIRECTION('ref_axis',(0.,0.,1.));
#686=DIRECTION('',(0.,2.22044604925031E-16,-1.));
#687=DIRECTION('',(0.,-2.22044604925031E-16,1.));
#688=DIRECTION('',(0.,-1.,0.));
#689=DIRECTION('center_axis',(0.,0.,-1.));
#690=DIRECTION('ref_axis',(1.,0.,0.));
#691=DIRECTION('',(-1.,0.,0.));
#692=DIRECTION('',(1.,0.,0.));
#693=DIRECTION('center_axis',(0.,1.,2.22044604925031E-16));
#694=DIRECTION('ref_axis',(-1.,0.,0.));
#695=DIRECTION('',(0.,1.,2.22044604925031E-16));
#696=DIRECTION('center_axis',(0.,1.,2.22044604925031E-16));
#697=DIRECTION('ref_axis',(-1.,0.,0.));
#698=DIRECTION('',(0.,1.,2.22044604925031E-16));
#699=DIRECTION('center_axis',(-0.707106781186546,1.57009245868378E-16,-0.707106781186549));
#700=DIRECTION('ref_axis',(0.500000000000001,0.707106781186547,-0.499999999999999));
#701=DIRECTION('',(0.707106781186547,-1.57009245868378E-16,0.707106781186548));
#702=DIRECTION('',(-0.707106781186546,1.57009245868378E-16,-0.707106781186549));
#703=DIRECTION('center_axis',(0.,1.,2.22044604925031E-16));
#704=DIRECTION('ref_axis',(-1.,0.,0.));
#705=DIRECTION('',(0.,1.,2.22044604925031E-16));
#706=DIRECTION('center_axis',(0.,1.,2.22044604925031E-16));
#707=DIRECTION('ref_axis',(-1.,0.,0.));
#708=DIRECTION('',(0.,1.,2.22044604925031E-16));
#709=DIRECTION('center_axis',(0.707106781186547,-1.57009245868378E-16,0.707106781186548));
#710=DIRECTION('ref_axis',(-0.5,0.707106781186547,0.5));
#711=DIRECTION('',(-0.707106781186548,1.57009245868377E-16,-0.707106781186548));
#712=DIRECTION('',(0.707106781186547,-1.57009245868378E-16,0.707106781186548));
#713=DIRECTION('center_axis',(-0.707106781186548,0.,-0.707106781186548));
#714=DIRECTION('ref_axis',(0.,1.,0.));
#715=DIRECTION('',(-0.707106781186548,0.,-0.707106781186548));
#716=DIRECTION('center_axis',(-0.707106781186547,0.,-0.707106781186548));
#717=DIRECTION('ref_axis',(0.,1.,0.));
#718=DIRECTION('center_axis',(0.707106781186547,0.,0.707106781186548));
#719=DIRECTION('ref_axis',(0.,1.,0.));
#720=DIRECTION('center_axis',(0.707106781186547,0.,0.707106781186548));
#721=DIRECTION('ref_axis',(0.,1.,0.));
#722=DIRECTION('center_axis',(0.707106781186548,0.,0.707106781186548));
#723=DIRECTION('ref_axis',(0.,1.,0.));
#724=DIRECTION('',(0.707106781186548,0.,0.707106781186548));
#725=DIRECTION('center_axis',(0.707106781186547,0.,0.707106781186548));
#726=DIRECTION('ref_axis',(0.,1.,0.));
#727=DIRECTION('center_axis',(0.707106781186547,0.,0.707106781186548));
#728=DIRECTION('ref_axis',(0.,1.,0.));
#729=DIRECTION('center_axis',(-0.707106781186547,0.,-0.707106781186548));
#730=DIRECTION('ref_axis',(0.,1.,0.));
#731=DIRECTION('center_axis',(0.707106781186547,0.,0.707106781186548));
#732=DIRECTION('ref_axis',(0.,1.,0.));
#733=DIRECTION('',(0.707106781186547,0.,0.707106781186548));
#734=DIRECTION('center_axis',(0.707106781186547,0.,0.707106781186548));
#735=DIRECTION('ref_axis',(0.,1.,0.));
#736=DIRECTION('',(0.707106781186547,0.,0.707106781186548));
#737=DIRECTION('center_axis',(-0.707106781186548,-1.57009245868377E-16,
0.707106781186547));
#738=DIRECTION('ref_axis',(0.707106781186547,-1.57009245868378E-16,0.707106781186548));
#739=DIRECTION('',(0.,1.,2.22044604925031E-16));
#740=DIRECTION('',(-0.707106781186547,1.57009245868378E-16,-0.707106781186548));
#741=DIRECTION('center_axis',(0.707106781186548,1.57009245868378E-16,-0.707106781186548));
#742=DIRECTION('ref_axis',(-0.707106781186548,1.57009245868377E-16,-0.707106781186548));
#743=DIRECTION('',(0.707106781186548,-1.57009245868377E-16,0.707106781186548));
#744=DIRECTION('',(0.,1.,2.22044604925031E-16));
#745=DIRECTION('center_axis',(0.707106781186549,1.57009245868377E-16,-0.707106781186547));
#746=DIRECTION('ref_axis',(-0.707106781186546,1.57009245868378E-16,-0.707106781186549));
#747=DIRECTION('',(0.,1.,2.22044604925031E-16));
#748=DIRECTION('',(0.707106781186546,-1.57009245868378E-16,0.707106781186549));
#749=DIRECTION('center_axis',(-0.707106781186548,-1.57009245868377E-16,
0.707106781186547));
#750=DIRECTION('ref_axis',(0.707106781186547,-1.57009245868378E-16,0.707106781186548));
#751=DIRECTION('',(-0.707106781186547,1.57009245868378E-16,-0.707106781186548));
#752=DIRECTION('',(0.,1.,2.22044604925031E-16));
#753=DIRECTION('center_axis',(0.,-1.,0.));
#754=DIRECTION('ref_axis',(0.,0.,-1.));
#755=DIRECTION('center_axis',(0.,1.,0.));
#756=DIRECTION('ref_axis',(1.,0.,0.));
#757=DIRECTION('center_axis',(-1.,0.,0.));
#758=DIRECTION('ref_axis',(0.,0.,1.));
#759=DIRECTION('center_axis',(0.,-1.,0.));
#760=DIRECTION('ref_axis',(1.,0.,0.));
#761=DIRECTION('center_axis',(0.,-1.,0.));
#762=DIRECTION('ref_axis',(1.,0.,0.));
#763=DIRECTION('center_axis',(0.,-1.,0.));
#764=DIRECTION('ref_axis',(1.,0.,0.));
#765=DIRECTION('',(0.,1.,0.));
#766=DIRECTION('center_axis',(0.,1.,2.22044604925031E-16));
#767=DIRECTION('ref_axis',(1.,0.,0.));
#768=DIRECTION('center_axis',(0.,-1.,0.));
#769=DIRECTION('ref_axis',(1.,0.,0.));
#770=DIRECTION('center_axis',(0.,1.,0.));
#771=DIRECTION('ref_axis',(1.,0.,0.));
#772=DIRECTION('center_axis',(0.,-1.,0.));
#773=DIRECTION('ref_axis',(0.,0.,-1.));
#774=DIRECTION('center_axis',(0.,1.,0.));
#775=DIRECTION('ref_axis',(1.,0.,0.));
#776=DIRECTION('center_axis',(-1.,0.,0.));
#777=DIRECTION('ref_axis',(0.,0.,1.));
#778=DIRECTION('center_axis',(0.,-1.,0.));
#779=DIRECTION('ref_axis',(1.,0.,0.));
#780=DIRECTION('center_axis',(0.,-1.,0.));
#781=DIRECTION('ref_axis',(1.,0.,0.));
#782=DIRECTION('center_axis',(0.,-1.,0.));
#783=DIRECTION('ref_axis',(1.,0.,0.));
#784=DIRECTION('',(0.,1.,0.));
#785=DIRECTION('center_axis',(0.,1.,2.22044604925031E-16));
#786=DIRECTION('ref_axis',(1.,0.,0.));
#787=DIRECTION('center_axis',(0.,-1.,0.));
#788=DIRECTION('ref_axis',(1.,0.,0.));
#789=DIRECTION('center_axis',(0.,1.,0.));
#790=DIRECTION('ref_axis',(1.,0.,0.));
#791=DIRECTION('center_axis',(0.,-1.,0.));
#792=DIRECTION('ref_axis',(-1.,0.,0.));
#793=DIRECTION('center_axis',(0.,-1.,-2.22044604925031E-16));
#794=DIRECTION('ref_axis',(-1.,0.,0.));
#795=DIRECTION('',(0.,-1.,0.));
#796=DIRECTION('center_axis',(0.,-1.,-2.22044604925031E-16));
#797=DIRECTION('ref_axis',(-1.,0.,0.));
#798=DIRECTION('center_axis',(0.,1.,2.22044604925031E-16));
#799=DIRECTION('ref_axis',(-1.,0.,0.));
#800=DIRECTION('center_axis',(0.,1.,2.22044604925031E-16));
#801=DIRECTION('ref_axis',(1.,0.,0.));
#802=DIRECTION('center_axis',(0.,-1.,0.));
#803=DIRECTION('ref_axis',(-1.,0.,0.));
#804=DIRECTION('center_axis',(0.,-1.,-2.22044604925031E-16));
#805=DIRECTION('ref_axis',(-1.,0.,0.));
#806=DIRECTION('',(0.,-1.,0.));
#807=DIRECTION('center_axis',(0.,-1.,-2.22044604925031E-16));
#808=DIRECTION('ref_axis',(-1.,0.,0.));
#809=DIRECTION('center_axis',(0.,1.,2.22044604925031E-16));
#810=DIRECTION('ref_axis',(-1.,0.,0.));
#811=DIRECTION('center_axis',(0.,1.,2.22044604925031E-16));
#812=DIRECTION('ref_axis',(1.,0.,0.));
#813=DIRECTION('center_axis',(0.,1.,0.));
#814=DIRECTION('ref_axis',(1.,0.,0.));
#815=DIRECTION('',(0.,-1.,0.));
#816=DIRECTION('center_axis',(0.,1.,0.));
#817=DIRECTION('ref_axis',(1.,0.,0.));
#818=DIRECTION('',(0.,-1.,0.));
#819=DIRECTION('center_axis',(0.,1.,0.));
#820=DIRECTION('ref_axis',(1.,0.,0.));
#821=DIRECTION('center_axis',(0.,1.,2.22044604925031E-16));
#822=DIRECTION('ref_axis',(1.,0.,0.));
#823=DIRECTION('',(0.,-1.,0.));
#824=DIRECTION('center_axis',(0.,1.,2.22044604925031E-16));
#825=DIRECTION('ref_axis',(1.,0.,0.));
#826=DIRECTION('center_axis',(0.,1.,2.22044604925031E-16));
#827=DIRECTION('ref_axis',(1.,0.,0.));
#828=DIRECTION('center_axis',(0.,1.,2.22044604925031E-16));
#829=DIRECTION('ref_axis',(1.,0.,0.));
#830=DIRECTION('center_axis',(0.,1.,2.22044604925031E-16));
#831=DIRECTION('ref_axis',(1.,0.,0.));
#832=DIRECTION('center_axis',(0.,1.,2.22044604925031E-16));
#833=DIRECTION('ref_axis',(1.,0.,0.));
#834=CARTESIAN_POINT('',(0.,0.,0.));
#835=CARTESIAN_POINT('Origin',(-6.95429707437522,10.800050800102,16.5230921135548));
#836=CARTESIAN_POINT('',(-6.95429707437522,8.300050800102,6.52309211355482));
#837=CARTESIAN_POINT('',(-6.95429707437522,8.300050800102,16.5230921135548));
#838=CARTESIAN_POINT('',(-6.95429707437522,8.300050800102,8.26154605677741));
#839=CARTESIAN_POINT('',(-6.95429707437522,10.800050800102,6.52309211355482));
#840=CARTESIAN_POINT('',(-6.95429707437522,10.800050800102,6.52309211355482));
#841=CARTESIAN_POINT('',(-6.95429707437522,10.800050800102,16.5230921135548));
#842=CARTESIAN_POINT('',(-6.95429707437522,10.800050800102,8.26154605677741));
#843=CARTESIAN_POINT('',(-6.95429707437522,10.800050800102,16.5230921135548));
#844=CARTESIAN_POINT('Origin',(3.04570292562478,10.800050800102,16.5230921135548));
#845=CARTESIAN_POINT('',(3.04570292562478,8.300050800102,16.5230921135548));
#846=CARTESIAN_POINT('',(1.52285146281239,8.300050800102,16.5230921135548));
#847=CARTESIAN_POINT('',(3.04570292562478,10.800050800102,16.5230921135548));
#848=CARTESIAN_POINT('',(1.52285146281239,10.800050800102,16.5230921135548));
#849=CARTESIAN_POINT('',(3.04570292562478,10.800050800102,16.5230921135548));
#850=CARTESIAN_POINT('Origin',(3.04570292562478,10.800050800102,6.52309211355482));
#851=CARTESIAN_POINT('',(3.04570292562478,8.300050800102,6.52309211355482));
#852=CARTESIAN_POINT('',(3.04570292562478,8.300050800102,3.26154605677741));
#853=CARTESIAN_POINT('',(3.04570292562478,10.800050800102,6.52309211355482));
#854=CARTESIAN_POINT('',(3.04570292562478,10.800050800102,3.26154605677741));
#855=CARTESIAN_POINT('',(3.04570292562478,10.800050800102,6.52309211355482));
#856=CARTESIAN_POINT('Origin',(-6.95429707437522,10.800050800102,6.52309211355482));
#857=CARTESIAN_POINT('',(-3.47714853718761,8.300050800102,6.52309211355482));
#858=CARTESIAN_POINT('',(-3.47714853718761,10.800050800102,6.52309211355482));
#859=CARTESIAN_POINT('Origin',(0.,10.800050800102,2.39809301307892E-15));
#860=CARTESIAN_POINT('',(13.6118055378411,20.800050800102,13.611805537841));
#861=CARTESIAN_POINT('',(10.052680417227,16.300050800102,16.4166414479059));
#862=CARTESIAN_POINT('Ctrl Pts',(13.611805537841,20.800050800102,13.611805537841));
#863=CARTESIAN_POINT('Ctrl Pts',(13.2106875278652,20.800050800102,14.0129235478169));
#864=CARTESIAN_POINT('Ctrl Pts',(12.7643216790037,20.6862539878751,14.4202653455732));
#865=CARTESIAN_POINT('Ctrl Pts',(11.9102740663594,20.2263524699001,15.1333186131095));
#866=CARTESIAN_POINT('Ctrl Pts',(11.5034273486446,19.8803617184958,15.4401030903396));
#867=CARTESIAN_POINT('Ctrl Pts',(10.8456532049202,19.0836586555445,15.9090372234252));
#868=CARTESIAN_POINT('Ctrl Pts',(10.5503821701724,18.5790629181398,16.103024326133));
#869=CARTESIAN_POINT('Ctrl Pts',(10.1532938483277,17.4710176551314,16.356300979871));
#870=CARTESIAN_POINT('Ctrl Pts',(10.052680417227,16.8673775083374,16.4166414479059));
#871=CARTESIAN_POINT('Ctrl Pts',(10.052680417227,16.300050800102,16.4166414479059));
#872=CARTESIAN_POINT('',(16.4166414479059,16.300050800102,10.052680417227));
#873=CARTESIAN_POINT('Ctrl Pts',(16.4166414479059,16.300050800102,10.052680417227));
#874=CARTESIAN_POINT('Ctrl Pts',(16.4166414479059,16.8673775083374,10.052680417227));
#875=CARTESIAN_POINT('Ctrl Pts',(16.356300979871,17.4710176551314,10.1532938483277));
#876=CARTESIAN_POINT('Ctrl Pts',(16.103024326133,18.5790629181398,10.5503821701723));
#877=CARTESIAN_POINT('Ctrl Pts',(15.9090372234252,19.0836586555445,10.8456532049202));
#878=CARTESIAN_POINT('Ctrl Pts',(15.4401030903396,19.8803617184958,11.5034273486446));
#879=CARTESIAN_POINT('Ctrl Pts',(15.1333186131095,20.2263524699001,11.9102740663594));
#880=CARTESIAN_POINT('Ctrl Pts',(14.4202653455732,20.6862539878751,12.7643216790037));
#881=CARTESIAN_POINT('Ctrl Pts',(14.0129235478169,20.800050800102,13.2106875278652));
#882=CARTESIAN_POINT('Ctrl Pts',(13.611805537841,20.800050800102,13.611805537841));
#883=CARTESIAN_POINT('',(16.4166414479059,10.800050800102,10.052680417227));
#884=CARTESIAN_POINT('',(16.4166414479059,10.800050800102,10.052680417227));
#885=CARTESIAN_POINT('',(10.052680417227,10.800050800102,16.4166414479059));
#886=CARTESIAN_POINT('Origin',(0.,10.800050800102,2.39809301307892E-15));
#887=CARTESIAN_POINT('',(10.052680417227,10.800050800102,16.4166414479059));
#888=CARTESIAN_POINT('',(14.4999037254042,15.800050800102,12.6615675156755));
#889=CARTESIAN_POINT('',(13.6117348269793,14.500050800102,13.6118762483355));
#890=CARTESIAN_POINT('Ctrl Pts',(14.4999037254042,15.800050800102,12.6615675156755));
#891=CARTESIAN_POINT('Ctrl Pts',(14.4999037254042,15.9633350722069,12.6615675156755));
#892=CARTESIAN_POINT('Ctrl Pts',(14.4784457806162,16.1374690336535,12.6862731454168));
#893=CARTESIAN_POINT('Ctrl Pts',(14.3904877308799,16.4577474541077,12.7859603237711));
#894=CARTESIAN_POINT('Ctrl Pts',(14.3239048231227,16.6038961358462,12.8608552090889));
#895=CARTESIAN_POINT('Ctrl Pts',(14.1685146656152,16.8346830633915,13.031847077034));
#896=CARTESIAN_POINT('Ctrl Pts',(14.0693236011154,16.9347230189558,13.1393415027898));
#897=CARTESIAN_POINT('Ctrl Pts',(13.8487068959982,17.0674082611345,13.3716670250319));
#898=CARTESIAN_POINT('Ctrl Pts',(13.7271947473578,17.100050800102,13.4964175275343));
#899=CARTESIAN_POINT('Ctrl Pts',(13.4962748751034,17.100050800102,13.7273350006337));
#900=CARTESIAN_POINT('Ctrl Pts',(13.3715230779579,17.0674082452101,13.8488458837128));
#901=CARTESIAN_POINT('Ctrl Pts',(13.139195191431,16.9347229762825,14.0694602404254));
#902=CARTESIAN_POINT('Ctrl Pts',(13.0316996948337,16.8346830107286,14.1686502231052));
#903=CARTESIAN_POINT('Ctrl Pts',(12.8607061537063,16.6038960900486,14.3240386527186));
#904=CARTESIAN_POINT('Ctrl Pts',(12.7858105427158,16.4577474286596,14.3906208102435));
#905=CARTESIAN_POINT('Ctrl Pts',(12.6861223947703,16.1374690337878,14.4785778698067));
#906=CARTESIAN_POINT('Ctrl Pts',(12.6614165219331,15.9633350767227,14.5000355743743));
#907=CARTESIAN_POINT('Ctrl Pts',(12.6614165219331,15.6367665234813,14.5000355743743));
#908=CARTESIAN_POINT('Ctrl Pts',(12.6861223947703,15.4626325664162,14.4785778698067));
#909=CARTESIAN_POINT('Ctrl Pts',(12.7858105427158,15.1423541715444,14.3906208102435));
#910=CARTESIAN_POINT('Ctrl Pts',(12.8607061537063,14.9962055101554,14.3240386527186));
#911=CARTESIAN_POINT('Ctrl Pts',(13.0316996948337,14.7654185894754,14.1686502231052));
#912=CARTESIAN_POINT('Ctrl Pts',(13.139195191431,14.6653786239215,14.0694602404254));
#913=CARTESIAN_POINT('Ctrl Pts',(13.3715230779579,14.5326933549939,13.8488458837128));
#914=CARTESIAN_POINT('Ctrl Pts',(13.4962748751034,14.500050800102,13.7273350006337));
#915=CARTESIAN_POINT('Ctrl Pts',(13.6117348269793,14.500050800102,13.6118762483355));
#916=CARTESIAN_POINT('Ctrl Pts',(13.6117348269793,14.500050800102,13.6118762483355));
#917=CARTESIAN_POINT('Ctrl Pts',(13.7271947473578,14.500050800102,13.4964175275343));
#918=CARTESIAN_POINT('Ctrl Pts',(13.8487068959982,14.5326933390694,13.3716670250319));
#919=CARTESIAN_POINT('Ctrl Pts',(14.0693236011154,14.6653785812482,13.1393415027898));
#920=CARTESIAN_POINT('Ctrl Pts',(14.1685146656152,14.7654185368125,13.031847077034));
#921=CARTESIAN_POINT('Ctrl Pts',(14.3239048231227,14.9962054643578,12.8608552090889));
#922=CARTESIAN_POINT('Ctrl Pts',(14.3904877308799,15.1423541460963,12.7859603237711));
#923=CARTESIAN_POINT('Ctrl Pts',(14.4784457806162,15.4626325665505,12.6862731454168));
#924=CARTESIAN_POINT('Ctrl Pts',(14.4999037254042,15.6367665279971,12.6615675156755));
#925=CARTESIAN_POINT('Ctrl Pts',(14.4999037254042,15.800050800102,12.6615675156755));
#926=CARTESIAN_POINT('Origin',(16.4851268456156,16.300050800102,16.4851268456156));
#927=CARTESIAN_POINT('',(14.3866349679592,16.300050800102,20.7505959986381));
#928=CARTESIAN_POINT('',(11.13616905491,16.300050800102,17.5001300855889));
#929=CARTESIAN_POINT('',(17.8544462249603,20.800050800102,17.8544462249603));
#930=CARTESIAN_POINT('Ctrl Pts',(14.3866349679592,16.300050800102,20.7505959986381));
#931=CARTESIAN_POINT('Ctrl Pts',(14.3866349679592,16.8663931987689,20.7505959986381));
#932=CARTESIAN_POINT('Ctrl Pts',(14.481953417361,17.4696375526832,20.685497519383));
#933=CARTESIAN_POINT('Ctrl Pts',(14.8611907039334,18.5779739672775,20.4147444881399));
#934=CARTESIAN_POINT('Ctrl Pts',(15.1442442770855,19.0831726342862,20.2083156334455));
#935=CARTESIAN_POINT('Ctrl Pts',(15.7799594630366,19.8808760157369,19.7159078785981));
#936=CARTESIAN_POINT('Ctrl Pts',(16.175238191725,20.2270033223601,19.3967193429439));
#937=CARTESIAN_POINT('Ctrl Pts',(17.0125930963607,20.6866238382716,18.6666206890812));
#938=CARTESIAN_POINT('Ctrl Pts',(17.4539957115385,20.800050800102,18.2548967383822));
#939=CARTESIAN_POINT('Ctrl Pts',(17.8544462249603,20.800050800102,17.8544462249603));
#940=CARTESIAN_POINT('',(20.7505959986381,16.300050800102,14.3866349679592));
#941=CARTESIAN_POINT('Ctrl Pts',(17.8544462249603,20.800050800102,17.8544462249603));
#942=CARTESIAN_POINT('Ctrl Pts',(18.2548967383821,20.800050800102,17.4539957115385));
#943=CARTESIAN_POINT('Ctrl Pts',(18.6666206890812,20.6866238382716,17.0125930963607));
#944=CARTESIAN_POINT('Ctrl Pts',(19.3967193429439,20.2270033223601,16.175238191725));
#945=CARTESIAN_POINT('Ctrl Pts',(19.7159078785981,19.8808760157369,15.7799594630366));
#946=CARTESIAN_POINT('Ctrl Pts',(20.2083156334455,19.0831726342862,15.1442442770855));
#947=CARTESIAN_POINT('Ctrl Pts',(20.4147444881399,18.5779739672775,14.8611907039334));
#948=CARTESIAN_POINT('Ctrl Pts',(20.685497519383,17.4696375526831,14.481953417361));
#949=CARTESIAN_POINT('Ctrl Pts',(20.7505959986381,16.8663931987689,14.3866349679592));
#950=CARTESIAN_POINT('Ctrl Pts',(20.7505959986381,16.300050800102,14.3866349679592));
#951=CARTESIAN_POINT('',(19.667107360955,16.300050800102,13.3031463302761));
#952=CARTESIAN_POINT('Origin',(0.,10.800050800102,2.39809301307892E-15));
#953=CARTESIAN_POINT('',(-13.611805537841,20.800050800102,-13.611805537841));
#954=CARTESIAN_POINT('',(-10.052680417227,16.300050800102,-16.4166414479059));
#955=CARTESIAN_POINT('Ctrl Pts',(-13.611805537841,20.800050800102,-13.611805537841));
#956=CARTESIAN_POINT('Ctrl Pts',(-13.2106875278652,20.800050800102,-14.0129235478169));
#957=CARTESIAN_POINT('Ctrl Pts',(-12.7643216790037,20.6862539878751,-14.4202653455732));
#958=CARTESIAN_POINT('Ctrl Pts',(-11.9102740663594,20.2263524699001,-15.1333186131095));
#959=CARTESIAN_POINT('Ctrl Pts',(-11.5034273486446,19.8803617184958,-15.4401030903395));
#960=CARTESIAN_POINT('Ctrl Pts',(-10.8456532049202,19.0836586555445,-15.9090372234252));
#961=CARTESIAN_POINT('Ctrl Pts',(-10.5503821701724,18.5790629181398,-16.103024326133));
#962=CARTESIAN_POINT('Ctrl Pts',(-10.1532938483277,17.4710176551314,-16.356300979871));
#963=CARTESIAN_POINT('Ctrl Pts',(-10.052680417227,16.8673775083375,-16.4166414479059));
#964=CARTESIAN_POINT('Ctrl Pts',(-10.052680417227,16.300050800102,-16.4166414479059));
#965=CARTESIAN_POINT('',(-16.4166414479059,16.300050800102,-10.052680417227));
#966=CARTESIAN_POINT('Ctrl Pts',(-16.4166414479059,16.300050800102,-10.052680417227));
#967=CARTESIAN_POINT('Ctrl Pts',(-16.4166414479059,16.8673775083374,-10.052680417227));
#968=CARTESIAN_POINT('Ctrl Pts',(-16.356300979871,17.4710176551314,-10.1532938483277));
#969=CARTESIAN_POINT('Ctrl Pts',(-16.103024326133,18.5790629181398,-10.5503821701723));
#970=CARTESIAN_POINT('Ctrl Pts',(-15.9090372234252,19.0836586555445,-10.8456532049202));
#971=CARTESIAN_POINT('Ctrl Pts',(-15.4401030903396,19.8803617184958,-11.5034273486446));
#972=CARTESIAN_POINT('Ctrl Pts',(-15.1333186131095,20.2263524699001,-11.9102740663594));
#973=CARTESIAN_POINT('Ctrl Pts',(-14.4202653455732,20.6862539878751,-12.7643216790037));
#974=CARTESIAN_POINT('Ctrl Pts',(-14.0129235478169,20.800050800102,-13.2106875278651));
#975=CARTESIAN_POINT('Ctrl Pts',(-13.6118055378411,20.800050800102,-13.611805537841));
#976=CARTESIAN_POINT('',(-16.4166414479059,10.800050800102,-10.052680417227));
#977=CARTESIAN_POINT('',(-16.4166414479059,10.800050800102,-10.052680417227));
#978=CARTESIAN_POINT('',(-10.052680417227,10.800050800102,-16.4166414479059));
#979=CARTESIAN_POINT('Origin',(0.,10.800050800102,2.39809301307892E-15));
#980=CARTESIAN_POINT('',(-10.052680417227,10.800050800102,-16.4166414479059));
#981=CARTESIAN_POINT('',(-12.6615675156755,15.800050800102,-14.4999037254042));
#982=CARTESIAN_POINT('',(-13.6118762483355,14.500050800102,-13.6117348269793));
#983=CARTESIAN_POINT('Ctrl Pts',(-12.6615675156755,15.800050800102,-14.4999037254042));
#984=CARTESIAN_POINT('Ctrl Pts',(-12.6615675156755,15.6367665279971,-14.4999037254042));
#985=CARTESIAN_POINT('Ctrl Pts',(-12.6862731454168,15.4626325665504,-14.4784457806162));
#986=CARTESIAN_POINT('Ctrl Pts',(-12.7859603237711,15.1423541460963,-14.3904877308799));
#987=CARTESIAN_POINT('Ctrl Pts',(-12.8608552090888,14.9962054643578,-14.3239048231227));
#988=CARTESIAN_POINT('Ctrl Pts',(-13.031847077034,14.7654185368125,-14.1685146656152));
#989=CARTESIAN_POINT('Ctrl Pts',(-13.1393415027898,14.6653785812482,-14.0693236011154));
#990=CARTESIAN_POINT('Ctrl Pts',(-13.3716670250319,14.5326933390694,-13.8487068959982));
#991=CARTESIAN_POINT('Ctrl Pts',(-13.4964175275343,14.500050800102,-13.7271947473578));
#992=CARTESIAN_POINT('Ctrl Pts',(-13.6118762483355,14.500050800102,-13.6117348269793));
#993=CARTESIAN_POINT('Ctrl Pts',(-13.6118762483355,14.500050800102,-13.6117348269793));
#994=CARTESIAN_POINT('Ctrl Pts',(-13.7273350006337,14.500050800102,-13.4962748751034));
#995=CARTESIAN_POINT('Ctrl Pts',(-13.8488458837128,14.5326933549939,-13.3715230779579));
#996=CARTESIAN_POINT('Ctrl Pts',(-14.0694602404254,14.6653786239215,-13.139195191431));
#997=CARTESIAN_POINT('Ctrl Pts',(-14.1686502231052,14.7654185894754,-13.0316996948337));
#998=CARTESIAN_POINT('Ctrl Pts',(-14.3240386527186,14.9962055101554,-12.8607061537063));
#999=CARTESIAN_POINT('Ctrl Pts',(-14.3906208102435,15.1423541715444,-12.7858105427158));
#1000=CARTESIAN_POINT('Ctrl Pts',(-14.4785778698067,15.4626325664162,-12.6861223947703));
#1001=CARTESIAN_POINT('Ctrl Pts',(-14.5000355743743,15.6367665234813,-12.6614165219331));
#1002=CARTESIAN_POINT('Ctrl Pts',(-14.5000355743743,15.9633350767227,-12.6614165219331));
#1003=CARTESIAN_POINT('Ctrl Pts',(-14.4785778698067,16.1374690337878,-12.6861223947703));
#1004=CARTESIAN_POINT('Ctrl Pts',(-14.3906208102435,16.4577474286596,-12.7858105427158));
#1005=CARTESIAN_POINT('Ctrl Pts',(-14.3240386527186,16.6038960900486,-12.8607061537063));
#1006=CARTESIAN_POINT('Ctrl Pts',(-14.1686502231052,16.8346830107286,-13.0316996948336));
#1007=CARTESIAN_POINT('Ctrl Pts',(-14.0694602404254,16.9347229762825,-13.139195191431));
#1008=CARTESIAN_POINT('Ctrl Pts',(-13.8488458837128,17.0674082452101,-13.3715230779579));
#1009=CARTESIAN_POINT('Ctrl Pts',(-13.7273350006337,17.100050800102,-13.4962748751034));
#1010=CARTESIAN_POINT('Ctrl Pts',(-13.4964175275343,17.100050800102,-13.7271947473578));
#1011=CARTESIAN_POINT('Ctrl Pts',(-13.3716670250319,17.0674082611346,-13.8487068959982));
#1012=CARTESIAN_POINT('Ctrl Pts',(-13.1393415027898,16.9347230189558,-14.0693236011154));
#1013=CARTESIAN_POINT('Ctrl Pts',(-13.031847077034,16.8346830633915,-14.1685146656152));
#1014=CARTESIAN_POINT('Ctrl Pts',(-12.8608552090888,16.6038961358462,-14.3239048231227));
#1015=CARTESIAN_POINT('Ctrl Pts',(-12.7859603237711,16.4577474541077,-14.3904877308799));
#1016=CARTESIAN_POINT('Ctrl Pts',(-12.6862731454168,16.1374690336535,-14.4784457806162));
#1017=CARTESIAN_POINT('Ctrl Pts',(-12.6615675156755,15.9633350722069,-14.4999037254042));
#1018=CARTESIAN_POINT('Ctrl Pts',(-12.6615675156755,15.800050800102,-14.4999037254042));
#1019=CARTESIAN_POINT('Origin',(-16.4851268456156,16.300050800102,-16.4851268456156));
#1020=CARTESIAN_POINT('',(-14.3866349679592,16.300050800102,-20.7505959986381));
#1021=CARTESIAN_POINT('',(-11.13616905491,16.300050800102,-17.5001300855889));
#1022=CARTESIAN_POINT('',(-17.8544462249603,20.800050800102,-17.8544462249603));
#1023=CARTESIAN_POINT('Ctrl Pts',(-14.3866349679592,16.300050800102,-20.7505959986381));
#1024=CARTESIAN_POINT('Ctrl Pts',(-14.3866349679592,16.8663931987689,-20.7505959986381));
#1025=CARTESIAN_POINT('Ctrl Pts',(-14.481953417361,17.4696375526832,-20.685497519383));
#1026=CARTESIAN_POINT('Ctrl Pts',(-14.8611907039334,18.5779739672775,-20.4147444881399));
#1027=CARTESIAN_POINT('Ctrl Pts',(-15.1442442770855,19.0831726342862,-20.2083156334455));
#1028=CARTESIAN_POINT('Ctrl Pts',(-15.7799594630366,19.8808760157369,-19.7159078785981));
#1029=CARTESIAN_POINT('Ctrl Pts',(-16.175238191725,20.2270033223601,-19.3967193429439));
#1030=CARTESIAN_POINT('Ctrl Pts',(-17.0125930963607,20.6866238382716,-18.6666206890811));
#1031=CARTESIAN_POINT('Ctrl Pts',(-17.4539957115385,20.800050800102,-18.2548967383821));
#1032=CARTESIAN_POINT('Ctrl Pts',(-17.8544462249603,20.800050800102,-17.8544462249603));
#1033=CARTESIAN_POINT('',(-20.7505959986381,16.300050800102,-14.3866349679592));
#1034=CARTESIAN_POINT('Ctrl Pts',(-17.8544462249603,20.800050800102,-17.8544462249603));
#1035=CARTESIAN_POINT('Ctrl Pts',(-18.2548967383822,20.800050800102,-17.4539957115385));
#1036=CARTESIAN_POINT('Ctrl Pts',(-18.6666206890812,20.6866238382716,-17.0125930963607));
#1037=CARTESIAN_POINT('Ctrl Pts',(-19.3967193429439,20.2270033223601,-16.175238191725));
#1038=CARTESIAN_POINT('Ctrl Pts',(-19.7159078785981,19.8808760157369,-15.7799594630366));
#1039=CARTESIAN_POINT('Ctrl Pts',(-20.2083156334455,19.0831726342862,-15.1442442770855));
#1040=CARTESIAN_POINT('Ctrl Pts',(-20.4147444881399,18.5779739672775,-14.8611907039334));
#1041=CARTESIAN_POINT('Ctrl Pts',(-20.685497519383,17.4696375526832,-14.4819534173609));
#1042=CARTESIAN_POINT('Ctrl Pts',(-20.7505959986381,16.8663931987689,-14.3866349679592));
#1043=CARTESIAN_POINT('Ctrl Pts',(-20.7505959986381,16.300050800102,-14.3866349679592));
#1044=CARTESIAN_POINT('',(-19.667107360955,16.300050800102,-13.3031463302761));
#1045=CARTESIAN_POINT('Origin',(17.8544462249603,15.800050800102,17.8544462249603));
#1046=CARTESIAN_POINT('',(17.8544462249603,17.550050800102,17.8544462249603));
#1047=CARTESIAN_POINT('',(17.8544462249603,14.050050800102,17.8544462249603));
#1048=CARTESIAN_POINT('Ctrl Pts',(17.8544462249603,17.550050800102,17.8544462249603));
#1049=CARTESIAN_POINT('Ctrl Pts',(18.0098749568625,17.550050800102,17.6990174930582));
#1050=CARTESIAN_POINT('Ctrl Pts',(18.1733919673671,17.5061074161361,17.5310247339212));
#1051=CARTESIAN_POINT('Ctrl Pts',(18.4701663710349,17.327491535192,17.2180706830841));
#1052=CARTESIAN_POINT('Ctrl Pts',(18.6035433582147,17.1928229344942,17.0732205999675));
#1053=CARTESIAN_POINT('Ctrl Pts',(18.812441919398,16.8821522784626,16.8427645059596));
#1054=CARTESIAN_POINT('Ctrl Pts',(18.9019243628984,16.6854160844643,16.7417969198882));
#1055=CARTESIAN_POINT('Ctrl Pts',(19.0201212094722,16.2542731365819,16.6073928694763));
#1056=CARTESIAN_POINT('Ctrl Pts',(19.0489499976333,16.0198603925294,16.5740762634804));
#1057=CARTESIAN_POINT('Ctrl Pts',(19.0489499976333,15.5802412076746,16.5740762634804));
#1058=CARTESIAN_POINT('Ctrl Pts',(19.0201212094722,15.3458284636221,16.6073928694763));
#1059=CARTESIAN_POINT('Ctrl Pts',(18.9019243628984,14.9146855157397,16.7417969198882));
#1060=CARTESIAN_POINT('Ctrl Pts',(18.812441919398,14.7179493217414,16.8427645059596));
#1061=CARTESIAN_POINT('Ctrl Pts',(18.6035433582147,14.4072786657098,17.0732205999675));
#1062=CARTESIAN_POINT('Ctrl Pts',(18.4701663710349,14.272610065012,17.2180706830841));
#1063=CARTESIAN_POINT('Ctrl Pts',(18.1733919673671,14.0939941840679,17.5310247339212));
#1064=CARTESIAN_POINT('Ctrl Pts',(18.0098749568625,14.050050800102,17.6990174930582));
#1065=CARTESIAN_POINT('Ctrl Pts',(17.8544462249603,14.050050800102,17.8544462249603));
#1066=CARTESIAN_POINT('Ctrl Pts',(17.8544462249603,14.050050800102,17.8544462249603));
#1067=CARTESIAN_POINT('Ctrl Pts',(17.6990174930582,14.050050800102,18.0098749568625));
#1068=CARTESIAN_POINT('Ctrl Pts',(17.5310247339212,14.0939941840679,18.1733919673671));
#1069=CARTESIAN_POINT('Ctrl Pts',(17.2180706830841,14.272610065012,18.4701663710349));
#1070=CARTESIAN_POINT('Ctrl Pts',(17.0732205999675,14.4072786657098,18.6035433582147));
#1071=CARTESIAN_POINT('Ctrl Pts',(16.8427645059596,14.7179493217414,18.812441919398));
#1072=CARTESIAN_POINT('Ctrl Pts',(16.7417969198882,14.9146855157397,18.9019243628984));
#1073=CARTESIAN_POINT('Ctrl Pts',(16.6073928694763,15.3458284636221,19.0201212094722));
#1074=CARTESIAN_POINT('Ctrl Pts',(16.5740762634804,15.5802412076746,19.0489499976333));
#1075=CARTESIAN_POINT('Ctrl Pts',(16.5740762634804,15.800050800102,19.0489499976333));
#1076=CARTESIAN_POINT('Ctrl Pts',(16.5740762634804,16.0198603925294,19.0489499976333));
#1077=CARTESIAN_POINT('Ctrl Pts',(16.6073928694763,16.2542731365819,19.0201212094722));
#1078=CARTESIAN_POINT('Ctrl Pts',(16.7417969198882,16.6854160844643,18.9019243628984));
#1079=CARTESIAN_POINT('Ctrl Pts',(16.8427645059596,16.8821522784626,18.812441919398));
#1080=CARTESIAN_POINT('Ctrl Pts',(17.0732205999675,17.1928229344942,18.6035433582147));
#1081=CARTESIAN_POINT('Ctrl Pts',(17.2180706830841,17.327491535192,18.4701663710349));
#1082=CARTESIAN_POINT('Ctrl Pts',(17.5310247339212,17.5061074161361,18.1733919673671));
#1083=CARTESIAN_POINT('Ctrl Pts',(17.6990174930582,17.550050800102,18.0098749568625));
#1084=CARTESIAN_POINT('Ctrl Pts',(17.8544462249603,17.550050800102,17.8544462249603));
#1085=CARTESIAN_POINT('',(15.3795724908074,14.050050800102,15.3795724908074));
#1086=CARTESIAN_POINT('',(17.8544462249603,14.050050800102,17.8544462249603));
#1087=CARTESIAN_POINT('Origin',(15.3795724908074,15.800050800102,15.3795724908074));
#1088=CARTESIAN_POINT('Origin',(15.3795724908074,15.800050800102,15.3795724908074));
#1089=CARTESIAN_POINT('',(15.3795017801293,14.500050800102,15.3796432014855));
#1090=CARTESIAN_POINT('Origin',(15.3795017801293,15.800050800102,15.3796432014855));
#1091=CARTESIAN_POINT('Origin',(-17.8544462249603,15.800050800102,-17.8544462249603));
#1092=CARTESIAN_POINT('',(-17.8544462249603,17.550050800102,-17.8544462249603));
#1093=CARTESIAN_POINT('',(-17.8544462249603,14.050050800102,-17.8544462249603));
#1094=CARTESIAN_POINT('Ctrl Pts',(-17.8544462249603,17.550050800102,-17.8544462249603));
#1095=CARTESIAN_POINT('Ctrl Pts',(-18.0098749568625,17.550050800102,-17.6990174930582));
#1096=CARTESIAN_POINT('Ctrl Pts',(-18.1733919673671,17.5061074161361,-17.5310247339212));
#1097=CARTESIAN_POINT('Ctrl Pts',(-18.4701663710349,17.327491535192,-17.2180706830841));
#1098=CARTESIAN_POINT('Ctrl Pts',(-18.6035433582147,17.1928229344942,-17.0732205999675));
#1099=CARTESIAN_POINT('Ctrl Pts',(-18.812441919398,16.8821522784626,-16.8427645059596));
#1100=CARTESIAN_POINT('Ctrl Pts',(-18.9019243628984,16.6854160844643,-16.7417969198882));
#1101=CARTESIAN_POINT('Ctrl Pts',(-19.0201212094722,16.2542731365819,-16.6073928694763));
#1102=CARTESIAN_POINT('Ctrl Pts',(-19.0489499976333,16.0198603925294,-16.5740762634804));
#1103=CARTESIAN_POINT('Ctrl Pts',(-19.0489499976333,15.5802412076746,-16.5740762634804));
#1104=CARTESIAN_POINT('Ctrl Pts',(-19.0201212094722,15.3458284636221,-16.6073928694763));
#1105=CARTESIAN_POINT('Ctrl Pts',(-18.9019243628984,14.9146855157397,-16.7417969198882));
#1106=CARTESIAN_POINT('Ctrl Pts',(-18.812441919398,14.7179493217414,-16.8427645059596));
#1107=CARTESIAN_POINT('Ctrl Pts',(-18.6035433582147,14.4072786657098,-17.0732205999675));
#1108=CARTESIAN_POINT('Ctrl Pts',(-18.4701663710349,14.272610065012,-17.2180706830841));
#1109=CARTESIAN_POINT('Ctrl Pts',(-18.1733919673671,14.0939941840679,-17.5310247339212));
#1110=CARTESIAN_POINT('Ctrl Pts',(-18.0098749568625,14.050050800102,-17.6990174930582));
#1111=CARTESIAN_POINT('Ctrl Pts',(-17.8544462249603,14.050050800102,-17.8544462249603));
#1112=CARTESIAN_POINT('Ctrl Pts',(-17.8544462249603,14.050050800102,-17.8544462249603));
#1113=CARTESIAN_POINT('Ctrl Pts',(-17.6990174930582,14.050050800102,-18.0098749568625));
#1114=CARTESIAN_POINT('Ctrl Pts',(-17.5310247339212,14.0939941840679,-18.1733919673671));
#1115=CARTESIAN_POINT('Ctrl Pts',(-17.2180706830841,14.272610065012,-18.4701663710348));
#1116=CARTESIAN_POINT('Ctrl Pts',(-17.0732205999675,14.4072786657098,-18.6035433582147));
#1117=CARTESIAN_POINT('Ctrl Pts',(-16.8427645059596,14.7179493217414,-18.812441919398));
#1118=CARTESIAN_POINT('Ctrl Pts',(-16.7417969198882,14.9146855157397,-18.9019243628984));
#1119=CARTESIAN_POINT('Ctrl Pts',(-16.6073928694763,15.3458284636221,-19.0201212094722));
#1120=CARTESIAN_POINT('Ctrl Pts',(-16.5740762634804,15.5802412076746,-19.0489499976333));
#1121=CARTESIAN_POINT('Ctrl Pts',(-16.5740762634804,15.800050800102,-19.0489499976333));
#1122=CARTESIAN_POINT('Ctrl Pts',(-16.5740762634804,16.0198603925294,-19.0489499976333));
#1123=CARTESIAN_POINT('Ctrl Pts',(-16.6073928694763,16.2542731365819,-19.0201212094722));
#1124=CARTESIAN_POINT('Ctrl Pts',(-16.7417969198882,16.6854160844643,-18.9019243628984));
#1125=CARTESIAN_POINT('Ctrl Pts',(-16.8427645059596,16.8821522784626,-18.812441919398));
#1126=CARTESIAN_POINT('Ctrl Pts',(-17.0732205999675,17.1928229344942,-18.6035433582147));
#1127=CARTESIAN_POINT('Ctrl Pts',(-17.2180706830841,17.327491535192,-18.4701663710348));
#1128=CARTESIAN_POINT('Ctrl Pts',(-17.5310247339212,17.5061074161361,-18.1733919673671));
#1129=CARTESIAN_POINT('Ctrl Pts',(-17.6990174930582,17.550050800102,-18.0098749568624));
#1130=CARTESIAN_POINT('Ctrl Pts',(-17.8544462249603,17.550050800102,-17.8544462249603));
#1131=CARTESIAN_POINT('',(-15.3795724908074,14.050050800102,-15.3795724908074));
#1132=CARTESIAN_POINT('',(-17.8544462249603,14.050050800102,-17.8544462249603));
#1133=CARTESIAN_POINT('Origin',(-15.3795724908074,15.800050800102,-15.3795724908074));
#1134=CARTESIAN_POINT('Origin',(-15.3795724908074,15.800050800102,-15.3795724908074));
#1135=CARTESIAN_POINT('',(-15.3796432014855,14.500050800102,-15.3795017801293));
#1136=CARTESIAN_POINT('Origin',(-15.3796432014855,15.800050800102,-15.3795017801293));
#1137=CARTESIAN_POINT('Origin',(-7.07106781187255E-5,15.800050800102,7.07106781187255E-5));
#1138=CARTESIAN_POINT('',(-7.07106781186129E-5,14.500050800102,7.07106781186129E-5));
#1139=CARTESIAN_POINT('Origin',(-7.07106781187255E-5,15.800050800102,7.07106781187255E-5));
#1140=CARTESIAN_POINT('',(-7.07106781186129E-5,14.500050800102,7.07106781186129E-5));
#1141=CARTESIAN_POINT('Origin',(-20.7505959986381,10.800050800102,-14.3866349679592));
#1142=CARTESIAN_POINT('',(-20.7505959986381,10.800050800102,-14.3866349679592));
#1143=CARTESIAN_POINT('',(-20.7505959986381,10.800050800102,-14.3866349679592));
#1144=CARTESIAN_POINT('',(-11.9662882569888,10.800050800102,-5.60232722630984));
#1145=CARTESIAN_POINT('Origin',(-10.052680417227,10.800050800102,-16.4166414479059));
#1146=CARTESIAN_POINT('',(-14.3866349679592,10.800050800102,-20.7505959986381));
#1147=CARTESIAN_POINT('',(-3.43534995094375,10.800050800102,-9.79931098162267));
#1148=CARTESIAN_POINT('',(-14.3866349679592,10.800050800102,-20.7505959986381));
#1149=CARTESIAN_POINT('Origin',(20.7505959986381,10.800050800102,14.3866349679592));
#1150=CARTESIAN_POINT('',(20.7505959986381,10.800050800102,14.3866349679592));
#1151=CARTESIAN_POINT('',(20.7505959986381,10.800050800102,14.3866349679592));
#1152=CARTESIAN_POINT('',(11.9662882569888,10.800050800102,5.60232722630984));
#1153=CARTESIAN_POINT('Origin',(10.052680417227,10.800050800102,16.4166414479059));
#1154=CARTESIAN_POINT('',(14.3866349679592,10.800050800102,20.7505959986381));
#1155=CARTESIAN_POINT('',(3.43534995094375,10.800050800102,9.79931098162267));
#1156=CARTESIAN_POINT('',(14.3866349679592,10.800050800102,20.7505959986381));
#1157=CARTESIAN_POINT('Origin',(-16.6932969824011,2.100050800102,13.4155835690931));
#1158=CARTESIAN_POINT('',(-16.6932969824011,1.600050800102,16.1655835690931));
#1159=CARTESIAN_POINT('Origin',(-16.6932969824011,1.600050800102,13.4155835690931));
#1160=CARTESIAN_POINT('',(-16.6932969824011,2.100050800102,16.6655835690931));
#1161=CARTESIAN_POINT('Origin',(-16.6932969824011,2.100050800102,16.1655835690931));
#1162=CARTESIAN_POINT('',(-19.9432969824011,2.100050800102,13.4155835690931));
#1163=CARTESIAN_POINT('Origin',(-16.6932969824011,2.100050800102,13.4155835690931));
#1164=CARTESIAN_POINT('Origin',(-16.6932969824011,2.100050800102,13.4155835690931));
#1165=CARTESIAN_POINT('Origin',(-16.6932969824011,8.300050800102,13.4155835690931));
#1166=CARTESIAN_POINT('',(-19.9432969824011,8.300050800102,13.4155835690931));
#1167=CARTESIAN_POINT('',(-19.9432969824011,8.300050800102,13.4155835690931));
#1168=CARTESIAN_POINT('Origin',(-16.6932969824011,8.300050800102,13.4155835690931));
#1169=CARTESIAN_POINT('Origin',(-16.6932969824011,1.600050800102,13.4155835690931));
#1170=CARTESIAN_POINT('',(-17.8432969824011,1.600050800102,13.4155835690931));
#1171=CARTESIAN_POINT('Origin',(-16.6932969824011,1.600050800102,13.4155835690931));
#1172=CARTESIAN_POINT('Origin',(18.4857733757389,2.100050800102,-10.2064636750019));
#1173=CARTESIAN_POINT('',(18.4857733757389,1.600050800102,-7.4564636750019));
#1174=CARTESIAN_POINT('Origin',(18.4857733757389,1.600050800102,-10.2064636750019));
#1175=CARTESIAN_POINT('',(18.4857733757389,2.100050800102,-6.9564636750019));
#1176=CARTESIAN_POINT('Origin',(18.4857733757389,2.100050800102,-7.4564636750019));
#1177=CARTESIAN_POINT('',(15.2357733757389,2.100050800102,-10.2064636750019));
#1178=CARTESIAN_POINT('Origin',(18.4857733757389,2.100050800102,-10.2064636750019));
#1179=CARTESIAN_POINT('Origin',(18.4857733757389,2.100050800102,-10.2064636750019));
#1180=CARTESIAN_POINT('Origin',(18.4857733757389,8.300050800102,-10.2064636750019));
#1181=CARTESIAN_POINT('',(15.2357733757389,8.300050800102,-10.2064636750019));
#1182=CARTESIAN_POINT('',(15.2357733757389,8.300050800102,-10.2064636750019));
#1183=CARTESIAN_POINT('Origin',(18.4857733757389,8.300050800102,-10.2064636750019));
#1184=CARTESIAN_POINT('Origin',(18.4857733757389,1.600050800102,-10.2064636750019));
#1185=CARTESIAN_POINT('',(17.3357733757389,1.600050800102,-10.2064636750019));
#1186=CARTESIAN_POINT('Origin',(18.4857733757389,1.600050800102,-10.2064636750019));
#1187=CARTESIAN_POINT('Origin',(-16.6932969824011,10.800050800102,13.4155835690931));
#1188=CARTESIAN_POINT('',(-14.4432969824011,10.800050800102,13.4155835690931));
#1189=CARTESIAN_POINT('Origin',(-16.6932969824011,10.800050800102,13.4155835690931));
#1190=CARTESIAN_POINT('',(-14.4432969824011,7.800050800102,13.4155835690931));
#1191=CARTESIAN_POINT('',(-14.4432969824011,10.800050800102,13.4155835690931));
#1192=CARTESIAN_POINT('Origin',(-16.6932969824011,7.800050800102,13.4155835690931));
#1193=CARTESIAN_POINT('Origin',(-16.6932969824011,7.800050800102,13.4155835690931));
#1194=CARTESIAN_POINT('',(-17.8432969824011,7.800050800102,13.4155835690931));
#1195=CARTESIAN_POINT('Origin',(-16.6932969824011,7.800050800102,13.4155835690931));
#1196=CARTESIAN_POINT('Origin',(18.4857733757389,10.800050800102,-10.2064636750019));
#1197=CARTESIAN_POINT('',(20.7357733757389,10.800050800102,-10.2064636750019));
#1198=CARTESIAN_POINT('Origin',(18.4857733757389,10.800050800102,-10.2064636750019));
#1199=CARTESIAN_POINT('',(20.7357733757389,7.800050800102,-10.2064636750019));
#1200=CARTESIAN_POINT('',(20.7357733757389,10.800050800102,-10.2064636750019));
#1201=CARTESIAN_POINT('Origin',(18.4857733757389,7.800050800102,-10.2064636750019));
#1202=CARTESIAN_POINT('Origin',(18.4857733757389,7.800050800102,-10.2064636750019));
#1203=CARTESIAN_POINT('',(17.3357733757389,7.800050800102,-10.2064636750019));
#1204=CARTESIAN_POINT('Origin',(18.4857733757389,7.800050800102,-10.2064636750019));
#1205=CARTESIAN_POINT('Origin',(18.4857733757389,8.300050800102,-10.2064636750019));
#1206=CARTESIAN_POINT('',(17.3357733757389,8.300050800102,-10.2064636750019));
#1207=CARTESIAN_POINT('Origin',(-16.6932969824011,8.300050800102,13.4155835690931));
#1208=CARTESIAN_POINT('',(-17.8432969824011,8.300050800102,13.4155835690931));
#1209=CARTESIAN_POINT('Origin',(0.,8.300050800102,1.84298150076634E-15));
#1210=CARTESIAN_POINT('',(-25.25,10.800050800102,4.93521466861341E-15));
#1211=CARTESIAN_POINT('Origin',(0.,10.800050800102,1.84298150076634E-15));
#1212=CARTESIAN_POINT('',(-25.25,8.300050800102,4.93521466861341E-15));
#1213=CARTESIAN_POINT('',(-25.25,8.300050800102,4.93521466861341E-15));
#1214=CARTESIAN_POINT('Origin',(0.,8.300050800102,1.84298150076634E-15));
#1215=CARTESIAN_POINT('Origin',(0.,10.800050800102,1.84298150076634E-15));
#1216=CARTESIAN_POINT('Origin',(0.,10.800050800102,1.84298150076634E-15));
#1217=CARTESIAN_POINT('Origin',(0.,10.800050800102,1.84298150076634E-15));
#1218=CARTESIAN_POINT('Origin',(0.,8.300050800102,1.84298150076634E-15));
#1219=UNCERTAINTY_MEASURE_WITH_UNIT(LENGTH_MEASURE(0.01),#1223,
'DISTANCE_ACCURACY_VALUE',
'Maximum model space distance between geometric entities at asserted c
onnectivities');
#1220=UNCERTAINTY_MEASURE_WITH_UNIT(LENGTH_MEASURE(0.01),#1223,
'DISTANCE_ACCURACY_VALUE',
'Maximum model space distance between geometric entities at asserted c
onnectivities');
#1221=(
GEOMETRIC_REPRESENTATION_CONTEXT(3)
GLOBAL_UNCERTAINTY_ASSIGNED_CONTEXT((#1219))
GLOBAL_UNIT_ASSIGNED_CONTEXT((#1223,#1224,#1225))
REPRESENTATION_CONTEXT('','3D')
);
#1222=(
GEOMETRIC_REPRESENTATION_CONTEXT(3)
GLOBAL_UNCERTAINTY_ASSIGNED_CONTEXT((#1220))
GLOBAL_UNIT_ASSIGNED_CONTEXT((#1223,#1224,#1225))
REPRESENTATION_CONTEXT('','3D')
);
#1223=(
LENGTH_UNIT()
NAMED_UNIT(*)
SI_UNIT(.MILLI.,.METRE.)
);
#1224=(
NAMED_UNIT(*)
PLANE_ANGLE_UNIT()
SI_UNIT($,.RADIAN.)
);
#1225=(
NAMED_UNIT(*)
SI_UNIT($,.STERADIAN.)
SOLID_ANGLE_UNIT()
);
#1226=SHAPE_DEFINITION_REPRESENTATION(#1227,#1228);
#1227=PRODUCT_DEFINITION_SHAPE('',$,#1230);
#1228=SHAPE_REPRESENTATION('',(#609),#1221);
#1229=PRODUCT_DEFINITION_CONTEXT('part definition',#1234,'design');
#1230=PRODUCT_DEFINITION('button-speaker-top-big-speaker',
'button-speaker-top-big-speaker v6',#1231,#1229);
#1231=PRODUCT_DEFINITION_FORMATION('',$,#1236);
#1232=PRODUCT_RELATED_PRODUCT_CATEGORY(
'button-speaker-top-big-speaker v6','button-speaker-top-big-speaker v6',
(#1236));
#1233=APPLICATION_PROTOCOL_DEFINITION('international standard',
'automotive_design',2009,#1234);
#1234=APPLICATION_CONTEXT(
'Core Data for Automotive Mechanical Design Process');
#1235=PRODUCT_CONTEXT('part definition',#1234,'mechanical');
#1236=PRODUCT('button-speaker-top-big-speaker',
'button-speaker-top-big-speaker v6',$,(#1235));
#1237=PRESENTATION_STYLE_ASSIGNMENT((#1238));
#1238=SURFACE_STYLE_USAGE(.BOTH.,#1239);
#1239=SURFACE_SIDE_STYLE('',(#1240));
#1240=SURFACE_STYLE_FILL_AREA(#1241);
#1241=FILL_AREA_STYLE('Steel - Satin',(#1242));
#1242=FILL_AREA_STYLE_COLOUR('Steel - Satin',#1243);
#1243=COLOUR_RGB('Steel - Satin',0.627450980392157,0.627450980392157,0.627450980392157);
ENDSEC;
END-ISO-10303-21;
