ISO-10303-21;
HEADER;
/* Generated by software containing ST-Developer
 * from STEP Tools, Inc. (www.steptools.com) 
 */

FILE_DESCRIPTION(
/* description */ (''),
/* implementation_level */ '2;1');

FILE_NAME(
/* name */ 'bowtie-connector.step',
/* time_stamp */ '2026-01-10T06:14:33+09:00',
/* author */ (''),
/* organization */ (''),
/* preprocessor_version */ 'ST-DEVELOPER v20.1',
/* originating_system */ 'Autodesk Translation Framework v14.21.0.0',
/* authorisation */ '');

FILE_SCHEMA (('AUTOMOTIVE_DESIGN { 1 0 10303 214 3 1 1 }'));
ENDSEC;

DATA;
#10=MECHANICAL_DESIGN_GEOMETRIC_PRESENTATION_REPRESENTATION('',(#13),#1973);
#11=SHAPE_REPRESENTATION_RELATIONSHIP('SRR','None',#1979,#12);
#12=ADVANCED_BREP_SHAPE_REPRESENTATION('',(#14),#1972);
#13=STYLED_ITEM('',(#1988),#14);
#14=MANIFOLD_SOLID_BREP('Body1',#1131);
#15=ELLIPSE('',#1196,1.4142135623731,1.);
#16=ELLIPSE('',#1197,1.4142135623731,1.);
#17=ELLIPSE('',#1206,1.4142135623731,1.);
#18=ELLIPSE('',#1207,1.4142135623731,1.);
#19=ELLIPSE('',#1212,1.41421356237309,1.);
#20=PLANE('',#1186);
#21=PLANE('',#1187);
#22=PLANE('',#1189);
#23=PLANE('',#1190);
#24=PLANE('',#1191);
#25=PLANE('',#1192);
#26=PLANE('',#1200);
#27=PLANE('',#1210);
#28=PLANE('',#1221);
#29=PLANE('',#1238);
#30=PLANE('',#1239);
#31=PLANE('',#1240);
#32=PLANE('',#1241);
#33=PLANE('',#1242);
#34=PLANE('',#1243);
#35=PLANE('',#1244);
#36=PLANE('',#1245);
#37=PLANE('',#1246);
#38=PLANE('',#1247);
#39=PLANE('',#1248);
#40=PLANE('',#1249);
#41=PLANE('',#1254);
#42=PLANE('',#1255);
#43=PLANE('',#1256);
#44=PLANE('',#1257);
#45=PLANE('',#1258);
#46=PLANE('',#1259);
#47=B_SPLINE_CURVE_WITH_KNOTS('',3,(#1684,#1685,#1686,#1687,#1688,#1689,
#1690,#1691,#1692,#1693),.UNSPECIFIED.,.F.,.F.,(4,2,2,2,4),(0.0782133643551077,
0.100782266720358,0.123606280896352,0.146430295072346,0.160557697028774),
 .UNSPECIFIED.);
#48=B_SPLINE_CURVE_WITH_KNOTS('',3,(#1733,#1734,#1735,#1736,#1737,#1738,
#1739,#1740,#1741,#1742),.UNSPECIFIED.,.F.,.F.,(4,2,2,2,4),(0.791485401202368,
0.805612803158795,0.828436817334789,0.851260831510783,0.873829733876035),
 .UNSPECIFIED.);
#49=B_SPLINE_CURVE_WITH_KNOTS('',3,(#1763,#1764,#1765,#1766,#1767,#1768,
#1769,#1770,#1771,#1772),.UNSPECIFIED.,.F.,.F.,(4,2,2,2,4),(0.791485401202368,
0.805612803158796,0.82843681733479,0.851260831510784,0.873829733876036),
 .UNSPECIFIED.);
#50=LINE('',#1632,#150);
#51=LINE('',#1633,#151);
#52=LINE('',#1638,#152);
#53=LINE('',#1639,#153);
#54=LINE('',#1662,#154);
#55=LINE('',#1663,#155);
#56=LINE('',#1679,#156);
#57=LINE('',#1680,#157);
#58=LINE('',#1694,#158);
#59=LINE('',#1696,#159);
#60=LINE('',#1706,#160);
#61=LINE('',#1707,#161);
#62=LINE('',#1709,#162);
#63=LINE('',#1710,#163);
#64=LINE('',#1712,#164);
#65=LINE('',#1713,#165);
#66=LINE('',#1715,#166);
#67=LINE('',#1716,#167);
#68=LINE('',#1718,#168);
#69=LINE('',#1719,#169);
#70=LINE('',#1724,#170);
#71=LINE('',#1725,#171);
#72=LINE('',#1730,#172);
#73=LINE('',#1732,#173);
#74=LINE('',#1744,#174);
#75=LINE('',#1746,#175);
#76=LINE('',#1748,#176);
#77=LINE('',#1749,#177);
#78=LINE('',#1754,#178);
#79=LINE('',#1755,#179);
#80=LINE('',#1760,#180);
#81=LINE('',#1762,#181);
#82=LINE('',#1774,#182);
#83=LINE('',#1777,#183);
#84=LINE('',#1779,#184);
#85=LINE('',#1782,#185);
#86=LINE('',#1784,#186);
#87=LINE('',#1792,#187);
#88=LINE('',#1798,#188);
#89=LINE('',#1802,#189);
#90=LINE('',#1805,#190);
#91=LINE('',#1808,#191);
#92=LINE('',#1809,#192);
#93=LINE('',#1810,#193);
#94=LINE('',#1813,#194);
#95=LINE('',#1820,#195);
#96=LINE('',#1826,#196);
#97=LINE('',#1830,#197);
#98=LINE('',#1833,#198);
#99=LINE('',#1836,#199);
#100=LINE('',#1837,#200);
#101=LINE('',#1838,#201);
#102=LINE('',#1841,#202);
#103=LINE('',#1848,#203);
#104=LINE('',#1850,#204);
#105=LINE('',#1851,#205);
#106=LINE('',#1856,#206);
#107=LINE('',#1864,#207);
#108=LINE('',#1866,#208);
#109=LINE('',#1868,#209);
#110=LINE('',#1870,#210);
#111=LINE('',#1872,#211);
#112=LINE('',#1877,#212);
#113=LINE('',#1885,#213);
#114=LINE('',#1893,#214);
#115=LINE('',#1895,#215);
#116=LINE('',#1896,#216);
#117=LINE('',#1899,#217);
#118=LINE('',#1901,#218);
#119=LINE('',#1903,#219);
#120=LINE('',#1905,#220);
#121=LINE('',#1906,#221);
#122=LINE('',#1909,#222);
#123=LINE('',#1910,#223);
#124=LINE('',#1912,#224);
#125=LINE('',#1914,#225);
#126=LINE('',#1916,#226);
#127=LINE('',#1917,#227);
#128=LINE('',#1920,#228);
#129=LINE('',#1923,#229);
#130=LINE('',#1924,#230);
#131=LINE('',#1927,#231);
#132=LINE('',#1928,#232);
#133=LINE('',#1931,#233);
#134=LINE('',#1932,#234);
#135=LINE('',#1934,#235);
#136=LINE('',#1938,#236);
#137=LINE('',#1939,#237);
#138=LINE('',#1941,#238);
#139=LINE('',#1946,#239);
#140=LINE('',#1950,#240);
#141=LINE('',#1953,#241);
#142=LINE('',#1954,#242);
#143=LINE('',#1957,#243);
#144=LINE('',#1958,#244);
#145=LINE('',#1961,#245);
#146=LINE('',#1962,#246);
#147=LINE('',#1965,#247);
#148=LINE('',#1966,#248);
#149=LINE('',#1968,#249);
#150=VECTOR('',#1280,10.);
#151=VECTOR('',#1281,10.);
#152=VECTOR('',#1286,10.);
#153=VECTOR('',#1287,10.);
#154=VECTOR('',#1314,10.);
#155=VECTOR('',#1315,10.);
#156=VECTOR('',#1334,10.);
#157=VECTOR('',#1335,10.);
#158=VECTOR('',#1338,10.);
#159=VECTOR('',#1339,10.);
#160=VECTOR('',#1352,10.);
#161=VECTOR('',#1353,10.);
#162=VECTOR('',#1356,10.);
#163=VECTOR('',#1357,10.);
#164=VECTOR('',#1360,10.);
#165=VECTOR('',#1361,10.);
#166=VECTOR('',#1364,10.);
#167=VECTOR('',#1365,10.);
#168=VECTOR('',#1368,10.);
#169=VECTOR('',#1369,10.);
#170=VECTOR('',#1374,10.);
#171=VECTOR('',#1375,10.);
#172=VECTOR('',#1380,10.);
#173=VECTOR('',#1381,10.);
#174=VECTOR('',#1384,10.);
#175=VECTOR('',#1385,10.);
#176=VECTOR('',#1386,10.);
#177=VECTOR('',#1387,10.);
#178=VECTOR('',#1392,10.);
#179=VECTOR('',#1393,10.);
#180=VECTOR('',#1398,10.);
#181=VECTOR('',#1399,10.);
#182=VECTOR('',#1402,10.);
#183=VECTOR('',#1405,10.);
#184=VECTOR('',#1406,10.);
#185=VECTOR('',#1411,10.);
#186=VECTOR('',#1414,10.);
#187=VECTOR('',#1423,1.);
#188=VECTOR('',#1428,1.);
#189=VECTOR('',#1433,10.);
#190=VECTOR('',#1436,10.);
#191=VECTOR('',#1439,10.);
#192=VECTOR('',#1440,10.);
#193=VECTOR('',#1441,10.);
#194=VECTOR('',#1444,10.);
#195=VECTOR('',#1451,1.);
#196=VECTOR('',#1456,1.);
#197=VECTOR('',#1461,10.);
#198=VECTOR('',#1464,10.);
#199=VECTOR('',#1467,10.);
#200=VECTOR('',#1468,10.);
#201=VECTOR('',#1469,10.);
#202=VECTOR('',#1472,10.);
#203=VECTOR('',#1483,10.);
#204=VECTOR('',#1486,10.);
#205=VECTOR('',#1487,10.);
#206=VECTOR('',#1492,10.);
#207=VECTOR('',#1501,10.);
#208=VECTOR('',#1502,10.);
#209=VECTOR('',#1503,10.);
#210=VECTOR('',#1504,10.);
#211=VECTOR('',#1505,10.);
#212=VECTOR('',#1512,10.);
#213=VECTOR('',#1523,10.);
#214=VECTOR('',#1534,10.);
#215=VECTOR('',#1537,10.);
#216=VECTOR('',#1538,10.);
#217=VECTOR('',#1541,10.);
#218=VECTOR('',#1542,10.);
#219=VECTOR('',#1543,10.);
#220=VECTOR('',#1544,10.);
#221=VECTOR('',#1545,10.);
#222=VECTOR('',#1548,10.);
#223=VECTOR('',#1549,10.);
#224=VECTOR('',#1550,10.);
#225=VECTOR('',#1551,10.);
#226=VECTOR('',#1552,10.);
#227=VECTOR('',#1553,10.);
#228=VECTOR('',#1558,10.);
#229=VECTOR('',#1561,10.);
#230=VECTOR('',#1562,10.);
#231=VECTOR('',#1565,10.);
#232=VECTOR('',#1566,10.);
#233=VECTOR('',#1569,10.);
#234=VECTOR('',#1570,10.);
#235=VECTOR('',#1573,10.);
#236=VECTOR('',#1578,10.);
#237=VECTOR('',#1579,10.);
#238=VECTOR('',#1582,10.);
#239=VECTOR('',#1589,10.);
#240=VECTOR('',#1594,10.);
#241=VECTOR('',#1597,10.);
#242=VECTOR('',#1598,10.);
#243=VECTOR('',#1601,10.);
#244=VECTOR('',#1602,10.);
#245=VECTOR('',#1605,10.);
#246=VECTOR('',#1606,10.);
#247=VECTOR('',#1609,10.);
#248=VECTOR('',#1610,10.);
#249=VECTOR('',#1613,10.);
#250=CYLINDRICAL_SURFACE('',#1141,1.);
#251=CYLINDRICAL_SURFACE('',#1142,1.);
#252=CYLINDRICAL_SURFACE('',#1156,1.);
#253=CYLINDRICAL_SURFACE('',#1165,1.);
#254=CYLINDRICAL_SURFACE('',#1166,1.);
#255=CYLINDRICAL_SURFACE('',#1172,1.);
#256=CYLINDRICAL_SURFACE('',#1173,1.);
#257=CYLINDRICAL_SURFACE('',#1174,1.);
#258=CYLINDRICAL_SURFACE('',#1175,1.);
#259=CYLINDRICAL_SURFACE('',#1176,1.);
#260=CYLINDRICAL_SURFACE('',#1177,1.);
#261=CYLINDRICAL_SURFACE('',#1179,1.);
#262=CYLINDRICAL_SURFACE('',#1181,1.);
#263=CYLINDRICAL_SURFACE('',#1182,1.);
#264=CYLINDRICAL_SURFACE('',#1184,1.);
#265=CYLINDRICAL_SURFACE('',#1193,1.);
#266=CYLINDRICAL_SURFACE('',#1198,1.);
#267=CYLINDRICAL_SURFACE('',#1201,1.);
#268=CYLINDRICAL_SURFACE('',#1203,1.);
#269=CYLINDRICAL_SURFACE('',#1208,1.);
#270=CYLINDRICAL_SURFACE('',#1211,1.);
#271=CYLINDRICAL_SURFACE('',#1216,1.);
#272=CYLINDRICAL_SURFACE('',#1217,1.);
#273=CYLINDRICAL_SURFACE('',#1218,1.5);
#274=CYLINDRICAL_SURFACE('',#1225,1.5);
#275=CYLINDRICAL_SURFACE('',#1230,1.);
#276=CYLINDRICAL_SURFACE('',#1235,1.);
#277=CYLINDRICAL_SURFACE('',#1237,1.);
#278=CYLINDRICAL_SURFACE('',#1250,0.5);
#279=CYLINDRICAL_SURFACE('',#1252,0.5);
#280=FACE_OUTER_BOUND('',#348,.T.);
#281=FACE_OUTER_BOUND('',#349,.T.);
#282=FACE_OUTER_BOUND('',#350,.T.);
#283=FACE_OUTER_BOUND('',#351,.T.);
#284=FACE_OUTER_BOUND('',#352,.T.);
#285=FACE_OUTER_BOUND('',#353,.T.);
#286=FACE_OUTER_BOUND('',#354,.T.);
#287=FACE_OUTER_BOUND('',#355,.T.);
#288=FACE_OUTER_BOUND('',#356,.T.);
#289=FACE_OUTER_BOUND('',#357,.T.);
#290=FACE_OUTER_BOUND('',#358,.T.);
#291=FACE_OUTER_BOUND('',#359,.T.);
#292=FACE_OUTER_BOUND('',#360,.T.);
#293=FACE_OUTER_BOUND('',#361,.T.);
#294=FACE_OUTER_BOUND('',#362,.T.);
#295=FACE_OUTER_BOUND('',#363,.T.);
#296=FACE_OUTER_BOUND('',#364,.T.);
#297=FACE_OUTER_BOUND('',#365,.T.);
#298=FACE_OUTER_BOUND('',#366,.T.);
#299=FACE_OUTER_BOUND('',#367,.T.);
#300=FACE_OUTER_BOUND('',#368,.T.);
#301=FACE_OUTER_BOUND('',#369,.T.);
#302=FACE_OUTER_BOUND('',#370,.T.);
#303=FACE_OUTER_BOUND('',#371,.T.);
#304=FACE_OUTER_BOUND('',#372,.T.);
#305=FACE_OUTER_BOUND('',#373,.T.);
#306=FACE_OUTER_BOUND('',#374,.T.);
#307=FACE_OUTER_BOUND('',#375,.T.);
#308=FACE_OUTER_BOUND('',#376,.T.);
#309=FACE_OUTER_BOUND('',#377,.T.);
#310=FACE_OUTER_BOUND('',#378,.T.);
#311=FACE_OUTER_BOUND('',#379,.T.);
#312=FACE_OUTER_BOUND('',#380,.T.);
#313=FACE_OUTER_BOUND('',#381,.T.);
#314=FACE_OUTER_BOUND('',#382,.T.);
#315=FACE_OUTER_BOUND('',#383,.T.);
#316=FACE_OUTER_BOUND('',#384,.T.);
#317=FACE_OUTER_BOUND('',#385,.T.);
#318=FACE_OUTER_BOUND('',#386,.T.);
#319=FACE_OUTER_BOUND('',#387,.T.);
#320=FACE_OUTER_BOUND('',#388,.T.);
#321=FACE_OUTER_BOUND('',#389,.T.);
#322=FACE_OUTER_BOUND('',#390,.T.);
#323=FACE_OUTER_BOUND('',#391,.T.);
#324=FACE_OUTER_BOUND('',#392,.T.);
#325=FACE_OUTER_BOUND('',#393,.T.);
#326=FACE_OUTER_BOUND('',#394,.T.);
#327=FACE_OUTER_BOUND('',#395,.T.);
#328=FACE_OUTER_BOUND('',#396,.T.);
#329=FACE_OUTER_BOUND('',#397,.T.);
#330=FACE_OUTER_BOUND('',#398,.T.);
#331=FACE_OUTER_BOUND('',#399,.T.);
#332=FACE_OUTER_BOUND('',#400,.T.);
#333=FACE_OUTER_BOUND('',#401,.T.);
#334=FACE_OUTER_BOUND('',#402,.T.);
#335=FACE_OUTER_BOUND('',#403,.T.);
#336=FACE_OUTER_BOUND('',#404,.T.);
#337=FACE_OUTER_BOUND('',#405,.T.);
#338=FACE_OUTER_BOUND('',#406,.T.);
#339=FACE_OUTER_BOUND('',#407,.T.);
#340=FACE_OUTER_BOUND('',#408,.T.);
#341=FACE_OUTER_BOUND('',#409,.T.);
#342=FACE_OUTER_BOUND('',#410,.T.);
#343=FACE_OUTER_BOUND('',#411,.T.);
#344=FACE_OUTER_BOUND('',#412,.T.);
#345=FACE_OUTER_BOUND('',#413,.T.);
#346=FACE_OUTER_BOUND('',#414,.T.);
#347=FACE_OUTER_BOUND('',#415,.T.);
#348=EDGE_LOOP('',(#728,#729,#730));
#349=EDGE_LOOP('',(#731,#732,#733));
#350=EDGE_LOOP('',(#734,#735,#736,#737));
#351=EDGE_LOOP('',(#738,#739,#740,#741));
#352=EDGE_LOOP('',(#742,#743,#744));
#353=EDGE_LOOP('',(#745,#746,#747));
#354=EDGE_LOOP('',(#748,#749,#750));
#355=EDGE_LOOP('',(#751,#752,#753,#754));
#356=EDGE_LOOP('',(#755,#756,#757));
#357=EDGE_LOOP('',(#758,#759,#760));
#358=EDGE_LOOP('',(#761,#762,#763,#764));
#359=EDGE_LOOP('',(#765,#766,#767,#768,#769));
#360=EDGE_LOOP('',(#770,#771,#772));
#361=EDGE_LOOP('',(#773,#774,#775,#776));
#362=EDGE_LOOP('',(#777,#778,#779,#780));
#363=EDGE_LOOP('',(#781,#782,#783,#784));
#364=EDGE_LOOP('',(#785,#786,#787,#788));
#365=EDGE_LOOP('',(#789,#790,#791,#792));
#366=EDGE_LOOP('',(#793,#794,#795,#796));
#367=EDGE_LOOP('',(#797,#798,#799,#800,#801));
#368=EDGE_LOOP('',(#802,#803,#804,#805,#806,#807));
#369=EDGE_LOOP('',(#808,#809,#810,#811));
#370=EDGE_LOOP('',(#812,#813,#814,#815,#816));
#371=EDGE_LOOP('',(#817,#818,#819,#820));
#372=EDGE_LOOP('',(#821,#822,#823,#824,#825,#826,#827,#828));
#373=EDGE_LOOP('',(#829,#830,#831,#832));
#374=EDGE_LOOP('',(#833,#834,#835,#836));
#375=EDGE_LOOP('',(#837,#838,#839,#840));
#376=EDGE_LOOP('',(#841,#842,#843,#844));
#377=EDGE_LOOP('',(#845,#846,#847,#848,#849,#850));
#378=EDGE_LOOP('',(#851,#852,#853,#854));
#379=EDGE_LOOP('',(#855,#856,#857,#858,#859,#860,#861,#862));
#380=EDGE_LOOP('',(#863,#864,#865,#866));
#381=EDGE_LOOP('',(#867,#868,#869,#870,#871,#872));
#382=EDGE_LOOP('',(#873,#874,#875,#876));
#383=EDGE_LOOP('',(#877,#878,#879,#880,#881,#882,#883,#884,#885));
#384=EDGE_LOOP('',(#886,#887,#888,#889));
#385=EDGE_LOOP('',(#890,#891,#892));
#386=EDGE_LOOP('',(#893,#894,#895,#896,#897));
#387=EDGE_LOOP('',(#898,#899,#900,#901));
#388=EDGE_LOOP('',(#902,#903,#904,#905));
#389=EDGE_LOOP('',(#906,#907,#908,#909,#910,#911,#912,#913,#914,#915,#916,
#917,#918,#919));
#390=EDGE_LOOP('',(#920,#921,#922,#923));
#391=EDGE_LOOP('',(#924,#925,#926));
#392=EDGE_LOOP('',(#927,#928,#929,#930,#931));
#393=EDGE_LOOP('',(#932,#933,#934));
#394=EDGE_LOOP('',(#935,#936,#937,#938,#939));
#395=EDGE_LOOP('',(#940,#941,#942,#943));
#396=EDGE_LOOP('',(#944,#945,#946,#947,#948,#949,#950,#951));
#397=EDGE_LOOP('',(#952,#953,#954,#955,#956,#957,#958,#959));
#398=EDGE_LOOP('',(#960,#961,#962,#963));
#399=EDGE_LOOP('',(#964,#965,#966,#967));
#400=EDGE_LOOP('',(#968,#969,#970,#971,#972));
#401=EDGE_LOOP('',(#973,#974,#975,#976));
#402=EDGE_LOOP('',(#977,#978,#979,#980));
#403=EDGE_LOOP('',(#981,#982,#983,#984));
#404=EDGE_LOOP('',(#985,#986,#987,#988,#989,#990,#991,#992,#993,#994));
#405=EDGE_LOOP('',(#995,#996,#997,#998,#999));
#406=EDGE_LOOP('',(#1000,#1001,#1002,#1003));
#407=EDGE_LOOP('',(#1004,#1005,#1006,#1007,#1008,#1009));
#408=EDGE_LOOP('',(#1010,#1011,#1012,#1013));
#409=EDGE_LOOP('',(#1014,#1015,#1016,#1017));
#410=EDGE_LOOP('',(#1018,#1019,#1020,#1021));
#411=EDGE_LOOP('',(#1022,#1023,#1024,#1025));
#412=EDGE_LOOP('',(#1026,#1027,#1028,#1029));
#413=EDGE_LOOP('',(#1030,#1031,#1032,#1033));
#414=EDGE_LOOP('',(#1034,#1035,#1036,#1037));
#415=EDGE_LOOP('',(#1038,#1039,#1040,#1041,#1042,#1043,#1044,#1045,#1046,
#1047,#1048,#1049,#1050,#1051));
#416=CIRCLE('',#1134,1.);
#417=CIRCLE('',#1135,1.);
#418=CIRCLE('',#1136,1.);
#419=CIRCLE('',#1138,1.);
#420=CIRCLE('',#1139,1.);
#421=CIRCLE('',#1140,1.);
#422=CIRCLE('',#1143,1.);
#423=CIRCLE('',#1145,1.);
#424=CIRCLE('',#1146,1.);
#425=CIRCLE('',#1147,1.);
#426=CIRCLE('',#1149,1.);
#427=CIRCLE('',#1150,0.999999999999996);
#428=CIRCLE('',#1151,1.);
#429=CIRCLE('',#1153,1.);
#430=CIRCLE('',#1154,1.);
#431=CIRCLE('',#1155,1.);
#432=CIRCLE('',#1158,1.);
#433=CIRCLE('',#1159,1.);
#434=CIRCLE('',#1160,1.);
#435=CIRCLE('',#1162,1.);
#436=CIRCLE('',#1163,1.);
#437=CIRCLE('',#1164,1.);
#438=CIRCLE('',#1167,1.);
#439=CIRCLE('',#1169,1.);
#440=CIRCLE('',#1170,1.);
#441=CIRCLE('',#1171,1.);
#442=CIRCLE('',#1178,1.);
#443=CIRCLE('',#1180,1.);
#444=CIRCLE('',#1183,1.);
#445=CIRCLE('',#1185,1.);
#446=CIRCLE('',#1188,1.);
#447=CIRCLE('',#1194,1.);
#448=CIRCLE('',#1195,1.);
#449=CIRCLE('',#1199,1.);
#450=CIRCLE('',#1202,1.);
#451=CIRCLE('',#1204,1.);
#452=CIRCLE('',#1205,1.);
#453=CIRCLE('',#1209,1.);
#454=CIRCLE('',#1214,1.);
#455=CIRCLE('',#1215,1.);
#456=CIRCLE('',#1219,1.5);
#457=CIRCLE('',#1220,1.5);
#458=CIRCLE('',#1222,1.5);
#459=CIRCLE('',#1223,0.5);
#460=CIRCLE('',#1224,0.5);
#461=CIRCLE('',#1226,1.5);
#462=CIRCLE('',#1228,1.);
#463=CIRCLE('',#1229,1.);
#464=CIRCLE('',#1231,1.);
#465=CIRCLE('',#1233,1.);
#466=CIRCLE('',#1234,1.);
#467=CIRCLE('',#1236,1.);
#468=CIRCLE('',#1251,0.5);
#469=CIRCLE('',#1253,0.5);
#470=VERTEX_POINT('',#1618);
#471=VERTEX_POINT('',#1619);
#472=VERTEX_POINT('',#1621);
#473=VERTEX_POINT('',#1625);
#474=VERTEX_POINT('',#1626);
#475=VERTEX_POINT('',#1628);
#476=VERTEX_POINT('',#1635);
#477=VERTEX_POINT('',#1636);
#478=VERTEX_POINT('',#1641);
#479=VERTEX_POINT('',#1642);
#480=VERTEX_POINT('',#1644);
#481=VERTEX_POINT('',#1648);
#482=VERTEX_POINT('',#1649);
#483=VERTEX_POINT('',#1651);
#484=VERTEX_POINT('',#1655);
#485=VERTEX_POINT('',#1656);
#486=VERTEX_POINT('',#1658);
#487=VERTEX_POINT('',#1665);
#488=VERTEX_POINT('',#1666);
#489=VERTEX_POINT('',#1668);
#490=VERTEX_POINT('',#1672);
#491=VERTEX_POINT('',#1673);
#492=VERTEX_POINT('',#1675);
#493=VERTEX_POINT('',#1682);
#494=VERTEX_POINT('',#1683);
#495=VERTEX_POINT('',#1695);
#496=VERTEX_POINT('',#1699);
#497=VERTEX_POINT('',#1700);
#498=VERTEX_POINT('',#1702);
#499=VERTEX_POINT('',#1721);
#500=VERTEX_POINT('',#1722);
#501=VERTEX_POINT('',#1727);
#502=VERTEX_POINT('',#1728);
#503=VERTEX_POINT('',#1731);
#504=VERTEX_POINT('',#1745);
#505=VERTEX_POINT('',#1747);
#506=VERTEX_POINT('',#1751);
#507=VERTEX_POINT('',#1752);
#508=VERTEX_POINT('',#1757);
#509=VERTEX_POINT('',#1758);
#510=VERTEX_POINT('',#1761);
#511=VERTEX_POINT('',#1776);
#512=VERTEX_POINT('',#1778);
#513=VERTEX_POINT('',#1788);
#514=VERTEX_POINT('',#1789);
#515=VERTEX_POINT('',#1791);
#516=VERTEX_POINT('',#1793);
#517=VERTEX_POINT('',#1795);
#518=VERTEX_POINT('',#1797);
#519=VERTEX_POINT('',#1801);
#520=VERTEX_POINT('',#1803);
#521=VERTEX_POINT('',#1807);
#522=VERTEX_POINT('',#1812);
#523=VERTEX_POINT('',#1816);
#524=VERTEX_POINT('',#1817);
#525=VERTEX_POINT('',#1819);
#526=VERTEX_POINT('',#1821);
#527=VERTEX_POINT('',#1823);
#528=VERTEX_POINT('',#1825);
#529=VERTEX_POINT('',#1829);
#530=VERTEX_POINT('',#1831);
#531=VERTEX_POINT('',#1835);
#532=VERTEX_POINT('',#1840);
#533=VERTEX_POINT('',#1844);
#534=VERTEX_POINT('',#1853);
#535=VERTEX_POINT('',#1855);
#536=VERTEX_POINT('',#1859);
#537=VERTEX_POINT('',#1861);
#538=VERTEX_POINT('',#1863);
#539=VERTEX_POINT('',#1865);
#540=VERTEX_POINT('',#1867);
#541=VERTEX_POINT('',#1869);
#542=VERTEX_POINT('',#1871);
#543=VERTEX_POINT('',#1875);
#544=VERTEX_POINT('',#1879);
#545=VERTEX_POINT('',#1883);
#546=VERTEX_POINT('',#1887);
#547=VERTEX_POINT('',#1891);
#548=VERTEX_POINT('',#1898);
#549=VERTEX_POINT('',#1900);
#550=VERTEX_POINT('',#1902);
#551=VERTEX_POINT('',#1904);
#552=VERTEX_POINT('',#1908);
#553=VERTEX_POINT('',#1911);
#554=VERTEX_POINT('',#1913);
#555=VERTEX_POINT('',#1915);
#556=VERTEX_POINT('',#1922);
#557=VERTEX_POINT('',#1926);
#558=VERTEX_POINT('',#1930);
#559=VERTEX_POINT('',#1937);
#560=VERTEX_POINT('',#1944);
#561=VERTEX_POINT('',#1948);
#562=VERTEX_POINT('',#1952);
#563=VERTEX_POINT('',#1956);
#564=VERTEX_POINT('',#1960);
#565=VERTEX_POINT('',#1964);
#566=EDGE_CURVE('',#470,#471,#416,.F.);
#567=EDGE_CURVE('',#472,#470,#417,.F.);
#568=EDGE_CURVE('',#471,#472,#418,.F.);
#569=EDGE_CURVE('',#473,#474,#419,.F.);
#570=EDGE_CURVE('',#475,#473,#420,.F.);
#571=EDGE_CURVE('',#474,#475,#421,.F.);
#572=EDGE_CURVE('',#470,#475,#50,.T.);
#573=EDGE_CURVE('',#473,#472,#51,.T.);
#574=EDGE_CURVE('',#476,#477,#422,.F.);
#575=EDGE_CURVE('',#477,#474,#52,.T.);
#576=EDGE_CURVE('',#475,#476,#53,.T.);
#577=EDGE_CURVE('',#478,#479,#423,.F.);
#578=EDGE_CURVE('',#480,#478,#424,.F.);
#579=EDGE_CURVE('',#479,#480,#425,.F.);
#580=EDGE_CURVE('',#481,#482,#426,.F.);
#581=EDGE_CURVE('',#483,#481,#427,.F.);
#582=EDGE_CURVE('',#482,#483,#428,.F.);
#583=EDGE_CURVE('',#484,#485,#429,.F.);
#584=EDGE_CURVE('',#486,#484,#430,.F.);
#585=EDGE_CURVE('',#485,#486,#431,.F.);
#586=EDGE_CURVE('',#484,#480,#54,.T.);
#587=EDGE_CURVE('',#478,#486,#55,.T.);
#588=EDGE_CURVE('',#487,#488,#432,.F.);
#589=EDGE_CURVE('',#489,#487,#433,.F.);
#590=EDGE_CURVE('',#488,#489,#434,.F.);
#591=EDGE_CURVE('',#490,#491,#435,.F.);
#592=EDGE_CURVE('',#492,#490,#436,.F.);
#593=EDGE_CURVE('',#491,#492,#437,.F.);
#594=EDGE_CURVE('',#490,#483,#56,.T.);
#595=EDGE_CURVE('',#481,#492,#57,.T.);
#596=EDGE_CURVE('',#493,#494,#47,.T.);
#597=EDGE_CURVE('',#493,#491,#58,.T.);
#598=EDGE_CURVE('',#492,#495,#59,.T.);
#599=EDGE_CURVE('',#494,#495,#438,.T.);
#600=EDGE_CURVE('',#496,#497,#439,.F.);
#601=EDGE_CURVE('',#498,#496,#440,.F.);
#602=EDGE_CURVE('',#497,#498,#441,.F.);
#603=EDGE_CURVE('',#496,#489,#60,.T.);
#604=EDGE_CURVE('',#487,#498,#61,.T.);
#605=EDGE_CURVE('',#491,#497,#62,.T.);
#606=EDGE_CURVE('',#498,#490,#63,.T.);
#607=EDGE_CURVE('',#497,#485,#64,.T.);
#608=EDGE_CURVE('',#486,#496,#65,.T.);
#609=EDGE_CURVE('',#479,#488,#66,.T.);
#610=EDGE_CURVE('',#489,#478,#67,.T.);
#611=EDGE_CURVE('',#488,#482,#68,.T.);
#612=EDGE_CURVE('',#483,#487,#69,.T.);
#613=EDGE_CURVE('',#499,#500,#442,.T.);
#614=EDGE_CURVE('',#500,#484,#70,.T.);
#615=EDGE_CURVE('',#485,#499,#71,.T.);
#616=EDGE_CURVE('',#501,#502,#443,.F.);
#617=EDGE_CURVE('',#502,#481,#72,.T.);
#618=EDGE_CURVE('',#482,#503,#73,.T.);
#619=EDGE_CURVE('',#503,#501,#48,.F.);
#620=EDGE_CURVE('',#474,#479,#74,.T.);
#621=EDGE_CURVE('',#480,#504,#75,.T.);
#622=EDGE_CURVE('',#505,#504,#76,.T.);
#623=EDGE_CURVE('',#505,#473,#77,.T.);
#624=EDGE_CURVE('',#506,#507,#444,.T.);
#625=EDGE_CURVE('',#507,#471,#78,.T.);
#626=EDGE_CURVE('',#472,#506,#79,.T.);
#627=EDGE_CURVE('',#508,#509,#445,.F.);
#628=EDGE_CURVE('',#509,#470,#80,.T.);
#629=EDGE_CURVE('',#471,#510,#81,.T.);
#630=EDGE_CURVE('',#510,#508,#49,.F.);
#631=EDGE_CURVE('',#495,#502,#82,.T.);
#632=EDGE_CURVE('',#511,#477,#83,.T.);
#633=EDGE_CURVE('',#512,#511,#84,.T.);
#634=EDGE_CURVE('',#503,#512,#446,.F.);
#635=EDGE_CURVE('',#505,#506,#85,.T.);
#636=EDGE_CURVE('',#476,#509,#86,.T.);
#637=EDGE_CURVE('',#513,#514,#447,.T.);
#638=EDGE_CURVE('',#514,#515,#87,.T.);
#639=EDGE_CURVE('',#515,#516,#448,.T.);
#640=EDGE_CURVE('',#516,#517,#15,.T.);
#641=EDGE_CURVE('',#517,#518,#88,.T.);
#642=EDGE_CURVE('',#518,#513,#16,.T.);
#643=EDGE_CURVE('',#518,#519,#89,.T.);
#644=EDGE_CURVE('',#519,#520,#449,.F.);
#645=EDGE_CURVE('',#520,#513,#90,.T.);
#646=EDGE_CURVE('',#521,#517,#91,.T.);
#647=EDGE_CURVE('',#494,#521,#92,.T.);
#648=EDGE_CURVE('',#519,#501,#93,.T.);
#649=EDGE_CURVE('',#516,#522,#94,.T.);
#650=EDGE_CURVE('',#522,#521,#450,.F.);
#651=EDGE_CURVE('',#523,#524,#451,.T.);
#652=EDGE_CURVE('',#524,#525,#95,.T.);
#653=EDGE_CURVE('',#525,#526,#452,.T.);
#654=EDGE_CURVE('',#526,#527,#17,.T.);
#655=EDGE_CURVE('',#527,#528,#96,.T.);
#656=EDGE_CURVE('',#528,#523,#18,.T.);
#657=EDGE_CURVE('',#528,#529,#97,.T.);
#658=EDGE_CURVE('',#529,#530,#453,.F.);
#659=EDGE_CURVE('',#530,#523,#98,.T.);
#660=EDGE_CURVE('',#531,#527,#99,.T.);
#661=EDGE_CURVE('',#531,#511,#100,.T.);
#662=EDGE_CURVE('',#529,#508,#101,.T.);
#663=EDGE_CURVE('',#526,#532,#102,.T.);
#664=EDGE_CURVE('',#532,#531,#19,.T.);
#665=EDGE_CURVE('',#533,#519,#454,.F.);
#666=EDGE_CURVE('',#520,#533,#455,.F.);
#667=EDGE_CURVE('',#512,#533,#103,.T.);
#668=EDGE_CURVE('',#532,#520,#104,.T.);
#669=EDGE_CURVE('',#533,#531,#105,.T.);
#670=EDGE_CURVE('',#514,#534,#456,.T.);
#671=EDGE_CURVE('',#534,#535,#106,.T.);
#672=EDGE_CURVE('',#535,#515,#457,.T.);
#673=EDGE_CURVE('',#536,#525,#458,.T.);
#674=EDGE_CURVE('',#537,#536,#459,.T.);
#675=EDGE_CURVE('',#537,#538,#107,.T.);
#676=EDGE_CURVE('',#538,#539,#108,.T.);
#677=EDGE_CURVE('',#539,#540,#109,.T.);
#678=EDGE_CURVE('',#540,#541,#110,.T.);
#679=EDGE_CURVE('',#541,#542,#111,.T.);
#680=EDGE_CURVE('',#534,#542,#460,.T.);
#681=EDGE_CURVE('',#524,#543,#461,.T.);
#682=EDGE_CURVE('',#543,#536,#112,.T.);
#683=EDGE_CURVE('',#544,#522,#462,.F.);
#684=EDGE_CURVE('',#521,#544,#463,.F.);
#685=EDGE_CURVE('',#545,#493,#464,.F.);
#686=EDGE_CURVE('',#544,#545,#113,.T.);
#687=EDGE_CURVE('',#546,#529,#465,.F.);
#688=EDGE_CURVE('',#530,#546,#466,.F.);
#689=EDGE_CURVE('',#547,#510,#467,.T.);
#690=EDGE_CURVE('',#547,#546,#114,.T.);
#691=EDGE_CURVE('',#522,#530,#115,.T.);
#692=EDGE_CURVE('',#546,#544,#116,.T.);
#693=EDGE_CURVE('',#545,#548,#117,.T.);
#694=EDGE_CURVE('',#549,#547,#118,.T.);
#695=EDGE_CURVE('',#550,#549,#119,.T.);
#696=EDGE_CURVE('',#550,#551,#120,.T.);
#697=EDGE_CURVE('',#551,#548,#121,.T.);
#698=EDGE_CURVE('',#552,#550,#122,.T.);
#699=EDGE_CURVE('',#505,#552,#123,.T.);
#700=EDGE_CURVE('',#553,#504,#124,.T.);
#701=EDGE_CURVE('',#554,#553,#125,.T.);
#702=EDGE_CURVE('',#555,#554,#126,.T.);
#703=EDGE_CURVE('',#551,#555,#127,.T.);
#704=EDGE_CURVE('',#504,#500,#128,.T.);
#705=EDGE_CURVE('',#556,#499,#129,.T.);
#706=EDGE_CURVE('',#553,#556,#130,.T.);
#707=EDGE_CURVE('',#557,#556,#131,.T.);
#708=EDGE_CURVE('',#554,#557,#132,.T.);
#709=EDGE_CURVE('',#558,#557,#133,.T.);
#710=EDGE_CURVE('',#555,#558,#134,.T.);
#711=EDGE_CURVE('',#548,#558,#135,.T.);
#712=EDGE_CURVE('',#559,#552,#136,.T.);
#713=EDGE_CURVE('',#507,#559,#137,.T.);
#714=EDGE_CURVE('',#559,#549,#138,.T.);
#715=EDGE_CURVE('',#543,#560,#468,.T.);
#716=EDGE_CURVE('',#560,#537,#139,.T.);
#717=EDGE_CURVE('',#561,#535,#469,.T.);
#718=EDGE_CURVE('',#542,#561,#140,.T.);
#719=EDGE_CURVE('',#541,#562,#141,.T.);
#720=EDGE_CURVE('',#561,#562,#142,.T.);
#721=EDGE_CURVE('',#563,#560,#143,.T.);
#722=EDGE_CURVE('',#538,#563,#144,.T.);
#723=EDGE_CURVE('',#564,#563,#145,.T.);
#724=EDGE_CURVE('',#539,#564,#146,.T.);
#725=EDGE_CURVE('',#565,#564,#147,.T.);
#726=EDGE_CURVE('',#540,#565,#148,.T.);
#727=EDGE_CURVE('',#562,#565,#149,.T.);
#728=ORIENTED_EDGE('',*,*,#566,.F.);
#729=ORIENTED_EDGE('',*,*,#567,.F.);
#730=ORIENTED_EDGE('',*,*,#568,.F.);
#731=ORIENTED_EDGE('',*,*,#569,.F.);
#732=ORIENTED_EDGE('',*,*,#570,.F.);
#733=ORIENTED_EDGE('',*,*,#571,.F.);
#734=ORIENTED_EDGE('',*,*,#567,.T.);
#735=ORIENTED_EDGE('',*,*,#572,.T.);
#736=ORIENTED_EDGE('',*,*,#570,.T.);
#737=ORIENTED_EDGE('',*,*,#573,.T.);
#738=ORIENTED_EDGE('',*,*,#574,.T.);
#739=ORIENTED_EDGE('',*,*,#575,.T.);
#740=ORIENTED_EDGE('',*,*,#571,.T.);
#741=ORIENTED_EDGE('',*,*,#576,.T.);
#742=ORIENTED_EDGE('',*,*,#577,.F.);
#743=ORIENTED_EDGE('',*,*,#578,.F.);
#744=ORIENTED_EDGE('',*,*,#579,.F.);
#745=ORIENTED_EDGE('',*,*,#580,.F.);
#746=ORIENTED_EDGE('',*,*,#581,.F.);
#747=ORIENTED_EDGE('',*,*,#582,.F.);
#748=ORIENTED_EDGE('',*,*,#583,.F.);
#749=ORIENTED_EDGE('',*,*,#584,.F.);
#750=ORIENTED_EDGE('',*,*,#585,.F.);
#751=ORIENTED_EDGE('',*,*,#584,.T.);
#752=ORIENTED_EDGE('',*,*,#586,.T.);
#753=ORIENTED_EDGE('',*,*,#578,.T.);
#754=ORIENTED_EDGE('',*,*,#587,.T.);
#755=ORIENTED_EDGE('',*,*,#588,.F.);
#756=ORIENTED_EDGE('',*,*,#589,.F.);
#757=ORIENTED_EDGE('',*,*,#590,.F.);
#758=ORIENTED_EDGE('',*,*,#591,.F.);
#759=ORIENTED_EDGE('',*,*,#592,.F.);
#760=ORIENTED_EDGE('',*,*,#593,.F.);
#761=ORIENTED_EDGE('',*,*,#592,.T.);
#762=ORIENTED_EDGE('',*,*,#594,.T.);
#763=ORIENTED_EDGE('',*,*,#581,.T.);
#764=ORIENTED_EDGE('',*,*,#595,.T.);
#765=ORIENTED_EDGE('',*,*,#596,.F.);
#766=ORIENTED_EDGE('',*,*,#597,.T.);
#767=ORIENTED_EDGE('',*,*,#593,.T.);
#768=ORIENTED_EDGE('',*,*,#598,.T.);
#769=ORIENTED_EDGE('',*,*,#599,.F.);
#770=ORIENTED_EDGE('',*,*,#600,.F.);
#771=ORIENTED_EDGE('',*,*,#601,.F.);
#772=ORIENTED_EDGE('',*,*,#602,.F.);
#773=ORIENTED_EDGE('',*,*,#601,.T.);
#774=ORIENTED_EDGE('',*,*,#603,.T.);
#775=ORIENTED_EDGE('',*,*,#589,.T.);
#776=ORIENTED_EDGE('',*,*,#604,.T.);
#777=ORIENTED_EDGE('',*,*,#591,.T.);
#778=ORIENTED_EDGE('',*,*,#605,.T.);
#779=ORIENTED_EDGE('',*,*,#602,.T.);
#780=ORIENTED_EDGE('',*,*,#606,.T.);
#781=ORIENTED_EDGE('',*,*,#600,.T.);
#782=ORIENTED_EDGE('',*,*,#607,.T.);
#783=ORIENTED_EDGE('',*,*,#585,.T.);
#784=ORIENTED_EDGE('',*,*,#608,.T.);
#785=ORIENTED_EDGE('',*,*,#577,.T.);
#786=ORIENTED_EDGE('',*,*,#609,.T.);
#787=ORIENTED_EDGE('',*,*,#590,.T.);
#788=ORIENTED_EDGE('',*,*,#610,.T.);
#789=ORIENTED_EDGE('',*,*,#588,.T.);
#790=ORIENTED_EDGE('',*,*,#611,.T.);
#791=ORIENTED_EDGE('',*,*,#582,.T.);
#792=ORIENTED_EDGE('',*,*,#612,.T.);
#793=ORIENTED_EDGE('',*,*,#613,.T.);
#794=ORIENTED_EDGE('',*,*,#614,.T.);
#795=ORIENTED_EDGE('',*,*,#583,.T.);
#796=ORIENTED_EDGE('',*,*,#615,.T.);
#797=ORIENTED_EDGE('',*,*,#616,.T.);
#798=ORIENTED_EDGE('',*,*,#617,.T.);
#799=ORIENTED_EDGE('',*,*,#580,.T.);
#800=ORIENTED_EDGE('',*,*,#618,.T.);
#801=ORIENTED_EDGE('',*,*,#619,.T.);
#802=ORIENTED_EDGE('',*,*,#569,.T.);
#803=ORIENTED_EDGE('',*,*,#620,.T.);
#804=ORIENTED_EDGE('',*,*,#579,.T.);
#805=ORIENTED_EDGE('',*,*,#621,.T.);
#806=ORIENTED_EDGE('',*,*,#622,.F.);
#807=ORIENTED_EDGE('',*,*,#623,.T.);
#808=ORIENTED_EDGE('',*,*,#624,.T.);
#809=ORIENTED_EDGE('',*,*,#625,.T.);
#810=ORIENTED_EDGE('',*,*,#568,.T.);
#811=ORIENTED_EDGE('',*,*,#626,.T.);
#812=ORIENTED_EDGE('',*,*,#627,.T.);
#813=ORIENTED_EDGE('',*,*,#628,.T.);
#814=ORIENTED_EDGE('',*,*,#566,.T.);
#815=ORIENTED_EDGE('',*,*,#629,.T.);
#816=ORIENTED_EDGE('',*,*,#630,.T.);
#817=ORIENTED_EDGE('',*,*,#598,.F.);
#818=ORIENTED_EDGE('',*,*,#595,.F.);
#819=ORIENTED_EDGE('',*,*,#617,.F.);
#820=ORIENTED_EDGE('',*,*,#631,.F.);
#821=ORIENTED_EDGE('',*,*,#618,.F.);
#822=ORIENTED_EDGE('',*,*,#611,.F.);
#823=ORIENTED_EDGE('',*,*,#609,.F.);
#824=ORIENTED_EDGE('',*,*,#620,.F.);
#825=ORIENTED_EDGE('',*,*,#575,.F.);
#826=ORIENTED_EDGE('',*,*,#632,.F.);
#827=ORIENTED_EDGE('',*,*,#633,.F.);
#828=ORIENTED_EDGE('',*,*,#634,.F.);
#829=ORIENTED_EDGE('',*,*,#623,.F.);
#830=ORIENTED_EDGE('',*,*,#635,.T.);
#831=ORIENTED_EDGE('',*,*,#626,.F.);
#832=ORIENTED_EDGE('',*,*,#573,.F.);
#833=ORIENTED_EDGE('',*,*,#576,.F.);
#834=ORIENTED_EDGE('',*,*,#572,.F.);
#835=ORIENTED_EDGE('',*,*,#628,.F.);
#836=ORIENTED_EDGE('',*,*,#636,.F.);
#837=ORIENTED_EDGE('',*,*,#604,.F.);
#838=ORIENTED_EDGE('',*,*,#612,.F.);
#839=ORIENTED_EDGE('',*,*,#594,.F.);
#840=ORIENTED_EDGE('',*,*,#606,.F.);
#841=ORIENTED_EDGE('',*,*,#603,.F.);
#842=ORIENTED_EDGE('',*,*,#608,.F.);
#843=ORIENTED_EDGE('',*,*,#587,.F.);
#844=ORIENTED_EDGE('',*,*,#610,.F.);
#845=ORIENTED_EDGE('',*,*,#637,.T.);
#846=ORIENTED_EDGE('',*,*,#638,.T.);
#847=ORIENTED_EDGE('',*,*,#639,.T.);
#848=ORIENTED_EDGE('',*,*,#640,.T.);
#849=ORIENTED_EDGE('',*,*,#641,.T.);
#850=ORIENTED_EDGE('',*,*,#642,.T.);
#851=ORIENTED_EDGE('',*,*,#642,.F.);
#852=ORIENTED_EDGE('',*,*,#643,.T.);
#853=ORIENTED_EDGE('',*,*,#644,.T.);
#854=ORIENTED_EDGE('',*,*,#645,.T.);
#855=ORIENTED_EDGE('',*,*,#641,.F.);
#856=ORIENTED_EDGE('',*,*,#646,.F.);
#857=ORIENTED_EDGE('',*,*,#647,.F.);
#858=ORIENTED_EDGE('',*,*,#599,.T.);
#859=ORIENTED_EDGE('',*,*,#631,.T.);
#860=ORIENTED_EDGE('',*,*,#616,.F.);
#861=ORIENTED_EDGE('',*,*,#648,.F.);
#862=ORIENTED_EDGE('',*,*,#643,.F.);
#863=ORIENTED_EDGE('',*,*,#640,.F.);
#864=ORIENTED_EDGE('',*,*,#649,.T.);
#865=ORIENTED_EDGE('',*,*,#650,.T.);
#866=ORIENTED_EDGE('',*,*,#646,.T.);
#867=ORIENTED_EDGE('',*,*,#651,.T.);
#868=ORIENTED_EDGE('',*,*,#652,.T.);
#869=ORIENTED_EDGE('',*,*,#653,.T.);
#870=ORIENTED_EDGE('',*,*,#654,.T.);
#871=ORIENTED_EDGE('',*,*,#655,.T.);
#872=ORIENTED_EDGE('',*,*,#656,.T.);
#873=ORIENTED_EDGE('',*,*,#656,.F.);
#874=ORIENTED_EDGE('',*,*,#657,.T.);
#875=ORIENTED_EDGE('',*,*,#658,.T.);
#876=ORIENTED_EDGE('',*,*,#659,.T.);
#877=ORIENTED_EDGE('',*,*,#655,.F.);
#878=ORIENTED_EDGE('',*,*,#660,.F.);
#879=ORIENTED_EDGE('',*,*,#661,.T.);
#880=ORIENTED_EDGE('',*,*,#632,.T.);
#881=ORIENTED_EDGE('',*,*,#574,.F.);
#882=ORIENTED_EDGE('',*,*,#636,.T.);
#883=ORIENTED_EDGE('',*,*,#627,.F.);
#884=ORIENTED_EDGE('',*,*,#662,.F.);
#885=ORIENTED_EDGE('',*,*,#657,.F.);
#886=ORIENTED_EDGE('',*,*,#654,.F.);
#887=ORIENTED_EDGE('',*,*,#663,.T.);
#888=ORIENTED_EDGE('',*,*,#664,.T.);
#889=ORIENTED_EDGE('',*,*,#660,.T.);
#890=ORIENTED_EDGE('',*,*,#644,.F.);
#891=ORIENTED_EDGE('',*,*,#665,.F.);
#892=ORIENTED_EDGE('',*,*,#666,.F.);
#893=ORIENTED_EDGE('',*,*,#634,.T.);
#894=ORIENTED_EDGE('',*,*,#667,.T.);
#895=ORIENTED_EDGE('',*,*,#665,.T.);
#896=ORIENTED_EDGE('',*,*,#648,.T.);
#897=ORIENTED_EDGE('',*,*,#619,.F.);
#898=ORIENTED_EDGE('',*,*,#668,.T.);
#899=ORIENTED_EDGE('',*,*,#666,.T.);
#900=ORIENTED_EDGE('',*,*,#669,.T.);
#901=ORIENTED_EDGE('',*,*,#664,.F.);
#902=ORIENTED_EDGE('',*,*,#638,.F.);
#903=ORIENTED_EDGE('',*,*,#670,.T.);
#904=ORIENTED_EDGE('',*,*,#671,.T.);
#905=ORIENTED_EDGE('',*,*,#672,.T.);
#906=ORIENTED_EDGE('',*,*,#637,.F.);
#907=ORIENTED_EDGE('',*,*,#645,.F.);
#908=ORIENTED_EDGE('',*,*,#668,.F.);
#909=ORIENTED_EDGE('',*,*,#663,.F.);
#910=ORIENTED_EDGE('',*,*,#653,.F.);
#911=ORIENTED_EDGE('',*,*,#673,.F.);
#912=ORIENTED_EDGE('',*,*,#674,.F.);
#913=ORIENTED_EDGE('',*,*,#675,.T.);
#914=ORIENTED_EDGE('',*,*,#676,.T.);
#915=ORIENTED_EDGE('',*,*,#677,.T.);
#916=ORIENTED_EDGE('',*,*,#678,.T.);
#917=ORIENTED_EDGE('',*,*,#679,.T.);
#918=ORIENTED_EDGE('',*,*,#680,.F.);
#919=ORIENTED_EDGE('',*,*,#670,.F.);
#920=ORIENTED_EDGE('',*,*,#652,.F.);
#921=ORIENTED_EDGE('',*,*,#681,.T.);
#922=ORIENTED_EDGE('',*,*,#682,.T.);
#923=ORIENTED_EDGE('',*,*,#673,.T.);
#924=ORIENTED_EDGE('',*,*,#683,.F.);
#925=ORIENTED_EDGE('',*,*,#684,.F.);
#926=ORIENTED_EDGE('',*,*,#650,.F.);
#927=ORIENTED_EDGE('',*,*,#685,.T.);
#928=ORIENTED_EDGE('',*,*,#596,.T.);
#929=ORIENTED_EDGE('',*,*,#647,.T.);
#930=ORIENTED_EDGE('',*,*,#684,.T.);
#931=ORIENTED_EDGE('',*,*,#686,.T.);
#932=ORIENTED_EDGE('',*,*,#658,.F.);
#933=ORIENTED_EDGE('',*,*,#687,.F.);
#934=ORIENTED_EDGE('',*,*,#688,.F.);
#935=ORIENTED_EDGE('',*,*,#689,.F.);
#936=ORIENTED_EDGE('',*,*,#690,.T.);
#937=ORIENTED_EDGE('',*,*,#687,.T.);
#938=ORIENTED_EDGE('',*,*,#662,.T.);
#939=ORIENTED_EDGE('',*,*,#630,.F.);
#940=ORIENTED_EDGE('',*,*,#683,.T.);
#941=ORIENTED_EDGE('',*,*,#691,.T.);
#942=ORIENTED_EDGE('',*,*,#688,.T.);
#943=ORIENTED_EDGE('',*,*,#692,.T.);
#944=ORIENTED_EDGE('',*,*,#693,.F.);
#945=ORIENTED_EDGE('',*,*,#686,.F.);
#946=ORIENTED_EDGE('',*,*,#692,.F.);
#947=ORIENTED_EDGE('',*,*,#690,.F.);
#948=ORIENTED_EDGE('',*,*,#694,.F.);
#949=ORIENTED_EDGE('',*,*,#695,.F.);
#950=ORIENTED_EDGE('',*,*,#696,.T.);
#951=ORIENTED_EDGE('',*,*,#697,.T.);
#952=ORIENTED_EDGE('',*,*,#696,.F.);
#953=ORIENTED_EDGE('',*,*,#698,.F.);
#954=ORIENTED_EDGE('',*,*,#699,.F.);
#955=ORIENTED_EDGE('',*,*,#622,.T.);
#956=ORIENTED_EDGE('',*,*,#700,.F.);
#957=ORIENTED_EDGE('',*,*,#701,.F.);
#958=ORIENTED_EDGE('',*,*,#702,.F.);
#959=ORIENTED_EDGE('',*,*,#703,.F.);
#960=ORIENTED_EDGE('',*,*,#667,.F.);
#961=ORIENTED_EDGE('',*,*,#633,.T.);
#962=ORIENTED_EDGE('',*,*,#661,.F.);
#963=ORIENTED_EDGE('',*,*,#669,.F.);
#964=ORIENTED_EDGE('',*,*,#614,.F.);
#965=ORIENTED_EDGE('',*,*,#704,.F.);
#966=ORIENTED_EDGE('',*,*,#621,.F.);
#967=ORIENTED_EDGE('',*,*,#586,.F.);
#968=ORIENTED_EDGE('',*,*,#613,.F.);
#969=ORIENTED_EDGE('',*,*,#705,.F.);
#970=ORIENTED_EDGE('',*,*,#706,.F.);
#971=ORIENTED_EDGE('',*,*,#700,.T.);
#972=ORIENTED_EDGE('',*,*,#704,.T.);
#973=ORIENTED_EDGE('',*,*,#701,.T.);
#974=ORIENTED_EDGE('',*,*,#706,.T.);
#975=ORIENTED_EDGE('',*,*,#707,.F.);
#976=ORIENTED_EDGE('',*,*,#708,.F.);
#977=ORIENTED_EDGE('',*,*,#702,.T.);
#978=ORIENTED_EDGE('',*,*,#708,.T.);
#979=ORIENTED_EDGE('',*,*,#709,.F.);
#980=ORIENTED_EDGE('',*,*,#710,.F.);
#981=ORIENTED_EDGE('',*,*,#703,.T.);
#982=ORIENTED_EDGE('',*,*,#710,.T.);
#983=ORIENTED_EDGE('',*,*,#711,.F.);
#984=ORIENTED_EDGE('',*,*,#697,.F.);
#985=ORIENTED_EDGE('',*,*,#597,.F.);
#986=ORIENTED_EDGE('',*,*,#685,.F.);
#987=ORIENTED_EDGE('',*,*,#693,.T.);
#988=ORIENTED_EDGE('',*,*,#711,.T.);
#989=ORIENTED_EDGE('',*,*,#709,.T.);
#990=ORIENTED_EDGE('',*,*,#707,.T.);
#991=ORIENTED_EDGE('',*,*,#705,.T.);
#992=ORIENTED_EDGE('',*,*,#615,.F.);
#993=ORIENTED_EDGE('',*,*,#607,.F.);
#994=ORIENTED_EDGE('',*,*,#605,.F.);
#995=ORIENTED_EDGE('',*,*,#624,.F.);
#996=ORIENTED_EDGE('',*,*,#635,.F.);
#997=ORIENTED_EDGE('',*,*,#699,.T.);
#998=ORIENTED_EDGE('',*,*,#712,.F.);
#999=ORIENTED_EDGE('',*,*,#713,.F.);
#1000=ORIENTED_EDGE('',*,*,#698,.T.);
#1001=ORIENTED_EDGE('',*,*,#695,.T.);
#1002=ORIENTED_EDGE('',*,*,#714,.F.);
#1003=ORIENTED_EDGE('',*,*,#712,.T.);
#1004=ORIENTED_EDGE('',*,*,#625,.F.);
#1005=ORIENTED_EDGE('',*,*,#713,.T.);
#1006=ORIENTED_EDGE('',*,*,#714,.T.);
#1007=ORIENTED_EDGE('',*,*,#694,.T.);
#1008=ORIENTED_EDGE('',*,*,#689,.T.);
#1009=ORIENTED_EDGE('',*,*,#629,.F.);
#1010=ORIENTED_EDGE('',*,*,#715,.T.);
#1011=ORIENTED_EDGE('',*,*,#716,.T.);
#1012=ORIENTED_EDGE('',*,*,#674,.T.);
#1013=ORIENTED_EDGE('',*,*,#682,.F.);
#1014=ORIENTED_EDGE('',*,*,#717,.T.);
#1015=ORIENTED_EDGE('',*,*,#671,.F.);
#1016=ORIENTED_EDGE('',*,*,#680,.T.);
#1017=ORIENTED_EDGE('',*,*,#718,.T.);
#1018=ORIENTED_EDGE('',*,*,#718,.F.);
#1019=ORIENTED_EDGE('',*,*,#679,.F.);
#1020=ORIENTED_EDGE('',*,*,#719,.T.);
#1021=ORIENTED_EDGE('',*,*,#720,.F.);
#1022=ORIENTED_EDGE('',*,*,#716,.F.);
#1023=ORIENTED_EDGE('',*,*,#721,.F.);
#1024=ORIENTED_EDGE('',*,*,#722,.F.);
#1025=ORIENTED_EDGE('',*,*,#675,.F.);
#1026=ORIENTED_EDGE('',*,*,#722,.T.);
#1027=ORIENTED_EDGE('',*,*,#723,.F.);
#1028=ORIENTED_EDGE('',*,*,#724,.F.);
#1029=ORIENTED_EDGE('',*,*,#676,.F.);
#1030=ORIENTED_EDGE('',*,*,#724,.T.);
#1031=ORIENTED_EDGE('',*,*,#725,.F.);
#1032=ORIENTED_EDGE('',*,*,#726,.F.);
#1033=ORIENTED_EDGE('',*,*,#677,.F.);
#1034=ORIENTED_EDGE('',*,*,#726,.T.);
#1035=ORIENTED_EDGE('',*,*,#727,.F.);
#1036=ORIENTED_EDGE('',*,*,#719,.F.);
#1037=ORIENTED_EDGE('',*,*,#678,.F.);
#1038=ORIENTED_EDGE('',*,*,#639,.F.);
#1039=ORIENTED_EDGE('',*,*,#672,.F.);
#1040=ORIENTED_EDGE('',*,*,#717,.F.);
#1041=ORIENTED_EDGE('',*,*,#720,.T.);
#1042=ORIENTED_EDGE('',*,*,#727,.T.);
#1043=ORIENTED_EDGE('',*,*,#725,.T.);
#1044=ORIENTED_EDGE('',*,*,#723,.T.);
#1045=ORIENTED_EDGE('',*,*,#721,.T.);
#1046=ORIENTED_EDGE('',*,*,#715,.F.);
#1047=ORIENTED_EDGE('',*,*,#681,.F.);
#1048=ORIENTED_EDGE('',*,*,#651,.F.);
#1049=ORIENTED_EDGE('',*,*,#659,.F.);
#1050=ORIENTED_EDGE('',*,*,#691,.F.);
#1051=ORIENTED_EDGE('',*,*,#649,.F.);
#1052=SPHERICAL_SURFACE('',#1133,1.);
#1053=SPHERICAL_SURFACE('',#1137,1.);
#1054=SPHERICAL_SURFACE('',#1144,1.);
#1055=SPHERICAL_SURFACE('',#1148,0.999999999999996);
#1056=SPHERICAL_SURFACE('',#1152,1.);
#1057=SPHERICAL_SURFACE('',#1157,1.);
#1058=SPHERICAL_SURFACE('',#1161,1.);
#1059=SPHERICAL_SURFACE('',#1168,1.);
#1060=SPHERICAL_SURFACE('',#1213,1.);
#1061=SPHERICAL_SURFACE('',#1227,1.);
#1062=SPHERICAL_SURFACE('',#1232,1.);
#1063=ADVANCED_FACE('',(#280),#1052,.T.);
#1064=ADVANCED_FACE('',(#281),#1053,.T.);
#1065=ADVANCED_FACE('',(#282),#250,.T.);
#1066=ADVANCED_FACE('',(#283),#251,.T.);
#1067=ADVANCED_FACE('',(#284),#1054,.T.);
#1068=ADVANCED_FACE('',(#285),#1055,.T.);
#1069=ADVANCED_FACE('',(#286),#1056,.T.);
#1070=ADVANCED_FACE('',(#287),#252,.T.);
#1071=ADVANCED_FACE('',(#288),#1057,.T.);
#1072=ADVANCED_FACE('',(#289),#1058,.T.);
#1073=ADVANCED_FACE('',(#290),#253,.T.);
#1074=ADVANCED_FACE('',(#291),#254,.T.);
#1075=ADVANCED_FACE('',(#292),#1059,.T.);
#1076=ADVANCED_FACE('',(#293),#255,.T.);
#1077=ADVANCED_FACE('',(#294),#256,.T.);
#1078=ADVANCED_FACE('',(#295),#257,.T.);
#1079=ADVANCED_FACE('',(#296),#258,.T.);
#1080=ADVANCED_FACE('',(#297),#259,.T.);
#1081=ADVANCED_FACE('',(#298),#260,.T.);
#1082=ADVANCED_FACE('',(#299),#261,.T.);
#1083=ADVANCED_FACE('',(#300),#262,.T.);
#1084=ADVANCED_FACE('',(#301),#263,.T.);
#1085=ADVANCED_FACE('',(#302),#264,.T.);
#1086=ADVANCED_FACE('',(#303),#20,.T.);
#1087=ADVANCED_FACE('',(#304),#21,.T.);
#1088=ADVANCED_FACE('',(#305),#22,.T.);
#1089=ADVANCED_FACE('',(#306),#23,.T.);
#1090=ADVANCED_FACE('',(#307),#24,.T.);
#1091=ADVANCED_FACE('',(#308),#25,.T.);
#1092=ADVANCED_FACE('',(#309),#265,.T.);
#1093=ADVANCED_FACE('',(#310),#266,.T.);
#1094=ADVANCED_FACE('',(#311),#26,.T.);
#1095=ADVANCED_FACE('',(#312),#267,.T.);
#1096=ADVANCED_FACE('',(#313),#268,.T.);
#1097=ADVANCED_FACE('',(#314),#269,.T.);
#1098=ADVANCED_FACE('',(#315),#27,.T.);
#1099=ADVANCED_FACE('',(#316),#270,.T.);
#1100=ADVANCED_FACE('',(#317),#1060,.T.);
#1101=ADVANCED_FACE('',(#318),#271,.T.);
#1102=ADVANCED_FACE('',(#319),#272,.T.);
#1103=ADVANCED_FACE('',(#320),#273,.T.);
#1104=ADVANCED_FACE('',(#321),#28,.T.);
#1105=ADVANCED_FACE('',(#322),#274,.T.);
#1106=ADVANCED_FACE('',(#323),#1061,.T.);
#1107=ADVANCED_FACE('',(#324),#275,.T.);
#1108=ADVANCED_FACE('',(#325),#1062,.T.);
#1109=ADVANCED_FACE('',(#326),#276,.T.);
#1110=ADVANCED_FACE('',(#327),#277,.T.);
#1111=ADVANCED_FACE('',(#328),#29,.T.);
#1112=ADVANCED_FACE('',(#329),#30,.T.);
#1113=ADVANCED_FACE('',(#330),#31,.T.);
#1114=ADVANCED_FACE('',(#331),#32,.T.);
#1115=ADVANCED_FACE('',(#332),#33,.T.);
#1116=ADVANCED_FACE('',(#333),#34,.T.);
#1117=ADVANCED_FACE('',(#334),#35,.T.);
#1118=ADVANCED_FACE('',(#335),#36,.T.);
#1119=ADVANCED_FACE('',(#336),#37,.T.);
#1120=ADVANCED_FACE('',(#337),#38,.T.);
#1121=ADVANCED_FACE('',(#338),#39,.T.);
#1122=ADVANCED_FACE('',(#339),#40,.T.);
#1123=ADVANCED_FACE('',(#340),#278,.T.);
#1124=ADVANCED_FACE('',(#341),#279,.T.);
#1125=ADVANCED_FACE('',(#342),#41,.T.);
#1126=ADVANCED_FACE('',(#343),#42,.T.);
#1127=ADVANCED_FACE('',(#344),#43,.T.);
#1128=ADVANCED_FACE('',(#345),#44,.T.);
#1129=ADVANCED_FACE('',(#346),#45,.T.);
#1130=ADVANCED_FACE('',(#347),#46,.T.);
#1131=CLOSED_SHELL('',(#1063,#1064,#1065,#1066,#1067,#1068,#1069,#1070,
#1071,#1072,#1073,#1074,#1075,#1076,#1077,#1078,#1079,#1080,#1081,#1082,
#1083,#1084,#1085,#1086,#1087,#1088,#1089,#1090,#1091,#1092,#1093,#1094,
#1095,#1096,#1097,#1098,#1099,#1100,#1101,#1102,#1103,#1104,#1105,#1106,
#1107,#1108,#1109,#1110,#1111,#1112,#1113,#1114,#1115,#1116,#1117,#1118,
#1119,#1120,#1121,#1122,#1123,#1124,#1125,#1126,#1127,#1128,#1129,#1130));
#1132=AXIS2_PLACEMENT_3D('',#1616,#1260,#1261);
#1133=AXIS2_PLACEMENT_3D('',#1617,#1262,#1263);
#1134=AXIS2_PLACEMENT_3D('',#1620,#1264,#1265);
#1135=AXIS2_PLACEMENT_3D('',#1622,#1266,#1267);
#1136=AXIS2_PLACEMENT_3D('',#1623,#1268,#1269);
#1137=AXIS2_PLACEMENT_3D('',#1624,#1270,#1271);
#1138=AXIS2_PLACEMENT_3D('',#1627,#1272,#1273);
#1139=AXIS2_PLACEMENT_3D('',#1629,#1274,#1275);
#1140=AXIS2_PLACEMENT_3D('',#1630,#1276,#1277);
#1141=AXIS2_PLACEMENT_3D('',#1631,#1278,#1279);
#1142=AXIS2_PLACEMENT_3D('',#1634,#1282,#1283);
#1143=AXIS2_PLACEMENT_3D('',#1637,#1284,#1285);
#1144=AXIS2_PLACEMENT_3D('',#1640,#1288,#1289);
#1145=AXIS2_PLACEMENT_3D('',#1643,#1290,#1291);
#1146=AXIS2_PLACEMENT_3D('',#1645,#1292,#1293);
#1147=AXIS2_PLACEMENT_3D('',#1646,#1294,#1295);
#1148=AXIS2_PLACEMENT_3D('',#1647,#1296,#1297);
#1149=AXIS2_PLACEMENT_3D('',#1650,#1298,#1299);
#1150=AXIS2_PLACEMENT_3D('',#1652,#1300,#1301);
#1151=AXIS2_PLACEMENT_3D('',#1653,#1302,#1303);
#1152=AXIS2_PLACEMENT_3D('',#1654,#1304,#1305);
#1153=AXIS2_PLACEMENT_3D('',#1657,#1306,#1307);
#1154=AXIS2_PLACEMENT_3D('',#1659,#1308,#1309);
#1155=AXIS2_PLACEMENT_3D('',#1660,#1310,#1311);
#1156=AXIS2_PLACEMENT_3D('',#1661,#1312,#1313);
#1157=AXIS2_PLACEMENT_3D('',#1664,#1316,#1317);
#1158=AXIS2_PLACEMENT_3D('',#1667,#1318,#1319);
#1159=AXIS2_PLACEMENT_3D('',#1669,#1320,#1321);
#1160=AXIS2_PLACEMENT_3D('',#1670,#1322,#1323);
#1161=AXIS2_PLACEMENT_3D('',#1671,#1324,#1325);
#1162=AXIS2_PLACEMENT_3D('',#1674,#1326,#1327);
#1163=AXIS2_PLACEMENT_3D('',#1676,#1328,#1329);
#1164=AXIS2_PLACEMENT_3D('',#1677,#1330,#1331);
#1165=AXIS2_PLACEMENT_3D('',#1678,#1332,#1333);
#1166=AXIS2_PLACEMENT_3D('',#1681,#1336,#1337);
#1167=AXIS2_PLACEMENT_3D('',#1697,#1340,#1341);
#1168=AXIS2_PLACEMENT_3D('',#1698,#1342,#1343);
#1169=AXIS2_PLACEMENT_3D('',#1701,#1344,#1345);
#1170=AXIS2_PLACEMENT_3D('',#1703,#1346,#1347);
#1171=AXIS2_PLACEMENT_3D('',#1704,#1348,#1349);
#1172=AXIS2_PLACEMENT_3D('',#1705,#1350,#1351);
#1173=AXIS2_PLACEMENT_3D('',#1708,#1354,#1355);
#1174=AXIS2_PLACEMENT_3D('',#1711,#1358,#1359);
#1175=AXIS2_PLACEMENT_3D('',#1714,#1362,#1363);
#1176=AXIS2_PLACEMENT_3D('',#1717,#1366,#1367);
#1177=AXIS2_PLACEMENT_3D('',#1720,#1370,#1371);
#1178=AXIS2_PLACEMENT_3D('',#1723,#1372,#1373);
#1179=AXIS2_PLACEMENT_3D('',#1726,#1376,#1377);
#1180=AXIS2_PLACEMENT_3D('',#1729,#1378,#1379);
#1181=AXIS2_PLACEMENT_3D('',#1743,#1382,#1383);
#1182=AXIS2_PLACEMENT_3D('',#1750,#1388,#1389);
#1183=AXIS2_PLACEMENT_3D('',#1753,#1390,#1391);
#1184=AXIS2_PLACEMENT_3D('',#1756,#1394,#1395);
#1185=AXIS2_PLACEMENT_3D('',#1759,#1396,#1397);
#1186=AXIS2_PLACEMENT_3D('',#1773,#1400,#1401);
#1187=AXIS2_PLACEMENT_3D('',#1775,#1403,#1404);
#1188=AXIS2_PLACEMENT_3D('',#1780,#1407,#1408);
#1189=AXIS2_PLACEMENT_3D('',#1781,#1409,#1410);
#1190=AXIS2_PLACEMENT_3D('',#1783,#1412,#1413);
#1191=AXIS2_PLACEMENT_3D('',#1785,#1415,#1416);
#1192=AXIS2_PLACEMENT_3D('',#1786,#1417,#1418);
#1193=AXIS2_PLACEMENT_3D('',#1787,#1419,#1420);
#1194=AXIS2_PLACEMENT_3D('',#1790,#1421,#1422);
#1195=AXIS2_PLACEMENT_3D('',#1794,#1424,#1425);
#1196=AXIS2_PLACEMENT_3D('',#1796,#1426,#1427);
#1197=AXIS2_PLACEMENT_3D('',#1799,#1429,#1430);
#1198=AXIS2_PLACEMENT_3D('',#1800,#1431,#1432);
#1199=AXIS2_PLACEMENT_3D('',#1804,#1434,#1435);
#1200=AXIS2_PLACEMENT_3D('',#1806,#1437,#1438);
#1201=AXIS2_PLACEMENT_3D('',#1811,#1442,#1443);
#1202=AXIS2_PLACEMENT_3D('',#1814,#1445,#1446);
#1203=AXIS2_PLACEMENT_3D('',#1815,#1447,#1448);
#1204=AXIS2_PLACEMENT_3D('',#1818,#1449,#1450);
#1205=AXIS2_PLACEMENT_3D('',#1822,#1452,#1453);
#1206=AXIS2_PLACEMENT_3D('',#1824,#1454,#1455);
#1207=AXIS2_PLACEMENT_3D('',#1827,#1457,#1458);
#1208=AXIS2_PLACEMENT_3D('',#1828,#1459,#1460);
#1209=AXIS2_PLACEMENT_3D('',#1832,#1462,#1463);
#1210=AXIS2_PLACEMENT_3D('',#1834,#1465,#1466);
#1211=AXIS2_PLACEMENT_3D('',#1839,#1470,#1471);
#1212=AXIS2_PLACEMENT_3D('',#1842,#1473,#1474);
#1213=AXIS2_PLACEMENT_3D('',#1843,#1475,#1476);
#1214=AXIS2_PLACEMENT_3D('',#1845,#1477,#1478);
#1215=AXIS2_PLACEMENT_3D('',#1846,#1479,#1480);
#1216=AXIS2_PLACEMENT_3D('',#1847,#1481,#1482);
#1217=AXIS2_PLACEMENT_3D('',#1849,#1484,#1485);
#1218=AXIS2_PLACEMENT_3D('',#1852,#1488,#1489);
#1219=AXIS2_PLACEMENT_3D('',#1854,#1490,#1491);
#1220=AXIS2_PLACEMENT_3D('',#1857,#1493,#1494);
#1221=AXIS2_PLACEMENT_3D('',#1858,#1495,#1496);
#1222=AXIS2_PLACEMENT_3D('',#1860,#1497,#1498);
#1223=AXIS2_PLACEMENT_3D('',#1862,#1499,#1500);
#1224=AXIS2_PLACEMENT_3D('',#1873,#1506,#1507);
#1225=AXIS2_PLACEMENT_3D('',#1874,#1508,#1509);
#1226=AXIS2_PLACEMENT_3D('',#1876,#1510,#1511);
#1227=AXIS2_PLACEMENT_3D('',#1878,#1513,#1514);
#1228=AXIS2_PLACEMENT_3D('',#1880,#1515,#1516);
#1229=AXIS2_PLACEMENT_3D('',#1881,#1517,#1518);
#1230=AXIS2_PLACEMENT_3D('',#1882,#1519,#1520);
#1231=AXIS2_PLACEMENT_3D('',#1884,#1521,#1522);
#1232=AXIS2_PLACEMENT_3D('',#1886,#1524,#1525);
#1233=AXIS2_PLACEMENT_3D('',#1888,#1526,#1527);
#1234=AXIS2_PLACEMENT_3D('',#1889,#1528,#1529);
#1235=AXIS2_PLACEMENT_3D('',#1890,#1530,#1531);
#1236=AXIS2_PLACEMENT_3D('',#1892,#1532,#1533);
#1237=AXIS2_PLACEMENT_3D('',#1894,#1535,#1536);
#1238=AXIS2_PLACEMENT_3D('',#1897,#1539,#1540);
#1239=AXIS2_PLACEMENT_3D('',#1907,#1546,#1547);
#1240=AXIS2_PLACEMENT_3D('',#1918,#1554,#1555);
#1241=AXIS2_PLACEMENT_3D('',#1919,#1556,#1557);
#1242=AXIS2_PLACEMENT_3D('',#1921,#1559,#1560);
#1243=AXIS2_PLACEMENT_3D('',#1925,#1563,#1564);
#1244=AXIS2_PLACEMENT_3D('',#1929,#1567,#1568);
#1245=AXIS2_PLACEMENT_3D('',#1933,#1571,#1572);
#1246=AXIS2_PLACEMENT_3D('',#1935,#1574,#1575);
#1247=AXIS2_PLACEMENT_3D('',#1936,#1576,#1577);
#1248=AXIS2_PLACEMENT_3D('',#1940,#1580,#1581);
#1249=AXIS2_PLACEMENT_3D('',#1942,#1583,#1584);
#1250=AXIS2_PLACEMENT_3D('',#1943,#1585,#1586);
#1251=AXIS2_PLACEMENT_3D('',#1945,#1587,#1588);
#1252=AXIS2_PLACEMENT_3D('',#1947,#1590,#1591);
#1253=AXIS2_PLACEMENT_3D('',#1949,#1592,#1593);
#1254=AXIS2_PLACEMENT_3D('',#1951,#1595,#1596);
#1255=AXIS2_PLACEMENT_3D('',#1955,#1599,#1600);
#1256=AXIS2_PLACEMENT_3D('',#1959,#1603,#1604);
#1257=AXIS2_PLACEMENT_3D('',#1963,#1607,#1608);
#1258=AXIS2_PLACEMENT_3D('',#1967,#1611,#1612);
#1259=AXIS2_PLACEMENT_3D('',#1969,#1614,#1615);
#1260=DIRECTION('axis',(0.,0.,1.));
#1261=DIRECTION('refdir',(1.,0.,0.));
#1262=DIRECTION('center_axis',(0.408248290463863,-0.408248290463863,-0.816496580927726));
#1263=DIRECTION('ref_axis',(-0.577350269189626,0.577350269189626,-0.577350269189626));
#1264=DIRECTION('center_axis',(-1.,0.,0.));
#1265=DIRECTION('ref_axis',(0.,0.,-1.));
#1266=DIRECTION('center_axis',(0.,1.,0.));
#1267=DIRECTION('ref_axis',(-1.,0.,0.));
#1268=DIRECTION('center_axis',(0.,0.,-1.));
#1269=DIRECTION('ref_axis',(0.,1.,0.));
#1270=DIRECTION('center_axis',(0.408248290463863,0.408248290463862,-0.816496580927726));
#1271=DIRECTION('ref_axis',(-0.577350269189626,-0.577350269189626,-0.577350269189625));
#1272=DIRECTION('center_axis',(0.,0.,-1.));
#1273=DIRECTION('ref_axis',(-1.,0.,0.));
#1274=DIRECTION('center_axis',(0.,-1.,0.));
#1275=DIRECTION('ref_axis',(0.,0.,-1.));
#1276=DIRECTION('center_axis',(-1.,0.,0.));
#1277=DIRECTION('ref_axis',(0.,-1.,0.));
#1278=DIRECTION('center_axis',(0.,1.,0.));
#1279=DIRECTION('ref_axis',(-0.707106781186548,0.,-0.707106781186548));
#1280=DIRECTION('',(0.,-1.,0.));
#1281=DIRECTION('',(0.,1.,0.));
#1282=DIRECTION('center_axis',(1.,0.,0.));
#1283=DIRECTION('ref_axis',(0.,-0.707106781186547,-0.707106781186548));
#1284=DIRECTION('center_axis',(1.,0.,0.));
#1285=DIRECTION('ref_axis',(0.,-0.707106781186547,-0.707106781186548));
#1286=DIRECTION('',(-1.,0.,0.));
#1287=DIRECTION('',(1.,0.,0.));
#1288=DIRECTION('center_axis',(0.408248290463863,-0.816496580927726,-0.408248290463863));
#1289=DIRECTION('ref_axis',(-0.577350269189626,-0.577350269189626,0.577350269189626));
#1290=DIRECTION('center_axis',(-1.,0.,0.));
#1291=DIRECTION('ref_axis',(0.,0.,1.));
#1292=DIRECTION('center_axis',(0.,-1.,0.));
#1293=DIRECTION('ref_axis',(-1.,0.,0.));
#1294=DIRECTION('center_axis',(0.,0.,1.));
#1295=DIRECTION('ref_axis',(0.,-1.,0.));
#1296=DIRECTION('center_axis',(-0.816496580927728,-0.408248290463861,-0.408248290463861));
#1297=DIRECTION('ref_axis',(0.577350269189622,-0.577350269189628,-0.577350269189628));
#1298=DIRECTION('center_axis',(1.,-4.44089209850063E-15,0.));
#1299=DIRECTION('ref_axis',(0.,0.,-1.));
#1300=DIRECTION('center_axis',(0.,-1.,0.));
#1301=DIRECTION('ref_axis',(1.,0.,0.));
#1302=DIRECTION('center_axis',(0.,0.,-1.));
#1303=DIRECTION('ref_axis',(0.,-1.,0.));
#1304=DIRECTION('center_axis',(-0.408248290463863,-0.816496580927726,0.408248290463863));
#1305=DIRECTION('ref_axis',(-0.577350269189626,0.577350269189626,0.577350269189626));
#1306=DIRECTION('center_axis',(0.,0.,1.));
#1307=DIRECTION('ref_axis',(-1.,0.,0.));
#1308=DIRECTION('center_axis',(0.,1.,0.));
#1309=DIRECTION('ref_axis',(0.,0.,1.));
#1310=DIRECTION('center_axis',(-1.,0.,0.));
#1311=DIRECTION('ref_axis',(0.,1.,0.));
#1312=DIRECTION('center_axis',(0.,1.,0.));
#1313=DIRECTION('ref_axis',(-0.707106781186548,0.,0.707106781186548));
#1314=DIRECTION('',(0.,-1.,0.));
#1315=DIRECTION('',(0.,1.,0.));
#1316=DIRECTION('center_axis',(-0.408248290463863,-0.816496580927726,-0.408248290463863));
#1317=DIRECTION('ref_axis',(0.577350269189626,-0.577350269189626,0.577350269189626));
#1318=DIRECTION('center_axis',(0.,0.,1.));
#1319=DIRECTION('ref_axis',(1.,0.,0.));
#1320=DIRECTION('center_axis',(0.,-1.,0.));
#1321=DIRECTION('ref_axis',(0.,0.,1.));
#1322=DIRECTION('center_axis',(1.,0.,0.));
#1323=DIRECTION('ref_axis',(0.,-1.,0.));
#1324=DIRECTION('center_axis',(-0.816496580927728,0.408248290463862,-0.408248290463861));
#1325=DIRECTION('ref_axis',(0.577350269189623,0.577350269189627,-0.577350269189627));
#1326=DIRECTION('center_axis',(0.,0.,-1.));
#1327=DIRECTION('ref_axis',(1.,0.,0.));
#1328=DIRECTION('center_axis',(0.,1.,0.));
#1329=DIRECTION('ref_axis',(0.,0.,-1.));
#1330=DIRECTION('center_axis',(1.,0.,4.44089209850063E-15));
#1331=DIRECTION('ref_axis',(0.,1.,0.));
#1332=DIRECTION('center_axis',(0.,1.,0.));
#1333=DIRECTION('ref_axis',(0.707106781186546,0.,-0.707106781186549));
#1334=DIRECTION('',(0.,-1.,0.));
#1335=DIRECTION('',(0.,1.,0.));
#1336=DIRECTION('center_axis',(-1.,0.,0.));
#1337=DIRECTION('ref_axis',(0.,0.707106781186547,-0.707106781186548));
#1338=DIRECTION('',(1.,0.,0.));
#1339=DIRECTION('',(-1.,0.,0.));
#1340=DIRECTION('center_axis',(-1.,0.,0.));
#1341=DIRECTION('ref_axis',(0.,0.707106781186547,-0.707106781186548));
#1342=DIRECTION('center_axis',(0.408248290463863,-0.816496580927726,0.408248290463863));
#1343=DIRECTION('ref_axis',(0.577350269189626,0.577350269189626,0.577350269189626));
#1344=DIRECTION('center_axis',(1.,0.,0.));
#1345=DIRECTION('ref_axis',(0.,0.,1.));
#1346=DIRECTION('center_axis',(0.,1.,0.));
#1347=DIRECTION('ref_axis',(1.,0.,0.));
#1348=DIRECTION('center_axis',(0.,0.,1.));
#1349=DIRECTION('ref_axis',(0.,1.,0.));
#1350=DIRECTION('center_axis',(0.,1.,0.));
#1351=DIRECTION('ref_axis',(0.707106781186549,0.,0.707106781186546));
#1352=DIRECTION('',(0.,-1.,0.));
#1353=DIRECTION('',(0.,1.,0.));
#1354=DIRECTION('center_axis',(0.,0.,-1.));
#1355=DIRECTION('ref_axis',(0.707106781186549,0.707106781186546,0.));
#1356=DIRECTION('',(0.,0.,1.));
#1357=DIRECTION('',(0.,0.,-1.));
#1358=DIRECTION('center_axis',(1.,0.,0.));
#1359=DIRECTION('ref_axis',(0.,0.707106781186547,0.707106781186548));
#1360=DIRECTION('',(-1.,0.,0.));
#1361=DIRECTION('',(1.,0.,0.));
#1362=DIRECTION('center_axis',(-1.,0.,0.));
#1363=DIRECTION('ref_axis',(0.,-0.707106781186547,0.707106781186548));
#1364=DIRECTION('',(1.,0.,0.));
#1365=DIRECTION('',(-1.,0.,0.));
#1366=DIRECTION('center_axis',(0.,0.,1.));
#1367=DIRECTION('ref_axis',(0.707106781186549,-0.707106781186546,0.));
#1368=DIRECTION('',(0.,0.,-1.));
#1369=DIRECTION('',(0.,0.,1.));
#1370=DIRECTION('center_axis',(0.,0.,1.));
#1371=DIRECTION('ref_axis',(-0.707106781186548,0.707106781186547,0.));
#1372=DIRECTION('center_axis',(0.,0.,1.));
#1373=DIRECTION('ref_axis',(-0.707106781186548,0.707106781186547,0.));
#1374=DIRECTION('',(0.,0.,1.));
#1375=DIRECTION('',(0.,0.,-1.));
#1376=DIRECTION('center_axis',(1.,0.,0.));
#1377=DIRECTION('ref_axis',(0.,-0.707106781186547,-0.707106781186548));
#1378=DIRECTION('center_axis',(-1.,0.,0.));
#1379=DIRECTION('ref_axis',(0.,-0.707106781186547,-0.707106781186548));
#1380=DIRECTION('',(1.,0.,0.));
#1381=DIRECTION('',(-1.,0.,0.));
#1382=DIRECTION('center_axis',(0.,0.,-1.));
#1383=DIRECTION('ref_axis',(-0.707106781186548,-0.707106781186547,0.));
#1384=DIRECTION('',(0.,0.,1.));
#1385=DIRECTION('',(0.,0.,-1.));
#1386=DIRECTION('',(0.,0.,1.));
#1387=DIRECTION('',(0.,0.,-1.));
#1388=DIRECTION('center_axis',(0.,0.,1.));
#1389=DIRECTION('ref_axis',(-0.707106781186548,0.707106781186547,0.));
#1390=DIRECTION('center_axis',(0.,0.,-1.));
#1391=DIRECTION('ref_axis',(-0.707106781186548,0.707106781186547,0.));
#1392=DIRECTION('',(0.,0.,-1.));
#1393=DIRECTION('',(0.,0.,1.));
#1394=DIRECTION('center_axis',(-1.,0.,0.));
#1395=DIRECTION('ref_axis',(0.,0.707106781186547,-0.707106781186548));
#1396=DIRECTION('center_axis',(1.,0.,0.));
#1397=DIRECTION('ref_axis',(0.,0.707106781186547,-0.707106781186548));
#1398=DIRECTION('',(-1.,0.,0.));
#1399=DIRECTION('',(1.,0.,0.));
#1400=DIRECTION('center_axis',(0.,0.,-1.));
#1401=DIRECTION('ref_axis',(-1.,0.,0.));
#1402=DIRECTION('',(0.,-1.,0.));
#1403=DIRECTION('center_axis',(0.,-1.,0.));
#1404=DIRECTION('ref_axis',(0.,0.,-1.));
#1405=DIRECTION('',(0.,0.,-1.));
#1406=DIRECTION('',(-1.,0.,0.));
#1407=DIRECTION('center_axis',(0.,1.,0.));
#1408=DIRECTION('ref_axis',(0.707106781186546,0.,0.707106781186549));
#1409=DIRECTION('center_axis',(-1.,0.,0.));
#1410=DIRECTION('ref_axis',(0.,0.,1.));
#1411=DIRECTION('',(0.,1.,0.));
#1412=DIRECTION('center_axis',(0.,0.,-1.));
#1413=DIRECTION('ref_axis',(-1.,0.,0.));
#1414=DIRECTION('',(0.,1.,0.));
#1415=DIRECTION('center_axis',(1.,0.,0.));
#1416=DIRECTION('ref_axis',(0.,0.,-1.));
#1417=DIRECTION('center_axis',(0.,0.,1.));
#1418=DIRECTION('ref_axis',(1.,0.,0.));
#1419=DIRECTION('center_axis',(0.,1.,0.));
#1420=DIRECTION('ref_axis',(-1.,0.,0.));
#1421=DIRECTION('center_axis',(0.,1.,0.));
#1422=DIRECTION('ref_axis',(-1.,0.,0.));
#1423=DIRECTION('',(0.,1.,0.));
#1424=DIRECTION('center_axis',(0.,-1.,0.));
#1425=DIRECTION('ref_axis',(-1.,0.,0.));
#1426=DIRECTION('center_axis',(0.,-0.707106781186548,-0.707106781186547));
#1427=DIRECTION('ref_axis',(0.,-0.707106781186547,0.707106781186548));
#1428=DIRECTION('',(0.,-1.,0.));
#1429=DIRECTION('center_axis',(0.,0.707106781186548,-0.707106781186547));
#1430=DIRECTION('ref_axis',(0.,0.707106781186547,0.707106781186548));
#1431=DIRECTION('center_axis',(0.,0.,1.));
#1432=DIRECTION('ref_axis',(0.707106781186547,-0.707106781186548,0.));
#1433=DIRECTION('',(0.,0.,1.));
#1434=DIRECTION('center_axis',(0.,1.11022302462516E-15,1.));
#1435=DIRECTION('ref_axis',(1.,0.,0.));
#1436=DIRECTION('',(0.,0.,-1.));
#1437=DIRECTION('center_axis',(1.,0.,0.));
#1438=DIRECTION('ref_axis',(0.,0.,-1.));
#1439=DIRECTION('',(0.,0.,-1.));
#1440=DIRECTION('',(0.,1.,0.));
#1441=DIRECTION('',(0.,1.,0.));
#1442=DIRECTION('center_axis',(0.,0.,-1.));
#1443=DIRECTION('ref_axis',(0.707106781186547,0.707106781186548,0.));
#1444=DIRECTION('',(0.,0.,1.));
#1445=DIRECTION('center_axis',(1.11022302462516E-15,0.,1.));
#1446=DIRECTION('ref_axis',(0.,1.,0.));
#1447=DIRECTION('center_axis',(0.,-1.,0.));
#1448=DIRECTION('ref_axis',(1.,0.,0.));
#1449=DIRECTION('center_axis',(0.,-1.,0.));
#1450=DIRECTION('ref_axis',(1.,0.,0.));
#1451=DIRECTION('',(0.,-1.,0.));
#1452=DIRECTION('center_axis',(0.,1.,0.));
#1453=DIRECTION('ref_axis',(1.,0.,0.));
#1454=DIRECTION('center_axis',(0.,0.707106781186548,-0.707106781186547));
#1455=DIRECTION('ref_axis',(0.,0.707106781186547,0.707106781186548));
#1456=DIRECTION('',(0.,1.,0.));
#1457=DIRECTION('center_axis',(0.,-0.707106781186548,-0.707106781186547));
#1458=DIRECTION('ref_axis',(0.,-0.707106781186547,0.707106781186548));
#1459=DIRECTION('center_axis',(0.,0.,1.));
#1460=DIRECTION('ref_axis',(-0.70710678118655,0.707106781186545,0.));
#1461=DIRECTION('',(0.,0.,1.));
#1462=DIRECTION('center_axis',(0.,0.,1.));
#1463=DIRECTION('ref_axis',(-1.,0.,0.));
#1464=DIRECTION('',(0.,0.,-1.));
#1465=DIRECTION('center_axis',(-1.,0.,0.));
#1466=DIRECTION('ref_axis',(0.,0.,1.));
#1467=DIRECTION('',(0.,0.,-1.));
#1468=DIRECTION('',(0.,1.,0.));
#1469=DIRECTION('',(0.,-1.,0.));
#1470=DIRECTION('center_axis',(0.,0.,-1.));
#1471=DIRECTION('ref_axis',(-0.70710678118655,-0.707106781186545,0.));
#1472=DIRECTION('',(0.,0.,1.));
#1473=DIRECTION('center_axis',(-0.707106781186547,0.,-0.707106781186548));
#1474=DIRECTION('ref_axis',(-0.707106781186548,0.,0.707106781186547));
#1475=DIRECTION('center_axis',(-0.408248290463863,-0.816496580927726,-0.408248290463863));
#1476=DIRECTION('ref_axis',(0.577350269189626,-0.577350269189625,0.577350269189627));
#1477=DIRECTION('center_axis',(0.,-1.,0.));
#1478=DIRECTION('ref_axis',(0.,0.,1.));
#1479=DIRECTION('center_axis',(1.,0.,0.));
#1480=DIRECTION('ref_axis',(0.,-1.,0.));
#1481=DIRECTION('center_axis',(0.,1.,0.));
#1482=DIRECTION('ref_axis',(0.707106781186546,0.,0.707106781186549));
#1483=DIRECTION('',(0.,-1.,0.));
#1484=DIRECTION('center_axis',(-1.,0.,0.));
#1485=DIRECTION('ref_axis',(0.,-0.707106781186548,0.707106781186548));
#1486=DIRECTION('',(1.,0.,0.));
#1487=DIRECTION('',(-1.,0.,0.));
#1488=DIRECTION('center_axis',(0.,-1.,0.));
#1489=DIRECTION('ref_axis',(-0.707106781186548,0.,-0.707106781186547));
#1490=DIRECTION('center_axis',(0.,1.,0.));
#1491=DIRECTION('ref_axis',(-0.707106781186548,0.,-0.707106781186547));
#1492=DIRECTION('',(0.,1.,0.));
#1493=DIRECTION('center_axis',(0.,-1.,0.));
#1494=DIRECTION('ref_axis',(-0.707106781186548,0.,-0.707106781186547));
#1495=DIRECTION('center_axis',(0.,-1.,0.));
#1496=DIRECTION('ref_axis',(0.,0.,-1.));
#1497=DIRECTION('center_axis',(0.,1.,0.));
#1498=DIRECTION('ref_axis',(0.707106781186548,0.,-0.707106781186547));
#1499=DIRECTION('center_axis',(0.,1.,0.));
#1500=DIRECTION('ref_axis',(0.707106781186546,0.,0.707106781186549));
#1501=DIRECTION('',(-1.,0.,0.));
#1502=DIRECTION('',(0.,0.,1.));
#1503=DIRECTION('',(1.,0.,0.));
#1504=DIRECTION('',(0.,0.,-1.));
#1505=DIRECTION('',(-1.,0.,0.));
#1506=DIRECTION('center_axis',(0.,1.,0.));
#1507=DIRECTION('ref_axis',(-0.707106781186546,0.,0.707106781186549));
#1508=DIRECTION('center_axis',(0.,1.,0.));
#1509=DIRECTION('ref_axis',(0.707106781186548,0.,-0.707106781186547));
#1510=DIRECTION('center_axis',(0.,-1.,0.));
#1511=DIRECTION('ref_axis',(0.707106781186548,0.,-0.707106781186547));
#1512=DIRECTION('',(0.,-1.,0.));
#1513=DIRECTION('center_axis',(0.408248290463863,-0.816496580927726,0.408248290463863));
#1514=DIRECTION('ref_axis',(0.577350269189626,0.577350269189625,0.577350269189627));
#1515=DIRECTION('center_axis',(1.,0.,0.));
#1516=DIRECTION('ref_axis',(0.,0.,1.));
#1517=DIRECTION('center_axis',(0.,1.,0.));
#1518=DIRECTION('ref_axis',(1.,0.,0.));
#1519=DIRECTION('center_axis',(0.,1.,0.));
#1520=DIRECTION('ref_axis',(0.707106781186546,0.,0.707106781186549));
#1521=DIRECTION('center_axis',(0.,-1.,0.));
#1522=DIRECTION('ref_axis',(0.707106781186546,0.,0.707106781186549));
#1523=DIRECTION('',(0.,-1.,0.));
#1524=DIRECTION('center_axis',(-0.408248290463863,-0.816496580927725,0.408248290463866));
#1525=DIRECTION('ref_axis',(-0.577350269189623,0.577350269189627,0.577350269189627));
#1526=DIRECTION('center_axis',(0.,1.,0.));
#1527=DIRECTION('ref_axis',(0.,0.,1.));
#1528=DIRECTION('center_axis',(-1.,0.,-4.44089209850063E-15));
#1529=DIRECTION('ref_axis',(0.,1.,0.));
#1530=DIRECTION('center_axis',(0.,1.,0.));
#1531=DIRECTION('ref_axis',(-0.707106781186547,0.,0.707106781186548));
#1532=DIRECTION('center_axis',(0.,-1.,0.));
#1533=DIRECTION('ref_axis',(-0.707106781186547,0.,0.707106781186548));
#1534=DIRECTION('',(0.,1.,0.));
#1535=DIRECTION('center_axis',(1.,0.,0.));
#1536=DIRECTION('ref_axis',(0.,0.707106781186548,0.707106781186548));
#1537=DIRECTION('',(-1.,0.,0.));
#1538=DIRECTION('',(1.,0.,0.));
#1539=DIRECTION('center_axis',(0.,0.,1.));
#1540=DIRECTION('ref_axis',(1.,0.,0.));
#1541=DIRECTION('',(1.,0.,0.));
#1542=DIRECTION('',(1.,0.,0.));
#1543=DIRECTION('',(0.,1.,0.));
#1544=DIRECTION('',(1.,0.,0.));
#1545=DIRECTION('',(0.,1.,0.));
#1546=DIRECTION('center_axis',(0.,1.,0.));
#1547=DIRECTION('ref_axis',(0.,0.,1.));
#1548=DIRECTION('',(0.,0.,-1.));
#1549=DIRECTION('',(1.,0.,0.));
#1550=DIRECTION('',(-1.,0.,0.));
#1551=DIRECTION('',(0.,0.,-1.));
#1552=DIRECTION('',(-1.,0.,0.));
#1553=DIRECTION('',(0.,0.,1.));
#1554=DIRECTION('center_axis',(0.,0.,1.));
#1555=DIRECTION('ref_axis',(1.,0.,0.));
#1556=DIRECTION('center_axis',(-1.,0.,0.));
#1557=DIRECTION('ref_axis',(0.,0.,1.));
#1558=DIRECTION('',(0.,1.,0.));
#1559=DIRECTION('center_axis',(0.,0.,-1.));
#1560=DIRECTION('ref_axis',(-1.,0.,0.));
#1561=DIRECTION('',(-1.,0.,0.));
#1562=DIRECTION('',(0.,1.,0.));
#1563=DIRECTION('center_axis',(1.,0.,0.));
#1564=DIRECTION('ref_axis',(0.,0.,-1.));
#1565=DIRECTION('',(0.,0.,-1.));
#1566=DIRECTION('',(0.,1.,0.));
#1567=DIRECTION('center_axis',(0.,0.,-1.));
#1568=DIRECTION('ref_axis',(-1.,0.,0.));
#1569=DIRECTION('',(-1.,0.,0.));
#1570=DIRECTION('',(0.,1.,0.));
#1571=DIRECTION('center_axis',(-1.,0.,0.));
#1572=DIRECTION('ref_axis',(0.,0.,1.));
#1573=DIRECTION('',(0.,0.,1.));
#1574=DIRECTION('center_axis',(0.,1.,0.));
#1575=DIRECTION('ref_axis',(0.,0.,1.));
#1576=DIRECTION('center_axis',(0.,0.,1.));
#1577=DIRECTION('ref_axis',(1.,0.,0.));
#1578=DIRECTION('',(0.,-1.,0.));
#1579=DIRECTION('',(1.,0.,0.));
#1580=DIRECTION('center_axis',(1.,0.,0.));
#1581=DIRECTION('ref_axis',(0.,0.,-1.));
#1582=DIRECTION('',(0.,0.,-1.));
#1583=DIRECTION('center_axis',(0.,1.,0.));
#1584=DIRECTION('ref_axis',(0.,0.,1.));
#1585=DIRECTION('center_axis',(0.,1.,0.));
#1586=DIRECTION('ref_axis',(0.707106781186546,0.,0.707106781186549));
#1587=DIRECTION('center_axis',(0.,-1.,0.));
#1588=DIRECTION('ref_axis',(0.707106781186546,0.,0.707106781186549));
#1589=DIRECTION('',(0.,-1.,0.));
#1590=DIRECTION('center_axis',(0.,1.,0.));
#1591=DIRECTION('ref_axis',(-0.707106781186546,0.,0.707106781186549));
#1592=DIRECTION('center_axis',(0.,-1.,0.));
#1593=DIRECTION('ref_axis',(-0.707106781186546,0.,0.707106781186549));
#1594=DIRECTION('',(0.,1.,0.));
#1595=DIRECTION('center_axis',(0.,0.,1.));
#1596=DIRECTION('ref_axis',(1.,0.,0.));
#1597=DIRECTION('',(0.,1.,0.));
#1598=DIRECTION('',(1.,0.,0.));
#1599=DIRECTION('center_axis',(0.,0.,1.));
#1600=DIRECTION('ref_axis',(1.,0.,0.));
#1601=DIRECTION('',(1.,0.,0.));
#1602=DIRECTION('',(0.,1.,0.));
#1603=DIRECTION('center_axis',(1.,0.,0.));
#1604=DIRECTION('ref_axis',(0.,0.,-1.));
#1605=DIRECTION('',(0.,0.,-1.));
#1606=DIRECTION('',(0.,1.,0.));
#1607=DIRECTION('center_axis',(0.,0.,-1.));
#1608=DIRECTION('ref_axis',(-1.,0.,0.));
#1609=DIRECTION('',(-1.,0.,0.));
#1610=DIRECTION('',(0.,1.,0.));
#1611=DIRECTION('center_axis',(-1.,0.,0.));
#1612=DIRECTION('ref_axis',(0.,0.,1.));
#1613=DIRECTION('',(0.,0.,1.));
#1614=DIRECTION('center_axis',(0.,1.,0.));
#1615=DIRECTION('ref_axis',(0.,0.,1.));
#1616=CARTESIAN_POINT('',(0.,0.,0.));
#1617=CARTESIAN_POINT('Origin',(19.8542942774066,1.5,6.97943597013327));
#1618=CARTESIAN_POINT('',(19.8542942774066,1.5,5.97943597013327));
#1619=CARTESIAN_POINT('',(19.8542942774066,2.5,6.97943597013327));
#1620=CARTESIAN_POINT('Origin',(19.8542942774066,1.5,6.97943597013327));
#1621=CARTESIAN_POINT('',(18.8542942774066,1.5,6.97943597013327));
#1622=CARTESIAN_POINT('Origin',(19.8542942774066,1.5,6.97943597013327));
#1623=CARTESIAN_POINT('Origin',(19.8542942774066,1.5,6.97943597013327));
#1624=CARTESIAN_POINT('Origin',(19.8542942774066,-1.5,6.97943597013327));
#1625=CARTESIAN_POINT('',(18.8542942774066,-1.5,6.97943597013327));
#1626=CARTESIAN_POINT('',(19.8542942774066,-2.5,6.97943597013327));
#1627=CARTESIAN_POINT('Origin',(19.8542942774066,-1.5,6.97943597013327));
#1628=CARTESIAN_POINT('',(19.8542942774066,-1.5,5.97943597013327));
#1629=CARTESIAN_POINT('Origin',(19.8542942774066,-1.5,6.97943597013327));
#1630=CARTESIAN_POINT('Origin',(19.8542942774066,-1.5,6.97943597013327));
#1631=CARTESIAN_POINT('Origin',(19.8542942774066,0.,6.97943597013327));
#1632=CARTESIAN_POINT('',(19.8542942774066,0.,5.97943597013327));
#1633=CARTESIAN_POINT('',(18.8542942774066,0.,6.97943597013327));
#1634=CARTESIAN_POINT('Origin',(22.1542942774066,-1.5,6.97943597013327));
#1635=CARTESIAN_POINT('',(20.1542942774066,-1.5,5.97943597013327));
#1636=CARTESIAN_POINT('',(20.1542942774066,-2.5,6.97943597013327));
#1637=CARTESIAN_POINT('Origin',(20.1542942774066,-1.5,6.97943597013327));
#1638=CARTESIAN_POINT('',(22.1542942774066,-2.5,6.97943597013327));
#1639=CARTESIAN_POINT('',(22.1542942774066,-1.5,5.97943597013327));
#1640=CARTESIAN_POINT('Origin',(19.8542942774066,-1.5,11.5794359701333));
#1641=CARTESIAN_POINT('',(19.8542942774066,-1.5,12.5794359701333));
#1642=CARTESIAN_POINT('',(19.8542942774066,-2.5,11.5794359701333));
#1643=CARTESIAN_POINT('Origin',(19.8542942774066,-1.5,11.5794359701333));
#1644=CARTESIAN_POINT('',(18.8542942774066,-1.5,11.5794359701333));
#1645=CARTESIAN_POINT('Origin',(19.8542942774066,-1.5,11.5794359701333));
#1646=CARTESIAN_POINT('Origin',(19.8542942774066,-1.5,11.5794359701333));
#1647=CARTESIAN_POINT('Origin',(28.4542942774066,-1.5,6.97943597013327));
#1648=CARTESIAN_POINT('',(28.4542942774066,-1.5,5.97943597013327));
#1649=CARTESIAN_POINT('',(28.4542942774066,-2.5,6.97943597013327));
#1650=CARTESIAN_POINT('Origin',(28.4542942774066,-1.5,6.97943597013327));
#1651=CARTESIAN_POINT('',(29.4542942774066,-1.5,6.97943597013327));
#1652=CARTESIAN_POINT('Origin',(28.4542942774066,-1.5,6.97943597013327));
#1653=CARTESIAN_POINT('Origin',(28.4542942774066,-1.5,6.97943597013327));
#1654=CARTESIAN_POINT('Origin',(19.8542942774066,1.5,11.5794359701333));
#1655=CARTESIAN_POINT('',(18.8542942774066,1.5,11.5794359701333));
#1656=CARTESIAN_POINT('',(19.8542942774066,2.5,11.5794359701333));
#1657=CARTESIAN_POINT('Origin',(19.8542942774066,1.5,11.5794359701333));
#1658=CARTESIAN_POINT('',(19.8542942774066,1.5,12.5794359701333));
#1659=CARTESIAN_POINT('Origin',(19.8542942774066,1.5,11.5794359701333));
#1660=CARTESIAN_POINT('Origin',(19.8542942774066,1.5,11.5794359701333));
#1661=CARTESIAN_POINT('Origin',(19.8542942774066,0.,11.5794359701333));
#1662=CARTESIAN_POINT('',(18.8542942774066,0.,11.5794359701333));
#1663=CARTESIAN_POINT('',(19.8542942774066,0.,12.5794359701333));
#1664=CARTESIAN_POINT('Origin',(28.4542942774066,-1.5,11.5794359701333));
#1665=CARTESIAN_POINT('',(29.4542942774066,-1.5,11.5794359701333));
#1666=CARTESIAN_POINT('',(28.4542942774066,-2.5,11.5794359701333));
#1667=CARTESIAN_POINT('Origin',(28.4542942774066,-1.5,11.5794359701333));
#1668=CARTESIAN_POINT('',(28.4542942774066,-1.5,12.5794359701333));
#1669=CARTESIAN_POINT('Origin',(28.4542942774066,-1.5,11.5794359701333));
#1670=CARTESIAN_POINT('Origin',(28.4542942774066,-1.5,11.5794359701333));
#1671=CARTESIAN_POINT('Origin',(28.4542942774066,1.5,6.97943597013327));
#1672=CARTESIAN_POINT('',(29.4542942774066,1.5,6.97943597013327));
#1673=CARTESIAN_POINT('',(28.4542942774066,2.5,6.97943597013327));
#1674=CARTESIAN_POINT('Origin',(28.4542942774066,1.5,6.97943597013327));
#1675=CARTESIAN_POINT('',(28.4542942774066,1.5,5.97943597013327));
#1676=CARTESIAN_POINT('Origin',(28.4542942774066,1.5,6.97943597013327));
#1677=CARTESIAN_POINT('Origin',(28.4542942774066,1.5,6.97943597013327));
#1678=CARTESIAN_POINT('Origin',(28.4542942774066,0.,6.97943597013327));
#1679=CARTESIAN_POINT('',(29.4542942774066,0.,6.97943597013327));
#1680=CARTESIAN_POINT('',(28.4542942774066,0.,5.97943597013327));
#1681=CARTESIAN_POINT('Origin',(26.8042942774066,1.5,6.97943597013327));
#1682=CARTESIAN_POINT('',(27.7684371202609,2.5,6.97943597013327));
#1683=CARTESIAN_POINT('',(28.0542942774066,2.21414284285428,6.27943597013327));
#1684=CARTESIAN_POINT('Ctrl Pts',(27.7684371202609,2.5,6.97943597013327));
#1685=CARTESIAN_POINT('Ctrl Pts',(27.8217034039798,2.5,6.92509349115713));
#1686=CARTESIAN_POINT('Ctrl Pts',(27.8683089435184,2.49552050539369,6.86501971888033));
#1687=CARTESIAN_POINT('Ctrl Pts',(27.9463969828336,2.47247369519205,6.73748252992008));
#1688=CARTESIAN_POINT('Ctrl Pts',(27.9803324572334,2.45231595527878,6.66443987440618));
#1689=CARTESIAN_POINT('Ctrl Pts',(28.0278767315346,2.39169772138576,6.52008488256714));
#1690=CARTESIAN_POINT('Ctrl Pts',(28.0417402770102,2.35106243287281,6.44893005720574));
#1691=CARTESIAN_POINT('Ctrl Pts',(28.0525262318449,2.27847318557577,6.35000758778004));
#1692=CARTESIAN_POINT('Ctrl Pts',(28.0542942774066,2.24767924925873,6.31364994814589));
#1693=CARTESIAN_POINT('Ctrl Pts',(28.0542942774066,2.21414284285488,6.27943597013388));
#1694=CARTESIAN_POINT('',(26.8042942774066,2.5,6.97943597013327));
#1695=CARTESIAN_POINT('',(28.0542942774066,1.5,5.97943597013328));
#1696=CARTESIAN_POINT('',(26.8042942774066,1.5,5.97943597013327));
#1697=CARTESIAN_POINT('Origin',(28.0542942774066,1.5,6.97943597013327));
#1698=CARTESIAN_POINT('Origin',(28.4542942774066,1.5,11.5794359701333));
#1699=CARTESIAN_POINT('',(28.4542942774066,1.5,12.5794359701333));
#1700=CARTESIAN_POINT('',(28.4542942774066,2.5,11.5794359701333));
#1701=CARTESIAN_POINT('Origin',(28.4542942774066,1.5,11.5794359701333));
#1702=CARTESIAN_POINT('',(29.4542942774066,1.5,11.5794359701333));
#1703=CARTESIAN_POINT('Origin',(28.4542942774066,1.5,11.5794359701333));
#1704=CARTESIAN_POINT('Origin',(28.4542942774066,1.5,11.5794359701333));
#1705=CARTESIAN_POINT('Origin',(28.4542942774066,0.,11.5794359701333));
#1706=CARTESIAN_POINT('',(28.4542942774066,0.,12.5794359701333));
#1707=CARTESIAN_POINT('',(29.4542942774066,0.,11.5794359701333));
#1708=CARTESIAN_POINT('Origin',(28.4542942774066,1.5,10.9294359701333));
#1709=CARTESIAN_POINT('',(28.4542942774066,2.5,10.9294359701333));
#1710=CARTESIAN_POINT('',(29.4542942774066,1.5,10.9294359701333));
#1711=CARTESIAN_POINT('Origin',(21.5042942774066,1.5,11.5794359701333));
#1712=CARTESIAN_POINT('',(21.5042942774066,2.5,11.5794359701333));
#1713=CARTESIAN_POINT('',(21.5042942774066,1.5,12.5794359701333));
#1714=CARTESIAN_POINT('Origin',(21.5042942774066,-1.5,11.5794359701333));
#1715=CARTESIAN_POINT('',(21.5042942774066,-2.5,11.5794359701333));
#1716=CARTESIAN_POINT('',(21.5042942774066,-1.5,12.5794359701333));
#1717=CARTESIAN_POINT('Origin',(28.4542942774066,-1.5,10.9294359701333));
#1718=CARTESIAN_POINT('',(28.4542942774066,-2.5,10.9294359701333));
#1719=CARTESIAN_POINT('',(29.4542942774066,-1.5,10.9294359701333));
#1720=CARTESIAN_POINT('Origin',(19.8542942774066,1.5,9.52943597013327));
#1721=CARTESIAN_POINT('',(19.8542942774066,2.5,9.77943597013327));
#1722=CARTESIAN_POINT('',(18.8542942774066,1.5,9.77943597013327));
#1723=CARTESIAN_POINT('Origin',(19.8542942774066,1.5,9.77943597013327));
#1724=CARTESIAN_POINT('',(18.8542942774066,1.5,9.52943597013327));
#1725=CARTESIAN_POINT('',(19.8542942774066,2.5,9.52943597013327));
#1726=CARTESIAN_POINT('Origin',(26.8042942774066,-1.5,6.97943597013327));
#1727=CARTESIAN_POINT('',(28.0542942774066,-2.21414284285428,6.27943597013327));
#1728=CARTESIAN_POINT('',(28.0542942774066,-1.5,5.97943597013328));
#1729=CARTESIAN_POINT('Origin',(28.0542942774066,-1.5,6.97943597013327));
#1730=CARTESIAN_POINT('',(26.8042942774066,-1.5,5.97943597013327));
#1731=CARTESIAN_POINT('',(27.7684371202609,-2.5,6.97943597013327));
#1732=CARTESIAN_POINT('',(26.8042942774066,-2.5,6.97943597013327));
#1733=CARTESIAN_POINT('Ctrl Pts',(28.0542942774066,-2.21414284285488,6.27943597013388));
#1734=CARTESIAN_POINT('Ctrl Pts',(28.0542942774066,-2.24767924925873,6.31364994814589));
#1735=CARTESIAN_POINT('Ctrl Pts',(28.0525262318449,-2.27847318557577,6.35000758778004));
#1736=CARTESIAN_POINT('Ctrl Pts',(28.0417402770102,-2.35106243287281,6.44893005720574));
#1737=CARTESIAN_POINT('Ctrl Pts',(28.0278767315346,-2.39169772138576,6.52008488256714));
#1738=CARTESIAN_POINT('Ctrl Pts',(27.9803324572334,-2.45231595527878,6.66443987440618));
#1739=CARTESIAN_POINT('Ctrl Pts',(27.9463969828336,-2.47247369519205,6.73748252992008));
#1740=CARTESIAN_POINT('Ctrl Pts',(27.8683089435184,-2.49552050539369,6.86501971888033));
#1741=CARTESIAN_POINT('Ctrl Pts',(27.8217034039798,-2.5,6.92509349115713));
#1742=CARTESIAN_POINT('Ctrl Pts',(27.7684371202609,-2.5,6.97943597013328));
#1743=CARTESIAN_POINT('Origin',(19.8542942774066,-1.5,9.52943597013327));
#1744=CARTESIAN_POINT('',(19.8542942774066,-2.5,9.52943597013327));
#1745=CARTESIAN_POINT('',(18.8542942774066,-1.5,9.77943597013327));
#1746=CARTESIAN_POINT('',(18.8542942774066,-1.5,9.52943597013327));
#1747=CARTESIAN_POINT('',(18.8542942774066,-1.5,8.77943597013327));
#1748=CARTESIAN_POINT('',(18.8542942774066,-1.5,5.97943597013327));
#1749=CARTESIAN_POINT('',(18.8542942774066,-1.5,9.52943597013327));
#1750=CARTESIAN_POINT('Origin',(19.8542942774066,1.5,8.57943597013328));
#1751=CARTESIAN_POINT('',(18.8542942774066,1.5,8.77943597013327));
#1752=CARTESIAN_POINT('',(19.8542942774066,2.5,8.77943597013327));
#1753=CARTESIAN_POINT('Origin',(19.8542942774066,1.5,8.77943597013327));
#1754=CARTESIAN_POINT('',(19.8542942774066,2.5,8.57943597013328));
#1755=CARTESIAN_POINT('',(18.8542942774066,1.5,8.57943597013328));
#1756=CARTESIAN_POINT('Origin',(19.8292942774066,1.5,6.97943597013327));
#1757=CARTESIAN_POINT('',(20.1542942774066,2.21414284285429,6.27943597013327));
#1758=CARTESIAN_POINT('',(20.1542942774066,1.5,5.97943597013327));
#1759=CARTESIAN_POINT('Origin',(20.1542942774066,1.5,6.97943597013327));
#1760=CARTESIAN_POINT('',(19.8292942774066,1.5,5.97943597013327));
#1761=CARTESIAN_POINT('',(20.4401514345523,2.5,6.97943597013327));
#1762=CARTESIAN_POINT('',(19.8292942774066,2.5,6.97943597013327));
#1763=CARTESIAN_POINT('Ctrl Pts',(20.1542942774066,2.21414284285488,6.27943597013388));
#1764=CARTESIAN_POINT('Ctrl Pts',(20.1542942774066,2.24767924925873,6.31364994814589));
#1765=CARTESIAN_POINT('Ctrl Pts',(20.1560623229683,2.27847318557577,6.35000758778004));
#1766=CARTESIAN_POINT('Ctrl Pts',(20.166848277803,2.35106243287281,6.44893005720574));
#1767=CARTESIAN_POINT('Ctrl Pts',(20.1807118232786,2.39169772138576,6.52008488256714));
#1768=CARTESIAN_POINT('Ctrl Pts',(20.2282560975798,2.45231595527878,6.66443987440618));
#1769=CARTESIAN_POINT('Ctrl Pts',(20.2621915719796,2.47247369519205,6.73748252992008));
#1770=CARTESIAN_POINT('Ctrl Pts',(20.3402796112948,2.49552050539369,6.86501971888033));
#1771=CARTESIAN_POINT('Ctrl Pts',(20.3868851508334,2.5,6.92509349115713));
#1772=CARTESIAN_POINT('Ctrl Pts',(20.4401514345523,2.5,6.97943597013328));
#1773=CARTESIAN_POINT('Origin',(29.4542942774066,0.,5.97943597013327));
#1774=CARTESIAN_POINT('',(28.0542942774066,0.,5.97943597013328));
#1775=CARTESIAN_POINT('Origin',(24.1542942774066,-2.5,9.27943597013327));
#1776=CARTESIAN_POINT('',(20.1542942774066,-2.5,7.27943597013327));
#1777=CARTESIAN_POINT('',(20.1542942774066,-2.5,3.81770220612531));
#1778=CARTESIAN_POINT('',(27.0542942774066,-2.5,7.27943597013327));
#1779=CARTESIAN_POINT('',(21.8292942774066,-2.5,7.27943597013327));
#1780=CARTESIAN_POINT('Origin',(27.0542942774066,-2.5,6.27943597013327));
#1781=CARTESIAN_POINT('Origin',(18.8542942774066,0.,9.77943597013327));
#1782=CARTESIAN_POINT('',(18.8542942774066,0.,8.77943597013327));
#1783=CARTESIAN_POINT('Origin',(20.1542942774066,0.,5.97943597013327));
#1784=CARTESIAN_POINT('',(20.1542942774066,0.,5.97943597013327));
#1785=CARTESIAN_POINT('Origin',(29.4542942774066,0.,12.5794359701333));
#1786=CARTESIAN_POINT('Origin',(18.8542942774066,0.,12.5794359701333));
#1787=CARTESIAN_POINT('Origin',(27.0542942774066,0.,1.26607049356071));
#1788=CARTESIAN_POINT('',(27.0542942774066,-6.,0.266070493560705));
#1789=CARTESIAN_POINT('',(26.8542942774066,-6.,0.286274596447434));
#1790=CARTESIAN_POINT('Origin',(27.0542942774066,-6.,1.26607049356071));
#1791=CARTESIAN_POINT('',(26.8542942774066,6.,0.286274596447434));
#1792=CARTESIAN_POINT('',(26.8542942774066,0.,0.286274596447433));
#1793=CARTESIAN_POINT('',(27.0542942774066,6.,0.266070493560705));
#1794=CARTESIAN_POINT('Origin',(27.0542942774066,6.,1.26607049356071));
#1795=CARTESIAN_POINT('',(28.0542942774066,5.,1.26607049356071));
#1796=CARTESIAN_POINT('Origin',(27.0542942774066,5.,1.26607049356071));
#1797=CARTESIAN_POINT('',(28.0542942774066,-5.,1.26607049356071));
#1798=CARTESIAN_POINT('',(28.0542942774066,0.,1.26607049356071));
#1799=CARTESIAN_POINT('Origin',(27.0542942774066,-5.,1.26607049356071));
#1800=CARTESIAN_POINT('Origin',(27.0542942774066,-5.,5.52356908812929));
#1801=CARTESIAN_POINT('',(28.0542942774066,-5.,6.27943597013327));
#1802=CARTESIAN_POINT('',(28.0542942774066,-5.,5.52356908812929));
#1803=CARTESIAN_POINT('',(27.0542942774066,-6.,6.27943597013327));
#1804=CARTESIAN_POINT('Origin',(27.0542942774066,-5.,6.27943597013327));
#1805=CARTESIAN_POINT('',(27.0542942774066,-6.,5.52356908812929));
#1806=CARTESIAN_POINT('Origin',(28.0542942774066,0.,7.27943597013327));
#1807=CARTESIAN_POINT('',(28.0542942774066,5.,6.27943597013327));
#1808=CARTESIAN_POINT('',(28.0542942774066,5.,5.52356908812929));
#1809=CARTESIAN_POINT('',(28.0542942774066,0.,6.27943597013327));
#1810=CARTESIAN_POINT('',(28.0542942774066,0.,6.27943597013327));
#1811=CARTESIAN_POINT('Origin',(27.0542942774066,5.,5.52356908812929));
#1812=CARTESIAN_POINT('',(27.0542942774066,6.,6.27943597013327));
#1813=CARTESIAN_POINT('',(27.0542942774066,6.,5.52356908812929));
#1814=CARTESIAN_POINT('Origin',(27.0542942774066,5.,6.27943597013327));
#1815=CARTESIAN_POINT('Origin',(21.1542942774066,0.,1.26607049356071));
#1816=CARTESIAN_POINT('',(21.1542942774066,6.,0.266070493560706));
#1817=CARTESIAN_POINT('',(21.3542942774066,6.,0.286274596447437));
#1818=CARTESIAN_POINT('Origin',(21.1542942774066,6.,1.26607049356071));
#1819=CARTESIAN_POINT('',(21.3542942774066,-6.,0.286274596447437));
#1820=CARTESIAN_POINT('',(21.3542942774066,0.,0.286274596447436));
#1821=CARTESIAN_POINT('',(21.1542942774066,-6.,0.266070493560706));
#1822=CARTESIAN_POINT('Origin',(21.1542942774066,-6.,1.26607049356071));
#1823=CARTESIAN_POINT('',(20.1542942774066,-5.,1.26607049356071));
#1824=CARTESIAN_POINT('Origin',(21.1542942774066,-5.,1.26607049356071));
#1825=CARTESIAN_POINT('',(20.1542942774066,5.,1.26607049356071));
#1826=CARTESIAN_POINT('',(20.1542942774066,0.,1.26607049356071));
#1827=CARTESIAN_POINT('Origin',(21.1542942774066,5.,1.26607049356071));
#1828=CARTESIAN_POINT('Origin',(21.1542942774066,5.,2.01183532412133));
#1829=CARTESIAN_POINT('',(20.1542942774066,5.,6.27943597013327));
#1830=CARTESIAN_POINT('',(20.1542942774066,5.,2.01183532412133));
#1831=CARTESIAN_POINT('',(21.1542942774066,6.,6.27943597013327));
#1832=CARTESIAN_POINT('Origin',(21.1542942774066,5.,6.27943597013327));
#1833=CARTESIAN_POINT('',(21.1542942774066,6.,2.01183532412133));
#1834=CARTESIAN_POINT('Origin',(20.1542942774066,0.,0.255968442117342));
#1835=CARTESIAN_POINT('',(20.1542942774066,-5.,7.27943597013327));
#1836=CARTESIAN_POINT('',(20.1542942774066,-5.,2.01183532412133));
#1837=CARTESIAN_POINT('',(20.1542942774066,0.,7.27943597013327));
#1838=CARTESIAN_POINT('',(20.1542942774066,0.,6.27943597013327));
#1839=CARTESIAN_POINT('Origin',(21.1542942774066,-5.,2.01183532412133));
#1840=CARTESIAN_POINT('',(21.1542942774066,-6.,6.27943597013327));
#1841=CARTESIAN_POINT('',(21.1542942774066,-6.,2.01183532412133));
#1842=CARTESIAN_POINT('Origin',(21.1542942774066,-5.,6.27943597013327));
#1843=CARTESIAN_POINT('Origin',(27.0542942774066,-5.,6.27943597013327));
#1844=CARTESIAN_POINT('',(27.0542942774066,-5.,7.27943597013327));
#1845=CARTESIAN_POINT('Origin',(27.0542942774066,-5.,6.27943597013327));
#1846=CARTESIAN_POINT('Origin',(27.0542942774066,-5.,6.27943597013327));
#1847=CARTESIAN_POINT('Origin',(27.0542942774066,0.,6.27943597013327));
#1848=CARTESIAN_POINT('',(27.0542942774066,0.,7.27943597013327));
#1849=CARTESIAN_POINT('Origin',(22.1292942774066,-5.,6.27943597013327));
#1850=CARTESIAN_POINT('',(22.1292942774066,-6.,6.27943597013327));
#1851=CARTESIAN_POINT('',(22.1292942774066,-5.,7.27943597013327));
#1852=CARTESIAN_POINT('Origin',(27.1542942774066,0.,1.75596844211734));
#1853=CARTESIAN_POINT('',(25.6542942774066,-6.,1.75596844211734));
#1854=CARTESIAN_POINT('Origin',(27.1542942774066,-6.,1.75596844211734));
#1855=CARTESIAN_POINT('',(25.6542942774066,6.,1.75596844211734));
#1856=CARTESIAN_POINT('',(25.6542942774066,0.,1.75596844211734));
#1857=CARTESIAN_POINT('Origin',(27.1542942774066,6.,1.75596844211734));
#1858=CARTESIAN_POINT('Origin',(24.1042942774066,-6.,3.76770220612531));
#1859=CARTESIAN_POINT('',(22.5542942774066,-6.,1.75596844211734));
#1860=CARTESIAN_POINT('Origin',(21.0542942774066,-6.,1.75596844211734));
#1861=CARTESIAN_POINT('',(22.0542942774066,-6.,2.25596844211734));
#1862=CARTESIAN_POINT('Origin',(22.0542942774066,-6.,1.75596844211734));
#1863=CARTESIAN_POINT('',(21.7542942774066,-6.,2.25596844211734));
#1864=CARTESIAN_POINT('',(21.7542942774066,-6.,2.25596844211734));
#1865=CARTESIAN_POINT('',(21.7542942774066,-6.,5.25596844211734));
#1866=CARTESIAN_POINT('',(21.7542942774066,-6.,5.25596844211734));
#1867=CARTESIAN_POINT('',(26.4542942774066,-6.,5.25596844211734));
#1868=CARTESIAN_POINT('',(26.4542942774066,-6.,5.25596844211734));
#1869=CARTESIAN_POINT('',(26.4542942774066,-6.,2.25596844211734));
#1870=CARTESIAN_POINT('',(26.4542942774066,-6.,2.25596844211734));
#1871=CARTESIAN_POINT('',(26.1542942774066,-6.,2.25596844211734));
#1872=CARTESIAN_POINT('',(21.7542942774066,-6.,2.25596844211734));
#1873=CARTESIAN_POINT('Origin',(26.1542942774066,-6.,1.75596844211734));
#1874=CARTESIAN_POINT('Origin',(21.0542942774066,0.,1.75596844211734));
#1875=CARTESIAN_POINT('',(22.5542942774066,6.,1.75596844211734));
#1876=CARTESIAN_POINT('Origin',(21.0542942774066,6.,1.75596844211734));
#1877=CARTESIAN_POINT('',(22.5542942774066,0.,1.75596844211734));
#1878=CARTESIAN_POINT('Origin',(27.0542942774066,5.,6.27943597013327));
#1879=CARTESIAN_POINT('',(27.0542942774066,5.,7.27943597013327));
#1880=CARTESIAN_POINT('Origin',(27.0542942774066,5.,6.27943597013327));
#1881=CARTESIAN_POINT('Origin',(27.0542942774066,5.,6.27943597013327));
#1882=CARTESIAN_POINT('Origin',(27.0542942774066,0.,6.27943597013327));
#1883=CARTESIAN_POINT('',(27.0542942774066,2.5,7.27943597013327));
#1884=CARTESIAN_POINT('Origin',(27.0542942774066,2.5,6.27943597013327));
#1885=CARTESIAN_POINT('',(27.0542942774066,0.,7.27943597013327));
#1886=CARTESIAN_POINT('Origin',(21.1542942774066,5.,6.27943597013327));
#1887=CARTESIAN_POINT('',(21.1542942774066,5.,7.27943597013327));
#1888=CARTESIAN_POINT('Origin',(21.1542942774066,5.,6.27943597013327));
#1889=CARTESIAN_POINT('Origin',(21.1542942774066,5.,6.27943597013327));
#1890=CARTESIAN_POINT('Origin',(21.1542942774066,0.,6.27943597013327));
#1891=CARTESIAN_POINT('',(21.1542942774066,2.5,7.27943597013327));
#1892=CARTESIAN_POINT('Origin',(21.1542942774066,2.5,6.27943597013327));
#1893=CARTESIAN_POINT('',(21.1542942774066,0.,7.27943597013327));
#1894=CARTESIAN_POINT('Origin',(22.1292942774066,5.,6.27943597013327));
#1895=CARTESIAN_POINT('',(22.1292942774066,6.,6.27943597013327));
#1896=CARTESIAN_POINT('',(22.1292942774066,5.,7.27943597013327));
#1897=CARTESIAN_POINT('Origin',(20.1542942774066,0.,7.27943597013327));
#1898=CARTESIAN_POINT('',(28.1542942774066,2.5,7.27943597013327));
#1899=CARTESIAN_POINT('',(20.1542942774066,2.5,7.27943597013327));
#1900=CARTESIAN_POINT('',(20.1542942774066,2.5,7.27943597013327));
#1901=CARTESIAN_POINT('',(19.8292942774066,2.5,7.27943597013327));
#1902=CARTESIAN_POINT('',(20.1542942774066,-1.5,7.27943597013327));
#1903=CARTESIAN_POINT('',(20.1542942774066,0.,7.27943597013327));
#1904=CARTESIAN_POINT('',(28.1542942774066,-1.5,7.27943597013327));
#1905=CARTESIAN_POINT('',(21.8292942774066,-1.5,7.27943597013327));
#1906=CARTESIAN_POINT('',(28.1542942774066,0.,7.27943597013327));
#1907=CARTESIAN_POINT('Origin',(23.5042942774066,-1.5,8.62943597013327));
#1908=CARTESIAN_POINT('',(20.1542942774066,-1.5,8.77943597013327));
#1909=CARTESIAN_POINT('',(20.1542942774066,-1.5,8.70443597013328));
#1910=CARTESIAN_POINT('',(21.1792942774066,-1.5,8.77943597013327));
#1911=CARTESIAN_POINT('',(20.1542942774066,-1.5,9.77943597013327));
#1912=CARTESIAN_POINT('',(21.8292942774066,-1.5,9.77943597013327));
#1913=CARTESIAN_POINT('',(20.1542942774066,-1.5,11.2794359701333));
#1914=CARTESIAN_POINT('',(20.1542942774066,-1.5,9.95443597013328));
#1915=CARTESIAN_POINT('',(28.1542942774066,-1.5,11.2794359701333));
#1916=CARTESIAN_POINT('',(25.8292942774066,-1.5,11.2794359701333));
#1917=CARTESIAN_POINT('',(28.1542942774066,-1.5,7.95443597013327));
#1918=CARTESIAN_POINT('Origin',(20.1542942774066,0.,7.27943597013327));
#1919=CARTESIAN_POINT('Origin',(18.8542942774066,0.,9.77943597013327));
#1920=CARTESIAN_POINT('',(18.8542942774066,0.,9.77943597013327));
#1921=CARTESIAN_POINT('Origin',(20.1542942774066,0.,9.77943597013327));
#1922=CARTESIAN_POINT('',(20.1542942774066,2.5,9.77943597013327));
#1923=CARTESIAN_POINT('',(18.7553163456129,2.5,9.77943597013327));
#1924=CARTESIAN_POINT('',(20.1542942774066,0.,9.77943597013327));
#1925=CARTESIAN_POINT('Origin',(20.1542942774066,0.,11.2794359701333));
#1926=CARTESIAN_POINT('',(20.1542942774066,2.5,11.2794359701333));
#1927=CARTESIAN_POINT('',(20.1542942774066,2.5,11.2794359701333));
#1928=CARTESIAN_POINT('',(20.1542942774066,0.,11.2794359701333));
#1929=CARTESIAN_POINT('Origin',(28.1542942774066,0.,11.2794359701333));
#1930=CARTESIAN_POINT('',(28.1542942774066,2.5,11.2794359701333));
#1931=CARTESIAN_POINT('',(28.1542942774066,2.5,11.2794359701333));
#1932=CARTESIAN_POINT('',(28.1542942774066,0.,11.2794359701333));
#1933=CARTESIAN_POINT('Origin',(28.1542942774066,0.,7.27943597013327));
#1934=CARTESIAN_POINT('',(28.1542942774066,2.5,7.27943597013327));
#1935=CARTESIAN_POINT('Origin',(24.1542942774066,2.5,9.27943597013327));
#1936=CARTESIAN_POINT('Origin',(18.8542942774066,0.,8.77943597013327));
#1937=CARTESIAN_POINT('',(20.1542942774066,2.5,8.77943597013327));
#1938=CARTESIAN_POINT('',(20.1542942774066,0.,8.77943597013327));
#1939=CARTESIAN_POINT('',(20.1542942774066,2.5,8.77943597013327));
#1940=CARTESIAN_POINT('Origin',(20.1542942774066,0.,8.77943597013327));
#1941=CARTESIAN_POINT('',(20.1542942774066,2.5,11.2794359701333));
#1942=CARTESIAN_POINT('Origin',(19.5042942774066,2.5,7.37943597013327));
#1943=CARTESIAN_POINT('Origin',(22.0542942774066,0.,1.75596844211734));
#1944=CARTESIAN_POINT('',(22.0542942774066,6.,2.25596844211734));
#1945=CARTESIAN_POINT('Origin',(22.0542942774066,6.,1.75596844211734));
#1946=CARTESIAN_POINT('',(22.0542942774066,0.,2.25596844211734));
#1947=CARTESIAN_POINT('Origin',(26.1542942774066,0.,1.75596844211734));
#1948=CARTESIAN_POINT('',(26.1542942774066,6.,2.25596844211734));
#1949=CARTESIAN_POINT('Origin',(26.1542942774066,6.,1.75596844211734));
#1950=CARTESIAN_POINT('',(26.1542942774066,0.,2.25596844211734));
#1951=CARTESIAN_POINT('Origin',(25.6542942774066,0.,2.25596844211734));
#1952=CARTESIAN_POINT('',(26.4542942774066,6.,2.25596844211734));
#1953=CARTESIAN_POINT('',(26.4542942774066,0.,2.25596844211734));
#1954=CARTESIAN_POINT('',(21.7542942774066,6.,2.25596844211734));
#1955=CARTESIAN_POINT('Origin',(21.7542942774066,0.,2.25596844211734));
#1956=CARTESIAN_POINT('',(21.7542942774066,6.,2.25596844211734));
#1957=CARTESIAN_POINT('',(21.7542942774066,6.,2.25596844211734));
#1958=CARTESIAN_POINT('',(21.7542942774066,0.,2.25596844211734));
#1959=CARTESIAN_POINT('Origin',(21.7542942774066,0.,5.25596844211734));
#1960=CARTESIAN_POINT('',(21.7542942774066,6.,5.25596844211734));
#1961=CARTESIAN_POINT('',(21.7542942774066,6.,5.25596844211734));
#1962=CARTESIAN_POINT('',(21.7542942774066,0.,5.25596844211734));
#1963=CARTESIAN_POINT('Origin',(26.4542942774066,0.,5.25596844211734));
#1964=CARTESIAN_POINT('',(26.4542942774066,6.,5.25596844211734));
#1965=CARTESIAN_POINT('',(26.4542942774066,6.,5.25596844211734));
#1966=CARTESIAN_POINT('',(26.4542942774066,0.,5.25596844211734));
#1967=CARTESIAN_POINT('Origin',(26.4542942774066,0.,2.25596844211734));
#1968=CARTESIAN_POINT('',(26.4542942774066,6.,2.25596844211734));
#1969=CARTESIAN_POINT('Origin',(24.1042942774066,6.,3.76770220612531));
#1970=UNCERTAINTY_MEASURE_WITH_UNIT(LENGTH_MEASURE(0.01),#1974,
'DISTANCE_ACCURACY_VALUE',
'Maximum model space distance between geometric entities at asserted c
onnectivities');
#1971=UNCERTAINTY_MEASURE_WITH_UNIT(LENGTH_MEASURE(0.01),#1974,
'DISTANCE_ACCURACY_VALUE',
'Maximum model space distance between geometric entities at asserted c
onnectivities');
#1972=(
GEOMETRIC_REPRESENTATION_CONTEXT(3)
GLOBAL_UNCERTAINTY_ASSIGNED_CONTEXT((#1970))
GLOBAL_UNIT_ASSIGNED_CONTEXT((#1974,#1975,#1976))
REPRESENTATION_CONTEXT('','3D')
);
#1973=(
GEOMETRIC_REPRESENTATION_CONTEXT(3)
GLOBAL_UNCERTAINTY_ASSIGNED_CONTEXT((#1971))
GLOBAL_UNIT_ASSIGNED_CONTEXT((#1974,#1975,#1976))
REPRESENTATION_CONTEXT('','3D')
);
#1974=(
LENGTH_UNIT()
NAMED_UNIT(*)
SI_UNIT(.MILLI.,.METRE.)
);
#1975=(
NAMED_UNIT(*)
PLANE_ANGLE_UNIT()
SI_UNIT($,.RADIAN.)
);
#1976=(
NAMED_UNIT(*)
SI_UNIT($,.STERADIAN.)
SOLID_ANGLE_UNIT()
);
#1977=SHAPE_DEFINITION_REPRESENTATION(#1978,#1979);
#1978=PRODUCT_DEFINITION_SHAPE('',$,#1981);
#1979=SHAPE_REPRESENTATION('',(#1132),#1972);
#1980=PRODUCT_DEFINITION_CONTEXT('part definition',#1985,'design');
#1981=PRODUCT_DEFINITION('bowtie-connector','bowtie-connector v5',#1982,
#1980);
#1982=PRODUCT_DEFINITION_FORMATION('',$,#1987);
#1983=PRODUCT_RELATED_PRODUCT_CATEGORY('bowtie-connector v5',
'bowtie-connector v5',(#1987));
#1984=APPLICATION_PROTOCOL_DEFINITION('international standard',
'automotive_design',2009,#1985);
#1985=APPLICATION_CONTEXT(
'Core Data for Automotive Mechanical Design Process');
#1986=PRODUCT_CONTEXT('part definition',#1985,'mechanical');
#1987=PRODUCT('bowtie-connector','bowtie-connector v5',$,(#1986));
#1988=PRESENTATION_STYLE_ASSIGNMENT((#1989));
#1989=SURFACE_STYLE_USAGE(.BOTH.,#1990);
#1990=SURFACE_SIDE_STYLE('',(#1991));
#1991=SURFACE_STYLE_FILL_AREA(#1992);
#1992=FILL_AREA_STYLE('Steel - Satin',(#1993));
#1993=FILL_AREA_STYLE_COLOUR('Steel - Satin',#1994);
#1994=COLOUR_RGB('Steel - Satin',0.627450980392157,0.627450980392157,0.627450980392157);
ENDSEC;
END-ISO-10303-21;
